<svg width="80" height="80" viewBox="0 0 80 80" fill="none" xmlns="http://www.w3.org/2000/svg">
<path d="M39.1591 71.4671C39.7294 71.4966 40.2647 71.6328 40.7636 71.8747C41.2549 72.1162 41.682 72.4363 42.0446 72.835L41.2318 73.6871C40.947 73.3819 40.6178 73.1304 40.2446 72.9323C39.8639 72.7338 39.4711 72.6236 39.066 72.6027C38.5707 72.5771 38.1859 72.6657 37.912 72.8677C37.6305 73.0693 37.4804 73.341 37.4624 73.6829C37.4491 73.9354 37.495 74.139 37.5995 74.2935C37.7039 74.4554 37.8554 74.5941 38.0525 74.7086C38.2421 74.8227 38.4613 74.9422 38.7104 75.0667L39.8331 75.6161C40.0972 75.7415 40.3555 75.9006 40.6087 76.0924C40.854 76.2914 41.0559 76.5331 41.214 76.8171C41.3642 77.108 41.4291 77.454 41.4079 77.8553C41.3853 78.2864 41.2487 78.6669 40.9981 78.9968C40.7476 79.3267 40.4108 79.578 39.988 79.7499C39.5648 79.9293 39.09 80.0052 38.5648 79.978C38.0771 79.9528 37.6202 79.8357 37.1948 79.6275C36.7695 79.4192 36.4111 79.1477 36.1204 78.8123L36.8282 78.0214C37.0787 78.2654 37.3509 78.4582 37.6444 78.6001C37.93 78.7489 38.2565 78.8327 38.624 78.8517C39.0518 78.8738 39.395 78.7948 39.6528 78.6143C39.91 78.4413 40.0466 78.195 40.0634 77.8755C40.0759 77.6377 40.0226 77.4376 39.9034 77.275C39.7836 77.1198 39.6255 76.9844 39.4284 76.8699C39.2234 76.7624 39.0139 76.6583 38.801 76.5579L37.6893 76.0203C37.3663 75.8695 37.0824 75.6907 36.8375 75.4844C36.5926 75.278 36.406 75.0329 36.2779 74.7506C36.1499 74.4682 36.0963 74.1226 36.1178 73.714C36.1409 73.2755 36.2785 72.8802 36.5302 72.5281C36.7815 72.1834 37.1307 71.9109 37.5775 71.7103C38.024 71.5173 38.5514 71.4358 39.1591 71.4671Z" fill="#8C9761"/>
<path fill-rule="evenodd" clip-rule="evenodd" d="M29.9141 70.147C30.2815 70.1182 30.6607 70.1578 31.0513 70.267C31.5936 70.4186 32.0503 70.6785 32.422 71.0453C32.7917 71.4193 33.0416 71.8719 33.1714 72.4031C33.299 72.9413 33.2697 73.5361 33.0841 74.1878C32.9474 74.6677 32.7489 75.0767 32.4889 75.4139C32.2269 75.7582 31.9281 76.0268 31.5923 76.2191C31.2545 76.4184 30.9026 76.5442 30.5365 76.5965C30.1703 76.6488 29.8171 76.6277 29.4773 76.5327C28.9493 76.3852 28.5379 76.1422 28.2436 75.8048C27.9475 75.4746 27.766 75.072 27.6984 74.5971C27.6287 74.1291 27.673 73.6152 27.8321 73.0564C27.8668 72.9348 27.9079 72.8188 27.9549 72.7084C27.9927 72.6029 28.0335 72.5136 28.0777 72.4408L31.9504 73.5236C32.0204 73.141 32.0142 72.7911 31.9327 72.4744C31.8418 72.1629 31.6878 71.8958 31.4704 71.6726C31.2436 71.4546 30.9602 71.2979 30.6203 71.2029C30.3529 71.1282 30.0925 71.0975 29.8388 71.1115C29.585 71.1256 29.3299 71.1703 29.0742 71.2457L28.8634 70.3408C29.1892 70.2385 29.5396 70.1738 29.9141 70.147ZM28.8524 73.5856C28.7096 74.0869 28.7142 74.5097 28.8659 74.8537C29.0105 75.1957 29.2999 75.4277 29.7338 75.549C29.9797 75.6177 30.2289 75.621 30.4806 75.5599C30.7321 75.4987 30.9676 75.3713 31.1867 75.1774C31.3986 74.9815 31.5754 74.7174 31.7167 74.3857L28.8524 73.5856Z" fill="#8C9761"/>
<path d="M75.9664 44.7158C74.5616 60.7664 62.1521 73.6971 46.251 76.0664L46.1223 75.2169C61.6294 72.9062 73.7319 60.2945 75.1019 44.642L75.9664 44.7158Z" fill="#8C9761"/>
<path fill-rule="evenodd" clip-rule="evenodd" d="M22.6259 67.3064C22.9661 67.276 23.322 67.288 23.6935 67.3417C24.0585 67.3918 24.4197 67.5117 24.7773 67.7015C25.274 67.965 25.664 68.3158 25.9474 68.7532C26.2272 69.1971 26.3729 69.6922 26.3843 70.2385C26.3921 70.7914 26.2347 71.3667 25.9119 71.9636C25.6741 72.4032 25.3915 72.7599 25.0643 73.0338C24.7336 73.3142 24.3833 73.513 24.0136 73.6292C23.6404 73.752 23.2691 73.7996 22.9002 73.7727C22.5313 73.7457 22.1911 73.6501 21.8799 73.485C21.3964 73.2284 21.0475 72.9035 20.8334 72.5113C20.6158 72.1256 20.5253 71.6931 20.5625 71.2147C20.5961 70.7429 20.7514 70.2511 21.0282 69.7394C21.0884 69.6281 21.1538 69.5236 21.2237 69.4258C21.2836 69.3309 21.3435 69.2526 21.4024 69.1909L24.9492 71.0729C25.1006 70.7142 25.1709 70.3714 25.16 70.0447C25.139 69.7213 25.0461 69.4275 24.8823 69.1633C24.7082 68.902 24.4654 68.6886 24.1541 68.5234C23.9091 68.3933 23.6609 68.3079 23.4099 68.2676C23.159 68.2273 22.9004 68.2165 22.6343 68.2357L22.6259 67.3064ZM21.9104 70.4733C21.6621 70.9324 21.5745 71.3463 21.6479 71.7145C21.7149 72.0794 21.9474 72.3675 22.3448 72.5784C22.5698 72.6977 22.8116 72.7547 23.0704 72.7486C23.3293 72.7425 23.5872 72.6682 23.8434 72.5255C24.0929 72.3794 24.3226 72.1592 24.5326 71.8655L21.9104 70.4733Z" fill="#8C9761"/>
<path d="M14.3986 58.2403L11.3065 60.9107C11.1196 61.072 10.9078 61.2454 10.6715 61.4298C10.4301 61.6086 10.1853 61.7896 9.93824 61.9733C9.68639 62.1513 9.4573 62.3099 9.25073 62.4488L9.28798 62.4907L11.1685 61.7401L15.0988 60.2422L15.6322 60.8486L13.6052 64.5094L12.5985 66.2531L12.6282 66.2866C12.7953 66.1028 12.9874 65.9018 13.2048 65.6844C13.4172 65.4615 13.6316 65.2463 13.8482 65.0395C14.06 64.827 14.26 64.6406 14.4468 64.4793L17.539 61.8089L18.3171 62.692L12.055 68.099L11.0626 66.9718L13.2395 63.1072C13.3791 62.8582 13.5272 62.6071 13.6831 62.354C13.8334 62.1059 13.9833 61.8575 14.1336 61.6093L14.0963 61.5674C13.8227 61.6753 13.554 61.7887 13.2903 61.9079C13.0158 62.0264 12.7465 62.1404 12.4834 62.2492L8.33715 63.8746L7.33721 62.739L13.5985 57.3312L14.3986 58.2403Z" fill="#8C9761"/>
<path fill-rule="evenodd" clip-rule="evenodd" d="M9.06191 51.478C9.61257 51.5126 10.1032 51.6711 10.5326 51.9536C10.9518 52.2325 11.2726 52.5998 11.4944 53.0556C11.7162 53.5114 11.8098 53.9954 11.7755 54.5074C11.7312 55.016 11.5529 55.4983 11.2404 55.9532C10.9179 56.4047 10.4483 56.7771 9.8324 57.0712C9.20968 57.3685 8.62279 57.4999 8.07214 57.4654C7.51158 57.4273 7.01977 57.2654 6.59721 56.9798C6.17148 56.6874 5.84787 56.3134 5.62605 55.8576C5.46291 55.5224 5.37225 55.1647 5.35427 54.785C5.32956 54.4085 5.38304 54.0396 5.51598 53.6787C5.64894 53.3179 5.8643 52.98 6.16116 52.6648C6.45138 52.3527 6.83038 52.0852 7.29742 51.8622C7.91325 51.5681 8.50132 51.4401 9.06191 51.478ZM8.99333 52.7252C8.64011 52.7534 8.26735 52.8615 7.87486 53.0489C7.48238 53.2363 7.16806 53.4561 6.93249 53.7089C6.69017 53.9651 6.5401 54.2396 6.48206 54.5317C6.41399 54.8203 6.45013 55.1089 6.59043 55.3972C6.734 55.6922 6.94253 55.9067 7.21613 56.0405C7.47971 56.1707 7.78832 56.2213 8.14156 56.1931C8.48802 56.1681 8.85738 56.0618 9.24988 55.8744C9.64241 55.687 9.96006 55.4655 10.2024 55.2093C10.438 54.9564 10.5865 54.6871 10.6478 54.4017C10.7058 54.1096 10.6634 53.816 10.5199 53.5211C10.3796 53.2328 10.1773 53.0232 9.91368 52.8929C9.64684 52.7559 9.33983 52.7002 8.99333 52.7252Z" fill="#8C9761"/>
<path d="M3.74387 46.6313C3.73581 46.7487 3.73576 46.8531 3.74387 46.9433C3.75197 47.0334 3.77194 47.1397 3.80398 47.262C3.86626 47.4997 4.03059 47.7269 4.29675 47.943C4.55564 48.1609 4.94979 48.3018 5.47873 48.3657L9.21008 47.4063L9.53606 48.6492L3.52457 50.1949L3.25871 49.1784L4.3103 48.7934L4.30437 48.7716C3.86229 48.6546 3.49706 48.4752 3.20876 48.234C2.91323 47.9948 2.72301 47.7128 2.63809 47.3886C2.60038 47.2446 2.57919 47.1193 2.57459 47.0129C2.56999 46.9065 2.57377 46.8014 2.5856 46.6984L3.74387 46.6313Z" fill="#8C9761"/>
<path fill-rule="evenodd" clip-rule="evenodd" d="M5.02152 39.2535C5.13443 39.2532 5.23303 39.2611 5.31701 39.2778L5.59303 43.2548C5.98027 43.1911 6.31099 43.0677 6.58451 42.8849C6.85001 42.6953 7.05188 42.461 7.19073 42.183C7.32155 41.898 7.37499 41.5809 7.35076 41.2319C7.33165 40.9573 7.27273 40.704 7.1738 40.4721C7.07484 40.2401 6.94645 40.0175 6.78856 39.8045L7.57852 39.3029C7.78552 39.5723 7.96449 39.8776 8.11616 40.2179C8.26726 40.5507 8.35671 40.9174 8.38456 41.3183C8.42324 41.8751 8.33104 42.3887 8.1077 42.8589C7.87679 43.3298 7.53083 43.7155 7.06966 44.0155C6.60096 44.316 6.02543 44.4898 5.34326 44.5363C4.84103 44.5705 4.38567 44.5226 3.97755 44.3937C3.56221 44.2654 3.20652 44.0775 2.91073 43.8293C2.6073 43.5814 2.36841 43.2953 2.19527 42.9713C2.02214 42.6474 1.92402 42.3106 1.89978 41.9616C1.86218 41.4196 1.95426 40.9549 2.1758 40.5668C2.3899 40.1792 2.7113 39.8734 3.14018 39.6502C3.56148 39.4276 4.06442 39.2967 4.64898 39.2568C4.77638 39.2481 4.90058 39.2468 5.02152 39.2535ZM4.4898 40.3865C3.96534 40.4223 3.56497 40.5686 3.28919 40.826C3.01282 41.0761 2.88994 41.4246 2.92089 41.8701C2.93847 42.1225 3.01934 42.3556 3.16219 42.5696C3.30509 42.7836 3.5052 42.9606 3.76334 43.0996C4.02103 43.2313 4.33178 43.3069 4.6947 43.3269L4.4898 40.3865Z" fill="#8C9761"/>
<path fill-rule="evenodd" clip-rule="evenodd" d="M72.086 36.0086L72.6914 35.8593L71.9649 32.9701L75.1442 32.1842L76.8638 39.0144L73.6837 39.7994L72.9437 36.8599L72.3374 37.0092L73.3577 41.0591L72.5898 41.2487L71.5704 37.1987L70.4197 37.483L70.1682 36.4833L71.318 36.1982L70.3071 32.1792L71.0742 31.9897L72.086 36.0086ZM72.8624 33.7249L74.1079 38.6748L74.7243 38.523L73.4779 33.5731L72.8624 33.7249ZM74.1036 33.4188L75.35 38.3687L75.9553 38.2185L74.7099 33.2686L74.1036 33.4188Z" fill="#8C9761"/>
<path fill-rule="evenodd" clip-rule="evenodd" d="M76.6954 33.1932C76.7445 33.1575 76.7971 33.1217 76.8494 33.0808C77.0363 32.9426 77.2025 32.8055 77.3473 32.6707L77.7529 33.4766L77.1788 31.1938L77.9358 31.0067L78.8011 34.4453C78.8272 34.4249 78.8554 34.4058 78.8823 34.3841C79.0809 34.2359 79.2567 34.0937 79.4081 33.9572L79.856 34.8445C79.708 34.9943 79.5415 35.1417 79.3565 35.2865C79.2555 35.3699 79.1589 35.443 79.0686 35.5088L79.8916 38.7763L79.1347 38.9633L78.5725 36.7299L78.6233 37.613C78.3795 37.5529 78.1467 37.4936 77.9247 37.4352C77.8647 37.4194 77.8066 37.4022 77.7503 37.3866L78.3616 39.8129L77.5945 40.0024L75.3195 30.9623L76.0866 30.7727L76.6954 33.1932ZM77.7664 33.5295C77.6337 33.6729 77.4805 33.8153 77.3058 33.9555C77.1812 34.0583 77.0623 34.1435 76.9527 34.2164L77.4912 36.3567C77.5584 36.373 77.6271 36.3907 77.6978 36.4078C77.8508 36.4479 78.0021 36.4817 78.1517 36.5085C78.2949 36.5372 78.4214 36.5539 78.5301 36.5621L77.7664 33.5295Z" fill="#8C9761"/>
<path d="M36.2753 8.06802C21.7054 10.0527 10.0574 21.1173 7.3389 35.3117L6.48714 35.1523C9.27451 20.5973 21.2162 9.25295 36.1568 7.2176L36.2753 8.06802Z" fill="#8C9761"/>
<path fill-rule="evenodd" clip-rule="evenodd" d="M71.4637 19.3566C71.5895 19.1874 71.7249 18.9682 71.8675 18.6974C72.0281 18.3989 72.1648 18.1146 72.2773 17.8445L73.1638 18.466C73.061 18.7373 72.9366 19.0208 72.7913 19.3164C72.6502 19.6174 72.512 19.8603 72.3755 20.0444L71.5746 19.4984L74.4838 23.186L73.7294 23.7698L72.7244 22.4958C71.5434 22.8837 70.4164 23.0904 69.3419 23.1114C68.9604 23.1207 68.5822 23.1052 68.2073 23.0703C68.2002 23.4326 68.2125 23.7982 68.2471 24.1673C68.3535 25.262 68.6611 26.3713 69.1691 27.4952C69.0718 27.4833 68.9513 27.4761 68.8085 27.4734C68.6698 27.4761 68.5331 27.482 68.3987 27.4901C68.2642 27.4983 68.1435 27.5124 68.0371 27.5338C67.5376 26.3424 67.2494 25.179 67.1727 24.044C67.1484 23.6656 67.1478 23.2897 67.1667 22.916C66.7776 22.8358 66.3919 22.7325 66.0101 22.6032C64.9344 22.2325 63.8493 21.6721 62.7563 20.9225C62.7908 20.8435 62.834 20.7414 62.8842 20.6155C62.9344 20.4894 62.9797 20.3574 63.0213 20.2205C63.0618 20.0934 63.0911 19.9797 63.1086 19.8791C64.1352 20.6451 65.152 21.2138 66.1583 21.5858C66.5254 21.7215 66.8955 21.8301 67.2683 21.9138C67.3311 21.5124 67.4196 21.1136 67.5333 20.7178C67.8404 19.6832 68.2984 18.6626 68.9067 17.6558L67.9067 16.3877L68.6611 15.804L71.4637 19.3566ZM69.5324 18.4483C69.0667 19.261 68.7176 20.1073 68.4859 20.9879C68.395 21.3465 68.327 21.709 68.2801 22.0748C68.599 22.1059 68.9198 22.1209 69.2428 22.1151C70.137 22.0987 71.0686 21.935 72.0386 21.6261L69.5324 18.4483Z" fill="#8C9761"/>
<path fill-rule="evenodd" clip-rule="evenodd" d="M54.6688 11.338C55.4005 11.5534 56.0896 11.7024 56.7355 11.7859C57.3812 11.8693 57.9753 11.894 58.5178 11.8588C59.0604 11.8236 59.5375 11.7442 59.9479 11.6207L60.7057 12.425C60.3847 12.514 60.0496 12.5834 59.7015 12.6363L61.5862 13.896L61.7555 13.9597L62.1078 14.6047C61.407 15.0563 60.6797 15.3624 59.9267 15.5222C59.1737 15.682 58.4 15.7244 57.6059 15.6497C56.8215 15.5731 56.0284 15.4038 55.2276 15.1423C54.4289 14.8903 53.6324 14.5735 52.8382 14.1921C52.887 14.059 52.9254 13.8982 52.9534 13.7098C52.9813 13.5213 52.9916 13.3581 52.9847 13.2209C53.7175 13.5944 54.4544 13.913 55.1954 14.1761C55.8997 14.4195 56.5921 14.586 57.2715 14.6793C57.2384 14.5433 57.1952 14.3942 57.1403 14.2323C57.0513 13.9574 56.9433 13.6733 56.816 13.381C56.71 13.1163 56.597 12.8696 56.4815 12.6388C55.927 12.5625 55.3477 12.4485 54.7441 12.2958C54.7523 12.2101 54.7549 12.1078 54.7517 11.9897C54.7485 11.8716 54.7408 11.7545 54.728 11.6383C54.7152 11.5221 54.6952 11.4219 54.6688 11.338ZM57.4798 12.7344C57.5717 12.9106 57.6643 13.0977 57.7516 13.298C57.8827 13.5845 57.9976 13.8646 58.0962 14.1375C58.1825 14.3667 58.2461 14.5732 58.2892 14.7565C58.6931 14.7588 59.0879 14.7276 59.4729 14.6592C59.8905 14.5818 60.2893 14.4544 60.6701 14.2784L58.3815 12.7495C58.2549 12.7526 58.1267 12.7538 57.9971 12.7529C57.8274 12.7516 57.6549 12.7442 57.4798 12.7344Z" fill="#8C9761"/>
<path fill-rule="evenodd" clip-rule="evenodd" d="M50.0983 3.70353L49.9299 4.56318L46.0385 3.8134L45.8937 4.55227L49.1416 5.17793L48.3491 9.21449L44.9615 8.562C44.8248 8.87482 44.6448 9.16596 44.4162 9.43339C44.2459 9.63899 44.0391 9.82537 43.7973 9.99446C44.0157 10.1314 44.2485 10.2579 44.4967 10.3727C45.0735 10.6377 45.7308 10.8731 46.4677 11.078C47.2061 11.2762 48.0237 11.4685 48.9198 11.655C48.8169 11.7472 48.7073 11.873 48.5912 12.0325C48.4738 12.1988 48.3852 12.3606 48.3262 12.5172C47.4138 12.3065 46.5714 12.081 45.7989 11.8412C45.0317 11.6095 44.3439 11.3336 43.7355 11.0135C43.4289 10.851 43.1434 10.6706 42.8786 10.4725C42.5964 10.5782 42.2822 10.6691 41.9346 10.7409C41.3381 10.864 40.628 10.9332 39.8052 10.9497C39.7789 10.8677 39.742 10.7662 39.6951 10.6453C39.6537 10.5324 39.6065 10.4145 39.5528 10.2922C39.4978 10.1767 39.4396 10.0746 39.3793 9.98607C40.1737 10.0061 40.845 9.9709 41.3927 9.8804C41.638 9.84094 41.8628 9.79064 42.0684 9.73531C41.6855 9.29845 41.3793 8.78602 41.1514 8.19633L42.0438 8.02189C42.2813 8.5464 42.5937 8.99352 42.9794 9.36461C43.2275 9.21547 43.4343 9.04703 43.5975 8.85637C43.7296 8.70204 43.838 8.53638 43.9294 8.36323L40.9651 7.79293L41.7576 3.75637L44.8819 4.3577L45.0275 3.61882L40.9931 2.84304L41.1624 1.9834L50.0983 3.70353ZM45.3518 7.31488C45.3196 7.47874 45.2798 7.63861 45.2358 7.79544L47.5439 8.24078L47.7149 7.37023L45.4272 6.92993L45.3518 7.31488ZM42.0396 7.18069L44.2232 7.60087C44.2691 7.44197 44.3095 7.27806 44.3426 7.10941L44.4154 6.73535L42.2098 6.31098L42.0396 7.18069ZM45.5719 6.19105L47.8597 6.6322L48.0265 5.78261L45.7387 5.34147L45.5719 6.19105ZM42.3545 5.57211L44.5602 5.99648L44.727 5.1469L42.5213 4.72252L42.3545 5.57211Z" fill="#8C9761"/>
<path fill-rule="evenodd" clip-rule="evenodd" d="M55.9388 7.57403C56.5727 7.74893 57.1707 7.86694 57.7321 7.92712C58.2972 7.98156 58.8167 7.99242 59.29 7.96066C59.767 7.92321 60.1875 7.85233 60.5516 7.74764L61.3153 8.54355C61.0424 8.61626 60.76 8.67529 60.4686 8.72302L62.4685 10.059L62.6285 10.1169L62.9451 10.7761C62.3239 11.0986 61.6568 11.3162 60.9444 11.4286C60.2417 11.5392 59.517 11.565 58.771 11.5058C58.0346 11.4446 57.2985 11.3209 56.5628 11.1359C55.8271 10.9509 55.1203 10.7236 54.4427 10.4532C54.4723 10.3239 54.4963 10.1659 54.5147 9.97937C54.5426 9.79087 54.5509 9.63034 54.5401 9.4988C55.1637 9.7746 55.8167 10.0079 56.4985 10.1983C57.1116 10.3714 57.7255 10.4926 58.3392 10.5673C58.3027 10.4445 58.2571 10.3108 58.2011 10.1672C58.1064 9.91348 57.9957 9.65283 57.8684 9.38558C57.7731 9.17499 57.6709 8.97834 57.5687 8.79263C57.0923 8.74113 56.5952 8.66023 56.0777 8.54942C56.0897 8.45812 56.0896 8.3544 56.0768 8.23827C56.0679 8.11626 56.0491 7.99593 56.0209 7.87764C55.9985 7.76321 55.971 7.66184 55.9388 7.57403ZM58.9039 8.85889C58.7819 8.86066 58.6583 8.86008 58.533 8.85721C58.6049 8.98548 58.6756 9.11986 58.743 9.26146C58.8801 9.52706 59.001 9.78598 59.1054 10.0381C59.2024 10.2633 59.272 10.4651 59.3171 10.6428C59.7332 10.653 60.1362 10.636 60.5253 10.5891C60.8622 10.548 61.181 10.478 61.4829 10.3828L59.1884 8.8505C59.0944 8.85427 58.9995 8.85731 58.9039 8.85889Z" fill="#8C9761"/>
<path d="M44.7594 36.7483L34.7196 46.7817C34.5706 46.9306 34.3835 47.0033 34.1581 46.9999C33.9325 46.9965 33.7453 46.9202 33.5963 46.7712C33.4475 46.6221 33.373 46.4366 33.373 46.2145C33.373 45.9925 33.4475 45.8069 33.5963 45.6579L43.6258 35.6143H34.8086C34.58 35.6143 34.3884 35.5369 34.2337 35.3821C34.0791 35.2273 34.0018 35.0355 34.0018 34.8069C34.0018 34.578 34.0791 34.3863 34.2337 34.2319C34.3884 34.0773 34.58 34 34.8086 34H45.4006C45.6761 34 45.9071 34.0932 46.0934 34.2795C46.2798 34.4661 46.373 34.6971 46.373 34.9726V45.5688C46.373 45.7975 46.2957 45.9892 46.141 46.1438C45.9862 46.2986 45.7946 46.376 45.566 46.376C45.3372 46.376 45.1455 46.2986 44.991 46.1438C44.8366 45.9892 44.7594 45.7975 44.7594 45.5688V36.7483Z" fill="#8C9761"/>
</svg>
