<svg width="96" height="96" viewBox="0 0 96 96" fill="none" xmlns="http://www.w3.org/2000/svg">
<path d="M46.8932 84.4785C47.551 84.5128 48.1684 84.6715 48.7438 84.9531C49.3104 85.2343 49.8031 85.607 50.2213 86.0713L49.2838 87.0635C48.9553 86.7081 48.5756 86.4152 48.1452 86.1846C47.7061 85.9535 47.253 85.8252 46.7858 85.8008C46.2146 85.771 45.7707 85.8742 45.4547 86.1094C45.1301 86.3441 44.9569 86.6605 44.9362 87.0586C44.9209 87.3526 44.9738 87.5897 45.0944 87.7695C45.2147 87.9581 45.3895 88.1196 45.6169 88.2529C45.8355 88.3857 46.0883 88.5249 46.3756 88.6699L47.6706 89.3096C47.9752 89.4556 48.2732 89.6409 48.5651 89.8643C48.8481 90.096 49.081 90.3774 49.2633 90.708C49.4366 91.0468 49.5113 91.4497 49.487 91.917C49.4608 92.4189 49.3033 92.862 49.0143 93.2461C48.7253 93.6302 48.3369 93.9228 47.8493 94.123C47.3611 94.3319 46.8135 94.4202 46.2077 94.3887C45.6452 94.3593 45.1182 94.223 44.6276 93.9805C44.1371 93.738 43.7237 93.4218 43.3883 93.0312L44.2047 92.1104C44.4937 92.3944 44.8076 92.619 45.1462 92.7842C45.4755 92.9575 45.8521 93.055 46.276 93.0771C46.7694 93.1029 47.1652 93.0109 47.4626 92.8008C47.7593 92.5993 47.9168 92.3124 47.9362 91.9404C47.9506 91.6636 47.8892 91.4306 47.7516 91.2412C47.6135 91.0605 47.4311 90.9029 47.2038 90.7695C46.9673 90.6444 46.7257 90.5232 46.4801 90.4062L45.1979 89.7803C44.8254 89.6047 44.4979 89.3965 44.2155 89.1562C43.9329 88.9159 43.7177 88.6306 43.57 88.3018C43.4223 87.973 43.3606 87.5706 43.3854 87.0947C43.4121 86.5842 43.5707 86.1239 43.861 85.7139C44.1509 85.3125 44.5537 84.9952 45.069 84.7617C45.584 84.5369 46.1923 84.442 46.8932 84.4785Z" fill="#8C9761"/>
<path fill-rule="evenodd" clip-rule="evenodd" d="M36.2301 82.9414C36.6538 82.9079 37.0912 82.954 37.5417 83.0811C38.1671 83.2576 38.694 83.5602 39.1227 83.9873C39.5491 84.4228 39.8373 84.9499 39.987 85.5684C40.1342 86.1951 40.1004 86.8877 39.8864 87.6465C39.7287 88.2053 39.4998 88.6816 39.1999 89.0742C38.8977 89.4751 38.553 89.7879 38.1657 90.0117C37.7761 90.2438 37.3702 90.3903 36.9479 90.4512C36.5256 90.5121 36.1182 90.4875 35.7262 90.377C35.1173 90.2052 34.6428 89.9222 34.3034 89.5293C33.9619 89.1448 33.7525 88.6761 33.6745 88.123C33.5941 87.5781 33.6452 86.9797 33.8288 86.3291C33.8687 86.1875 33.9161 86.0524 33.9704 85.9238C34.014 85.8011 34.0611 85.697 34.112 85.6123L38.5788 86.873C38.6594 86.4275 38.6523 86.0201 38.5583 85.6514C38.4535 85.2887 38.2758 84.9776 38.0251 84.7178C37.7635 84.4639 37.4366 84.2815 37.0446 84.1709C36.7362 84.0839 36.4358 84.0481 36.1432 84.0645C35.8505 84.0809 35.5562 84.1329 35.2614 84.2207L35.0182 83.167C35.394 83.0479 35.7981 82.9726 36.2301 82.9414ZM35.0055 86.9453C34.8409 87.529 34.8461 88.0213 35.0212 88.4219C35.1879 88.8201 35.5217 89.0902 36.0221 89.2314C36.3057 89.3115 36.5932 89.3153 36.8835 89.2441C37.1735 89.1729 37.4452 89.0246 37.6979 88.7988C37.9423 88.5707 38.1463 88.2631 38.3092 87.877L35.0055 86.9453Z" fill="#8C9761"/>
<path d="M89.3463 53.3291C87.7261 72.0186 73.413 87.0751 55.0729 89.834L54.9245 88.8447C72.8102 86.1541 86.7691 71.469 88.3493 53.2432L89.3463 53.3291Z" fill="#8C9761"/>
<path fill-rule="evenodd" clip-rule="evenodd" d="M27.8239 79.6338C28.2164 79.5984 28.6269 79.6123 29.0553 79.6748C29.4762 79.7332 29.8929 79.8728 30.3053 80.0938C30.8782 80.4007 31.3281 80.809 31.6549 81.3184C31.9776 81.8353 32.1457 82.4118 32.1588 83.0479C32.1678 83.6917 31.9863 84.3615 31.6139 85.0566C31.3397 85.5685 31.0137 85.9838 30.6364 86.3027C30.2549 86.6293 29.8509 86.8608 29.4245 86.9961C28.994 87.139 28.5658 87.1945 28.1403 87.1631C27.7148 87.1317 27.3225 87.0204 26.9635 86.8281C26.4059 86.5294 26.0034 86.1511 25.7565 85.6943C25.5055 85.2453 25.4012 84.7417 25.444 84.1846C25.4828 83.6352 25.662 83.0625 25.9811 82.4668C26.0506 82.3371 26.126 82.2155 26.2067 82.1016C26.2757 81.9911 26.3448 81.8999 26.4128 81.8281L30.5036 84.0195C30.6782 83.6018 30.7593 83.2026 30.7467 82.8223C30.7225 82.4456 30.6154 82.1036 30.4264 81.7959C30.2256 81.4917 29.9456 81.2431 29.5866 81.0508C29.3039 80.8993 29.0177 80.7999 28.7282 80.7529C28.4388 80.706 28.1405 80.6935 27.8337 80.7158L27.8239 79.6338ZM26.9987 83.3213C26.7123 83.8559 26.6112 84.3378 26.696 84.7666C26.7732 85.1914 27.0413 85.5269 27.4997 85.7725C27.7592 85.9114 28.0381 85.9777 28.3366 85.9707C28.6353 85.9636 28.9327 85.877 29.2282 85.7109C29.516 85.5407 29.7809 85.2844 30.0231 84.9424L26.9987 83.3213Z" fill="#8C9761"/>
<path d="M18.3346 69.0771L14.7682 72.1865C14.5527 72.3744 14.3084 72.5763 14.0358 72.791C13.7574 72.9992 13.475 73.2099 13.1901 73.4238C12.8996 73.6311 12.6354 73.8158 12.3971 73.9775L12.4401 74.0264L14.609 73.1523L19.1422 71.4082L19.7575 72.1143L17.4196 76.377L16.2585 78.4072L16.2926 78.4463C16.4854 78.2322 16.7069 77.9982 16.9577 77.7451C17.2027 77.4855 17.45 77.235 17.6999 76.9941C17.9441 76.7468 18.1747 76.5297 18.3903 76.3418L21.9567 73.2324L22.8542 74.2607L15.6315 80.5566L14.487 79.2441L16.9977 74.7441C17.1588 74.4543 17.3296 74.1619 17.5094 73.8672C17.6827 73.5782 17.8557 73.289 18.029 73L17.986 72.9512C17.6704 73.0769 17.3605 73.2089 17.0563 73.3477C16.7397 73.4857 16.4292 73.6185 16.1256 73.7451L11.3434 75.6377L10.1901 74.3154L17.4118 68.0186L18.3346 69.0771Z" fill="#8C9761"/>
<path fill-rule="evenodd" clip-rule="evenodd" d="M12.1794 61.2031C12.8145 61.2433 13.3804 61.4279 13.8756 61.7568C14.3591 62.0816 14.7292 62.5093 14.985 63.04C15.2408 63.5707 15.3488 64.1343 15.3092 64.7305C15.258 65.3228 15.0524 65.8844 14.692 66.4141C14.3201 66.9397 13.7784 67.3734 13.068 67.7158C12.3498 68.0621 11.6729 68.215 11.0378 68.1748C10.3912 68.1305 9.82396 67.942 9.33658 67.6094C8.84555 67.269 8.4723 66.8334 8.21646 66.3027C8.02829 65.9124 7.92373 65.4959 7.90299 65.0537C7.87449 64.6154 7.93618 64.1858 8.08951 63.7656C8.24286 63.3455 8.49125 62.952 8.83365 62.585C9.16839 62.2216 9.60552 61.9101 10.1442 61.6504C10.8545 61.308 11.5328 61.159 12.1794 61.2031ZM12.1003 62.6553C11.6929 62.6882 11.2629 62.814 10.8102 63.0322C10.3575 63.2505 9.99499 63.5063 9.7233 63.8008C9.4438 64.0991 9.27072 64.4187 9.20377 64.7588C9.12526 65.0949 9.16694 65.4309 9.32877 65.7666C9.49436 66.1101 9.73487 66.3599 10.0504 66.5156C10.3545 66.6673 10.7104 66.7262 11.1178 66.6934C11.5174 66.6642 11.9434 66.5405 12.3962 66.3223C12.8489 66.104 13.2153 65.8461 13.4948 65.5479C13.7665 65.2533 13.9377 64.9397 14.0085 64.6074C14.0754 64.2674 14.0265 63.9254 13.861 63.582C13.6992 63.2463 13.4658 63.0023 13.1618 62.8506C12.854 62.6911 12.4999 62.6262 12.1003 62.6553Z" fill="#8C9761"/>
<path d="M6.04557 55.5596C6.03627 55.6963 6.03622 55.8178 6.04557 55.9229C6.05492 56.0278 6.07795 56.1515 6.1149 56.2939C6.18673 56.5708 6.37627 56.8353 6.68326 57.0869C6.98185 57.3407 7.43647 57.5046 8.04654 57.5791L12.3503 56.4619L12.7262 57.9092L5.79264 59.709L5.486 58.5254L6.69889 58.0771L6.69205 58.0518C6.18215 57.9155 5.7609 57.7066 5.42838 57.4258C5.08752 57.1472 4.86812 56.8189 4.77017 56.4414C4.72667 56.2737 4.70224 56.1278 4.69693 56.0039C4.69163 55.88 4.69599 55.7576 4.70963 55.6377L6.04557 55.5596Z" fill="#8C9761"/>
<path fill-rule="evenodd" clip-rule="evenodd" d="M7.5192 46.9688C7.64943 46.9685 7.76315 46.9777 7.86002 46.9971L8.17838 51.6279C8.62501 51.5538 9.00646 51.4101 9.32193 51.1973C9.62816 50.9764 9.86099 50.7036 10.0212 50.3799C10.172 50.0481 10.2337 49.6788 10.2057 49.2725C10.1837 48.9527 10.1157 48.6577 10.0016 48.3877C9.88748 48.1176 9.7394 47.8584 9.55728 47.6104L10.4684 47.0264C10.7072 47.3401 10.9136 47.6955 11.0885 48.0918C11.2628 48.4793 11.366 48.9063 11.3981 49.373C11.4427 50.0214 11.3364 50.6194 11.0788 51.167C10.8124 51.7152 10.4134 52.1643 9.8815 52.5137C9.34091 52.8636 8.6771 53.066 7.89029 53.1201C7.31103 53.16 6.78582 53.1041 6.3151 52.9541C5.83604 52.8047 5.42579 52.5859 5.08463 52.2969C4.73466 52.0082 4.45912 51.675 4.25943 51.2979C4.05974 50.9207 3.94657 50.5284 3.91861 50.1221C3.87524 49.491 3.98145 48.9499 4.23697 48.498C4.48391 48.0467 4.85461 47.6906 5.34928 47.4307C5.83521 47.1715 6.41529 47.019 7.08951 46.9727C7.23646 46.9625 7.3797 46.961 7.5192 46.9688ZM6.90592 48.2881C6.30101 48.3298 5.83923 48.5001 5.52115 48.7998C5.20239 49.091 5.06066 49.4969 5.09635 50.0156C5.11662 50.3095 5.20991 50.5809 5.37467 50.8301C5.53949 51.0793 5.77029 51.2854 6.06803 51.4473C6.36525 51.6006 6.72366 51.6886 7.14225 51.7119L6.90592 48.2881Z" fill="#8C9761"/>
<path fill-rule="evenodd" clip-rule="evenodd" d="M84.8708 43.1904L85.569 43.0166L84.7311 39.6523L88.3981 38.7373L90.3815 46.6904L86.7135 47.6045L85.86 44.1816L85.1608 44.3555L86.3376 49.0713L85.4518 49.292L84.276 44.5762L82.9489 44.9072L82.6588 43.7432L83.985 43.4111L82.819 38.7314L83.7038 38.5107L84.8708 43.1904ZM85.7663 40.5312L87.2028 46.2949L87.9137 46.1182L86.4762 40.3545L85.7663 40.5312ZM87.1979 40.1748L88.6354 45.9385L89.3336 45.7637L87.8971 40L87.1979 40.1748Z" fill="#8C9761"/>
<path fill-rule="evenodd" clip-rule="evenodd" d="M90.1872 39.9121C90.2438 39.8706 90.3045 39.8289 90.3649 39.7812C90.5804 39.6203 90.7722 39.4608 90.9391 39.3037L91.4069 40.2422L90.7448 37.584L91.6178 37.3662L92.6159 41.3701C92.6461 41.3464 92.6785 41.3241 92.7096 41.2988C92.9387 41.1263 93.1413 40.9608 93.3161 40.8018L93.8327 41.835C93.6619 42.0094 93.4699 42.181 93.2565 42.3496C93.1401 42.4467 93.0286 42.5319 92.9245 42.6084L93.8737 46.4131L93.0006 46.6309L92.3522 44.0303L92.4108 45.0586C92.1296 44.9886 91.8611 44.9196 91.6051 44.8516C91.5359 44.8332 91.4689 44.8132 91.404 44.7949L92.109 47.6201L91.2243 47.8408L88.6003 37.3145L89.485 37.0938L90.1872 39.9121ZM91.4225 40.3037C91.2694 40.4707 91.0928 40.6365 90.8913 40.7998C90.7475 40.9194 90.6104 41.0186 90.484 41.1035L91.1051 43.5957C91.1826 43.6148 91.2618 43.6353 91.3434 43.6553C91.5198 43.7019 91.6943 43.7413 91.8669 43.7725C92.0321 43.806 92.178 43.8254 92.3034 43.835L91.4225 40.3037Z" fill="#8C9761"/>
<path d="M43.5671 10.6562C26.7623 12.9672 13.3275 25.851 10.192 42.3789L9.20963 42.1934C12.4246 25.2455 26.1979 12.036 43.4303 9.66602L43.5671 10.6562Z" fill="#8C9761"/>
<path fill-rule="evenodd" clip-rule="evenodd" d="M84.153 23.8008C84.2982 23.6037 84.4543 23.3484 84.6188 23.0332C84.8039 22.6856 84.9617 22.3546 85.0915 22.04L86.1139 22.7637C85.9953 23.0797 85.8519 23.4097 85.6842 23.7539C85.5215 24.1044 85.3621 24.3872 85.2047 24.6016L84.2809 23.9658L87.6364 28.2598L86.7663 28.9395L85.6071 27.4561C84.245 27.9077 82.945 28.1484 81.7057 28.1729C81.2657 28.1837 80.8295 28.1656 80.3971 28.125C80.3889 28.5469 80.4031 28.9726 80.443 29.4023C80.5658 30.677 80.9206 31.9686 81.5065 33.2773C81.3943 33.2636 81.2553 33.2551 81.0905 33.252C80.9305 33.2551 80.7729 33.262 80.6178 33.2715C80.4628 33.2809 80.3236 33.2974 80.2008 33.3223C79.6246 31.9351 79.2922 30.5804 79.2038 29.2588C79.1758 28.8182 79.1751 28.3804 79.1969 27.9453C78.7482 27.8519 78.3033 27.7317 77.8629 27.5811C76.6222 27.1494 75.3707 26.4969 74.11 25.624C74.1498 25.5321 74.1996 25.4132 74.2575 25.2666C74.3154 25.1198 74.3676 24.966 74.4157 24.8066C74.4623 24.6587 74.4962 24.5263 74.5163 24.4092C75.7004 25.3011 76.8731 25.9633 78.0338 26.3965C78.4572 26.5545 78.8841 26.6809 79.3141 26.7783C79.3865 26.311 79.4885 25.8466 79.6198 25.3857C79.974 24.181 80.5022 22.9927 81.2038 21.8203L80.0504 20.3438L80.9206 19.6641L84.153 23.8008ZM81.9254 22.7432C81.3883 23.6894 80.9857 24.6749 80.7184 25.7002C80.6136 26.1178 80.5352 26.5399 80.4811 26.9658C80.8489 27.0021 81.2189 27.0196 81.5915 27.0127C82.6229 26.9937 83.6974 26.803 84.8161 26.4434L81.9254 22.7432Z" fill="#8C9761"/>
<path fill-rule="evenodd" clip-rule="evenodd" d="M64.7819 14.4639C65.6259 14.7147 66.4207 14.8881 67.1657 14.9854C67.9104 15.0825 68.5956 15.1113 69.2213 15.0703C69.8472 15.0293 70.3974 14.9368 70.8708 14.793L71.7448 15.7295C71.3746 15.8332 70.9882 15.914 70.5866 15.9756L72.7604 17.4424L72.9557 17.5166L73.362 18.2676C72.5537 18.7935 71.7149 19.1498 70.8463 19.3359C69.9778 19.5221 69.0855 19.5714 68.1696 19.4844C67.2648 19.3952 66.35 19.1981 65.4264 18.8936C64.5052 18.6002 63.5866 18.2313 62.6706 17.7871C62.7268 17.6322 62.7711 17.4449 62.8034 17.2256C62.8356 17.0061 62.8475 16.816 62.8395 16.6562C63.6847 17.0912 64.5346 17.4622 65.3893 17.7686C66.2017 18.0519 67.0003 18.2458 67.7838 18.3545C67.7457 18.1961 67.6959 18.0225 67.6325 17.834C67.5299 17.5139 67.4053 17.183 67.2585 16.8428C67.1363 16.5345 67.0059 16.2473 66.8727 15.9785C66.2332 15.8897 65.565 15.7569 64.8688 15.5791C64.8782 15.4793 64.8813 15.3602 64.8776 15.2227C64.8739 15.0852 64.865 14.9488 64.8503 14.8135C64.8355 14.6782 64.8124 14.5616 64.7819 14.4639ZM68.0241 16.0898C68.1301 16.295 68.2369 16.5128 68.3376 16.7461C68.4888 17.0797 68.6214 17.4058 68.735 17.7236C68.8346 17.9905 68.908 18.2309 68.9577 18.4443C69.4235 18.447 69.8789 18.4107 70.3229 18.3311C70.8045 18.241 71.2646 18.0926 71.7038 17.8877L69.0641 16.1074C68.9181 16.111 68.7703 16.1124 68.6208 16.1113C68.4251 16.1099 68.2261 16.1012 68.0241 16.0898Z" fill="#8C9761"/>
<path fill-rule="evenodd" clip-rule="evenodd" d="M59.5104 5.57422L59.3161 6.5752L54.8278 5.70215L54.6608 6.5625L58.4069 7.29102L57.4928 11.9912L53.5856 11.2314C53.4279 11.5957 53.2203 11.9347 52.9567 12.2461C52.7603 12.4855 52.5218 12.7025 52.2428 12.8994C52.4947 13.0589 52.7633 13.2061 53.0495 13.3398C53.7148 13.6484 54.4729 13.9226 55.3229 14.1611C56.1745 14.3919 57.1175 14.6158 58.151 14.833C58.0324 14.9403 57.906 15.0867 57.7721 15.2725C57.6367 15.4662 57.5345 15.6545 57.4665 15.8369C56.414 15.5916 55.4425 15.3289 54.5514 15.0498C53.6666 14.78 52.8733 14.4587 52.1715 14.0859C51.8179 13.8967 51.4886 13.6867 51.1833 13.4561C50.8577 13.5792 50.4953 13.685 50.0944 13.7686C49.4064 13.9119 48.5874 13.9925 47.6383 14.0117C47.608 13.9162 47.5654 13.798 47.5114 13.6572C47.4636 13.5258 47.4093 13.3885 47.3473 13.2461C47.2839 13.1116 47.2167 12.9928 47.1471 12.8896C48.0634 12.9129 48.8377 12.872 49.4694 12.7666C49.7523 12.7207 50.0116 12.6621 50.2487 12.5977C49.8072 12.089 49.4539 11.4923 49.1911 10.8057L50.2204 10.6025C50.4943 11.2133 50.8546 11.7339 51.2995 12.166C51.5857 11.9924 51.8241 11.7962 52.0124 11.5742C52.1647 11.3945 52.2897 11.2016 52.3952 11L48.9762 10.3359L49.8903 5.63574L53.4938 6.33594L53.6618 5.47559L49.0085 4.57227L49.2038 3.57129L59.5104 5.57422ZM54.0358 9.7793C53.9987 9.97009 53.9527 10.1562 53.902 10.3389L56.5641 10.8574L56.7614 9.84375L54.1227 9.33105L54.0358 9.7793ZM50.2155 9.62305L52.734 10.1123C52.787 9.92728 52.8336 9.73643 52.8717 9.54004L52.9557 9.10449L50.4118 8.61035L50.2155 9.62305ZM54.2897 8.4707L56.9284 8.98438L57.1208 7.99512L54.4821 7.48145L54.2897 8.4707ZM50.5788 7.75L53.1227 8.24414L53.3151 7.25488L50.7712 6.76074L50.5788 7.75Z" fill="#8C9761"/>
<path fill-rule="evenodd" clip-rule="evenodd" d="M66.2467 10.0811C66.9779 10.2847 67.6676 10.4221 68.3151 10.4922C68.9669 10.5556 69.5661 10.5682 70.112 10.5312C70.6622 10.4876 71.1472 10.4051 71.567 10.2832L72.4479 11.21C72.1332 11.2946 71.8075 11.3634 71.4713 11.4189L73.778 12.9746L73.9626 13.042L74.3278 13.8096C73.6113 14.1851 72.8419 14.4384 72.0202 14.5693C71.2096 14.6981 70.3738 14.7282 69.5133 14.6592C68.664 14.588 67.815 14.4439 66.9665 14.2285C66.1179 14.0131 65.3027 13.7484 64.5212 13.4336C64.5552 13.283 64.583 13.099 64.6042 12.8818C64.6364 12.6623 64.6459 12.4754 64.6335 12.3223C65.3528 12.6434 66.1059 12.915 66.8922 13.1367C67.5994 13.3384 68.3075 13.4794 69.0153 13.5664C68.9733 13.4234 68.9207 13.2678 68.8561 13.1006C68.7468 12.8051 68.6192 12.5016 68.4723 12.1904C68.3625 11.9452 68.2445 11.7162 68.1266 11.5C67.5771 11.44 67.0038 11.3458 66.4069 11.2168C66.4207 11.1105 66.4207 10.9897 66.4059 10.8545C66.3956 10.7124 66.374 10.5723 66.3415 10.4346C66.3156 10.3013 66.2839 10.1833 66.2467 10.0811ZM69.6667 11.5771C69.5259 11.5792 69.3834 11.5785 69.2389 11.5752C69.3218 11.7246 69.4033 11.881 69.4811 12.0459C69.6392 12.3552 69.7786 12.6567 69.8991 12.9502C70.0109 13.2124 70.0912 13.4474 70.1432 13.6543C70.6231 13.6662 71.088 13.6465 71.5368 13.5918C71.9253 13.544 72.2931 13.4625 72.6413 13.3516L69.9948 11.5674C69.8864 11.5718 69.777 11.5753 69.6667 11.5771Z" fill="#8C9761"/>
<path d="M52.7594 44.7483L42.7196 54.7817C42.5706 54.9306 42.3835 55.0033 42.1581 54.9999C41.9325 54.9965 41.7453 54.9202 41.5963 54.7712C41.4475 54.6221 41.373 54.4366 41.373 54.2145C41.373 53.9925 41.4475 53.8069 41.5963 53.6579L51.6258 43.6143H42.8086C42.58 43.6143 42.3884 43.5369 42.2337 43.3821C42.0791 43.2273 42.0018 43.0355 42.0018 42.8069C42.0018 42.578 42.0791 42.3863 42.2337 42.2319C42.3884 42.0773 42.58 42 42.8086 42H53.4006C53.6761 42 53.9071 42.0932 54.0934 42.2795C54.2798 42.4661 54.373 42.6971 54.373 42.9726V53.5688C54.373 53.7975 54.2957 53.9892 54.141 54.1438C53.9862 54.2986 53.7946 54.376 53.566 54.376C53.3372 54.376 53.1455 54.2986 52.991 54.1438C52.8366 53.9892 52.7594 53.7975 52.7594 53.5688V44.7483Z" fill="#8C9761"/>
</svg>
