<svg width="24" height="24" viewBox="0 0 24 24" fill="white" xmlns="http://www.w3.org/2000/svg">
<path fill-rule="evenodd" clip-rule="evenodd" d="M15.3172 2C16.5936 2.00005 16.9964 2.21866 17.5855 2.35823C17.8288 2.41586 17.9999 2.62499 18 2.86457V6.04795C17.9999 6.20237 17.9284 6.34884 17.8044 6.44784C17.6804 6.5468 17.5168 6.58818 17.3579 6.56077C16.6076 6.43093 16.4594 6.37286 15.7627 6.37286C15.3661 6.37286 15.1033 6.42876 14.9065 6.51449C14.7128 6.59898 14.544 6.72914 14.3603 6.93752C14.0515 7.28773 13.8306 7.98915 13.8305 9.19522V9.80987H17.4547C17.63 9.80987 17.7948 9.89065 17.8973 10.0265C17.9997 10.1623 18.0271 10.3369 17.9719 10.4958L16.8542 13.7134C16.78 13.9269 16.5705 14.0712 16.3351 14.0707L13.8305 14.0642V21.4788C13.8305 21.7667 13.5863 21.9998 13.2852 22H9.60387C9.30262 22 9.0586 21.7668 9.0586 21.4788V14.0633H6.54528C6.24402 14.0633 6 13.8301 6 13.5422V10.3245C6 10.0366 6.24402 9.80339 6.54528 9.80339H9.0586V9.15357C9.0586 6.9238 9.52597 5.12598 10.5811 3.87911C11.6542 2.61109 13.2596 2 15.3172 2ZM15.3172 3.0423C13.4953 3.0423 12.2431 3.57404 11.4295 4.53541C10.5981 5.51804 10.1492 7.03662 10.1492 9.15357V10.3245C10.1491 10.6123 9.90495 10.8456 9.60387 10.8457H7.09056V13.021H9.60387C9.90492 13.0212 10.149 13.2544 10.1492 13.5422V20.9577H12.739V13.5422C12.7391 13.4039 12.7974 13.2715 12.8998 13.1737C13.0023 13.076 13.1413 13.0207 13.2862 13.021L15.9429 13.0266L16.6993 10.8531H13.2852C12.984 10.8531 12.739 10.6189 12.739 10.331V9.19522C12.739 7.93392 12.9574 6.91075 13.5264 6.26548C13.7814 5.97626 14.073 5.7318 14.4542 5.56568C14.8327 5.40077 15.2603 5.32963 15.7627 5.32963C16.2845 5.32963 16.5799 5.36623 16.9094 5.4222V3.25984C16.4803 3.13762 16.1733 3.04234 15.3172 3.0423Z"/>
</svg>
