<svg width="712" height="120" viewBox="0 0 712 120" fill="none" xmlns="http://www.w3.org/2000/svg">
<g clip-path="url(#clip0_4552_3782)">
<path d="M1.472 45.8096C4.41599 45.3191 4.41599 45.1229 4.41599 35.9021V13.0464C4.41599 4.4142 4.31786 4.31611 2.15893 3.62945C0.5888 3.13899 0.294401 2.74661 0.392534 0.980933C5.20106 1.76568 12.3648 0.980933 18.5472 0.980933C28.4586 0.980933 35.7205 7.65128 35.7205 14.1254C35.7205 26.3871 23.6501 30.2127 13.4442 28.5452C12.8554 28.4471 12.561 27.5642 13.5424 27.5642C23.3557 27.0738 28.8512 22.8557 28.4586 14.5178C28.1642 7.55318 22.7669 2.55043 11.0891 4.80657V34.3327C11.0891 45.4172 11.0891 45.4172 17.4677 45.8096C16.977 47.5753 16.5845 47.9676 15.6032 47.9676H0C0.2944 46.6924 0.490666 45.9077 1.472 45.8096Z" fill="white" fill-opacity="0.8"/>
<path d="M96.6612 0.980933C96.2687 2.64852 96.0724 3.04089 95.1892 3.13899C92.1471 3.33517 91.7545 3.23708 91.7545 11.7712V43.5534C91.7545 44.142 91.8527 44.6325 92.834 44.7305C94.4041 44.8286 97.9369 45.0248 100.587 44.8286C111.185 44.3382 111.872 42.3763 114.816 36.2945C115.208 35.6079 116.484 35.9021 116.19 36.785L112.951 47.5753C112.853 47.9676 112.559 48.2619 111.676 48.2619C109.615 48.1638 105.984 47.9676 100.783 47.9676H82.4319C81.6468 47.9676 81.3524 47.3791 82.2356 46.9867C84.6889 45.9077 85.1796 45.3191 85.1796 37.6678V13.1445C85.1796 3.23708 85.0815 3.33517 81.4506 3.04089C80.5674 2.9428 80.4692 2.15805 80.7636 0.882839H96.6612V0.980933Z" fill="white" fill-opacity="0.8"/>
<path d="M202.841 45.8096C202.253 47.4772 202.253 47.9676 201.271 47.9676H186.846C187.14 46.3981 187.14 45.9077 188.121 45.8096C192.341 45.5153 191.556 44.0439 189.495 38.3545L187.434 32.6651H170.457L167.023 41.7878C165.747 45.3191 166.139 45.4172 171.046 45.8096C170.457 47.4772 170.457 47.9676 169.476 47.9676H157.308C157.602 46.3 157.602 46.0058 158.583 45.8096C160.84 45.5153 161.527 44.6325 163.981 38.4526L179.289 0.58856C179.682 -0.196187 180.467 -0.196187 180.859 0.58856L196.953 38.5507C199.309 44.142 199.799 45.7115 202.841 45.8096ZM178.701 11.6731L171.537 29.7223H186.061L179.093 11.6731C179.093 11.575 178.799 11.575 178.701 11.6731Z" fill="white" fill-opacity="0.8"/>
<path d="M256.716 0.980933L284.488 35.3136V13.1445C284.488 4.21801 284.194 3.23708 280.268 3.04089C278.895 2.9428 278.796 2.55043 279.189 0.882839H293.615C293.124 2.74661 293.124 2.84471 292.241 3.04089C288.315 3.62945 288.119 4.31611 288.119 11.6731V47.7714C288.119 48.8505 286.156 48.5562 285.862 48.0657L255.048 9.31886V34.6269C255.048 44.5344 254.95 45.1229 260.642 45.8096C260.053 47.3791 260.053 47.9676 259.072 47.9676H245.922C246.216 46.5943 246.314 46.0058 247.198 45.8096C251.123 45.1229 251.221 44.6325 251.221 36.785V6.96463C251.221 4.31611 249.16 3.43327 246.314 3.13899C245.235 3.04089 245.333 2.35424 245.529 0.980933H256.716Z" fill="white" fill-opacity="0.8"/>
<path d="M338.265 1.37331C338.265 0.686653 338.658 0.490467 339.345 0.58856C341.602 0.784747 347.49 0.980933 353.28 0.980933H364.565C371.14 0.980933 375.85 0.784747 378.205 0.58856C378.892 0.490467 379.481 0.588559 379.481 1.27521C379.089 4.70848 378.892 8.43602 378.598 11.8693C378.5 12.8502 377.322 12.7521 377.224 11.9674C376.243 6.67035 374.378 3.92373 370.943 3.92373H361.817V34.3327C361.817 45.3191 361.915 45.3191 368.392 45.8096C367.901 47.3791 367.607 47.9676 366.626 47.9676H348.863C349.158 46.5943 349.354 46.0058 350.237 45.8096C354.948 45.1229 355.144 45.1229 355.144 35.8041V4.02183H345.527C342.779 4.02183 340.718 6.96462 339.246 12.0655C338.854 13.2426 337.873 12.8502 337.873 12.0655C337.774 8.53412 338.265 4.80657 338.265 1.37331Z" fill="white" fill-opacity="0.8"/>
<path d="M425.898 3.13899C424.819 3.04089 424.917 2.35424 425.113 0.980933H440.52C440.127 2.55043 439.931 3.04089 439.048 3.13899C436.3 3.33517 436.104 3.33517 436.104 11.7712V34.3327C436.104 45.4172 436.202 45.4172 441.011 45.8096C440.52 47.4772 440.324 47.9676 439.342 47.9676H424.72C425.015 46.6924 425.113 46.0058 425.996 45.8096C429.431 45.1229 429.431 45.1229 429.431 35.8041V13.2426C429.529 3.43327 429.529 3.53136 425.898 3.13899Z" fill="white" fill-opacity="0.8"/>
<path d="M561.224 56.796C557.495 60.2293 549.644 63.9568 540.91 60.8179C533.943 58.3655 529.527 51.6952 524.031 46.202C520.793 47.6734 516.868 48.5562 512.452 48.5562C497.339 48.5562 487.722 38.0602 487.722 25.1119C487.722 9.71124 498.517 0 512.157 0C526.583 0 537.476 10.2998 537.476 24.0329C537.476 31.488 534.531 38.5507 528.938 43.063C534.531 47.8695 539.536 53.3628 544.541 55.2265C552.588 58.0712 556.415 57.1884 560.635 55.8151C561.42 55.717 561.911 56.2075 561.224 56.796ZM494.984 23.8367C494.984 29.5261 496.554 34.5288 499.204 38.3545C507.545 33.9403 514.61 34.725 520.4 37.4716C522.167 38.3545 523.835 39.3354 525.503 40.5125C528.447 37.0793 529.919 32.0765 529.919 25.6024C529.919 15.2045 523.639 3.04089 511.667 3.04089C501.559 3.04089 494.984 11.0845 494.984 23.8367ZM512.648 45.4172C516.083 45.4172 518.928 44.8286 521.382 43.6515C520.106 42.6706 518.928 41.6897 517.456 40.9049C513.04 38.4526 507.545 37.4716 499.989 39.1392C503.031 43.063 507.447 45.4172 512.648 45.4172Z" fill="white" fill-opacity="0.8"/>
<path d="M617.062 3.13899C615.688 3.04089 615.688 2.55043 615.884 0.980933H630.898C630.506 2.55043 630.211 3.13899 629.328 3.13899C625.599 3.13899 625.108 4.4142 625.108 11.3788V27.7604C625.108 39.1392 620.987 48.6543 606.365 48.6543C595.08 48.6543 586.738 43.7496 586.738 29.5261V13.1445C586.738 3.82564 586.64 3.43327 583.402 3.13899C582.322 3.04089 582.224 2.45233 582.421 0.980933H597.926C597.729 2.55043 597.239 2.74661 596.65 2.9428C593.706 3.62945 593.411 4.02182 593.411 11.3788V29.428C593.411 39.1392 597.827 44.8286 607.15 44.8286C617.454 44.8286 621.379 38.2564 621.379 28.4471V13.1445C621.379 4.02183 620.692 3.33517 617.062 3.13899Z" fill="white" fill-opacity="0.8"/>
<path d="M707.737 48.2619C705.676 48.1638 701.947 47.9676 697.335 47.9676H677.315C676.53 47.9676 676.236 47.281 677.119 46.8886C679.474 46.0058 679.572 45.3191 679.572 37.9621V13.1445C679.572 4.51229 679.769 3.82564 677.708 3.43327C676.628 3.23708 676.432 2.84471 675.941 0.980933H696.451C700.573 0.980933 705.479 0.980934 707.835 0.58856C708.227 0.490467 708.62 0.686653 708.62 1.27521L709.012 10.2998C709.012 11.1826 708.031 11.575 707.638 10.496C705.872 5.8856 705.087 3.92373 698.708 3.92373H686.147V21.9729H691.054C699.984 21.9729 700.377 20.5996 701.652 18.7358C702.045 18.1473 702.83 18.3435 702.634 19.0301C702.045 21.0901 702.536 25.8966 702.732 28.5452C702.83 29.2318 702.241 29.7223 701.75 29.0356C699.493 25.9947 696.746 24.9157 690.956 24.9157H686.147V43.1611C686.147 44.2401 686.442 44.6325 687.227 44.7305C690.171 44.9267 693.409 45.0248 697.138 44.8286C706.755 44.5344 707.933 41.8858 710.583 36.3926C710.975 35.706 712.251 36.0002 711.956 36.8831L708.914 47.3791C708.816 47.9676 708.62 48.36 707.737 48.2619Z" fill="white" fill-opacity="0.8"/>
<path d="M16.1588 72.4189C15.7635 74.0965 15.5659 74.4912 14.6765 74.5898C11.6132 74.7872 11.2179 74.6885 11.2179 83.2734V115.245C11.2179 115.837 11.3167 116.33 12.3049 116.429C13.886 116.528 17.4435 116.725 20.1116 116.528C30.784 116.034 31.4757 114.061 34.4403 107.943C34.8355 107.252 36.1202 107.548 35.8237 108.436L32.5627 119.291C32.4639 119.685 32.1674 119.981 31.2781 119.981C29.2029 119.883 25.5466 119.685 20.3092 119.685H1.83013C1.03958 119.685 0.743146 119.093 1.63251 118.699C4.10298 117.613 4.59707 117.021 4.59707 109.324V84.7536C4.59707 74.7872 4.49823 74.8859 0.841946 74.5898C-0.0474209 74.4912 -0.146221 73.7017 0.150234 72.4189H16.1588Z" fill="white" fill-opacity="0.8"/>
<path d="M82.0708 74.5898C80.9838 74.4912 81.0826 73.8004 81.2803 72.4189H96.7948C96.3995 73.9978 96.2019 74.4912 95.3125 74.5898C92.5456 74.7872 92.3479 74.7872 92.3479 83.2734V105.969C92.3479 117.12 92.4467 117.12 97.2889 117.514C96.7948 119.192 96.5971 119.685 95.609 119.685H80.885C81.1814 118.402 81.2803 117.712 82.1696 117.514C85.6283 116.824 85.6283 116.824 85.6283 107.449V84.7536C85.6283 74.8859 85.7271 74.9845 82.0708 74.5898Z" fill="white" fill-opacity="0.8"/>
<path d="M146.006 117.514C149.267 116.824 149.267 116.725 149.267 107.844V83.9642C149.267 75.5766 149.169 75.2806 146.995 74.8859C146.006 74.6885 145.71 74.1951 145.315 72.4189H164.98C169.13 72.4189 173.478 72.3203 175.85 72.0242C176.344 71.9256 176.64 72.2216 176.64 72.715L177.134 81.5959C177.233 82.484 176.146 82.9774 175.751 81.8919C173.972 77.3528 173.083 75.3793 167.351 75.3793H155.987V94.1279H159.347C168.142 94.1279 168.932 92.5491 169.921 90.8716C170.316 90.2795 171.008 90.5755 170.909 91.2663C170.513 93.5358 170.711 98.1737 171.007 100.838C171.106 101.43 170.415 101.923 170.019 101.331C167.845 98.1737 165.078 97.1869 158.853 97.1869H155.987V105.673C156.086 117.12 155.987 117.12 161.817 117.514C161.422 119.093 161.027 119.685 160.137 119.685H144.821C145.117 118.501 145.117 117.712 146.006 117.514Z" fill="white" fill-opacity="0.8"/>
<path d="M254.41 119.981C252.335 119.883 248.58 119.685 243.936 119.685H223.777C222.986 119.685 222.69 118.995 223.579 118.6C225.951 117.712 226.049 117.021 226.049 109.62V84.6549C226.049 75.9713 226.247 75.2806 224.172 74.8859C223.085 74.6885 222.887 74.2938 222.393 72.4189H243.046C247.197 72.4189 252.138 72.4189 254.509 72.0242C254.904 71.9256 255.3 72.1229 255.3 72.715L255.695 81.7933C255.695 82.6813 254.707 83.0761 254.312 81.9906C252.533 77.3528 251.742 75.3793 245.319 75.3793H232.868V93.5358H237.809C246.801 93.5358 247.197 92.1544 248.481 90.2795C248.877 89.6874 249.667 89.8848 249.469 90.5755C248.877 92.6477 249.371 97.4829 249.568 100.147C249.667 100.838 249.074 101.331 248.58 100.641C246.307 97.5816 243.54 96.4962 237.71 96.4962H232.967V114.949C232.967 116.034 233.263 116.429 234.054 116.528C237.018 116.725 240.279 116.824 244.034 116.626C253.719 116.33 254.904 113.666 257.573 108.14C257.968 107.449 259.252 107.745 258.956 108.633L255.893 119.192C255.399 119.784 255.3 120.08 254.41 119.981Z" fill="white" fill-opacity="0.8"/>
</g>
<defs>
<clipPath id="clip0_4552_3782">
<rect width="712" height="120" fill="white"/>
</clipPath>
</defs>
</svg>
