<svg width="24" height="24" viewBox="0 0 24 24" fill="white" xmlns="http://www.w3.org/2000/svg">
<path fill-rule="evenodd" clip-rule="evenodd" d="M12.0037 7.10905C13.31 7.10915 14.5412 7.61953 15.4645 8.54283C16.3877 9.46618 16.8974 10.6974 16.8974 12.0037C16.8973 13.31 16.3878 14.5412 15.4645 15.4645L15.4627 15.4663C14.5341 16.387 13.3113 16.8973 12.0037 16.8974C10.6972 16.8974 9.46529 16.3879 8.54191 15.4645C7.61869 14.5412 7.10911 13.3099 7.10905 12.0037C7.10905 10.6974 7.61878 9.46617 8.54191 8.54283C9.46529 7.61945 10.6972 7.10905 12.0037 7.10905ZM12.0037 8.23428C10.9954 8.23428 10.0497 8.62537 9.33754 9.33754C8.62533 10.0497 8.23428 10.9953 8.23428 12.0037C8.23434 13.0118 8.62549 13.9567 9.33754 14.6689C10.0497 15.3811 10.9953 15.7721 12.0037 15.7721C13.0105 15.772 13.95 15.3817 14.6707 14.667C15.3817 13.9551 15.7721 13.011 15.7721 12.0037C15.7721 10.9953 15.3811 10.0497 14.6689 9.33754C13.9568 8.62552 13.0118 8.23438 12.0037 8.23428Z"/>
<path fill-rule="evenodd" clip-rule="evenodd" d="M17.1793 5.30356C17.9493 5.30367 18.5738 5.92804 18.5738 6.69797C18.5737 7.46786 17.9492 8.09226 17.1793 8.09237C16.4094 8.09237 15.785 7.46793 15.7849 6.69797C15.7849 5.92797 16.4094 5.30356 17.1793 5.30356ZM17.1793 6.42879C17.0307 6.42879 16.9102 6.54932 16.9102 6.69797C16.9102 6.84658 17.0307 6.96714 17.1793 6.96714C17.3279 6.96703 17.4485 6.84652 17.4485 6.69797C17.4485 6.54938 17.3279 6.4289 17.1793 6.42879Z"/>
<path fill-rule="evenodd" clip-rule="evenodd" d="M17.617 3C19.4801 3 21 4.51991 21 6.38301V17.617C21 19.487 19.487 21 17.617 21H6.38301C4.51991 21 3 19.4801 3 17.617V6.38301C3 4.51991 4.51991 3 6.38301 3H17.617ZM6.38301 4.12431C5.14126 4.12431 4.12431 5.14126 4.12431 6.38301V17.617C4.12431 18.8587 5.14126 19.8757 6.38301 19.8757H17.617C18.8657 19.8757 19.8757 18.8657 19.8757 17.617V6.38301C19.8757 5.14126 18.8587 4.12431 17.617 4.12431H6.38301Z"/>
</svg>
