<svg width="160" height="332" viewBox="0 0 160 332" fill="none" xmlns="http://www.w3.org/2000/svg">
<path d="M9.23607 14.8343V26.2444C9.23607 27.4891 8.30268 27.9041 7.26559 27.6966V16.9088C6.22849 17.8424 5.19139 18.6722 4.05058 19.3983C3.73945 19.6058 3.42832 19.2946 3.73945 18.9834C4.98397 17.8424 6.3322 16.3902 7.88785 14.2119C8.82123 12.9671 9.44349 11.8261 10.2732 10.0627L11.414 10.9963C11.8288 11.3075 11.7251 11.4112 11.5177 11.8261C10.688 12.9671 10.1695 13.797 9.23607 14.8343ZM3.84316 12.4485C4.77655 11.6187 5.91736 10.4777 6.95446 9.02546C7.88785 7.78071 8.71752 6.53597 9.33978 5.1875L10.3769 6.01733C10.8954 6.43224 10.8954 6.53597 10.5843 6.95089C9.96204 7.78071 9.33978 8.61054 8.19897 9.75156C6.85075 10.9963 5.60623 12.1373 4.05058 12.9671C3.84316 12.9671 3.53203 12.656 3.84316 12.4485ZM26.2445 25.8295C25.8297 26.2444 25.6222 26.4519 25.3111 26.8668C25 27.178 24.8963 27.4891 24.274 27.4891C21.059 27.5929 18.8811 27.0742 17.118 26.0369C15.8735 25.3108 14.9401 24.1698 14.1104 22.4064C14.0067 22.7176 13.7993 23.0288 13.6956 23.4437C12.8659 25.3108 11.7251 26.763 10.4806 27.5929C9.96204 27.6966 9.85833 27.3854 9.96204 27.178C11.1029 25.622 12.0362 23.34 12.5548 21.1617C12.9696 19.6058 13.0733 17.9461 13.1771 16.1827L14.5253 16.5976C14.9401 16.7014 15.1475 16.8051 15.0438 17.22C14.9401 18.4648 14.629 19.7095 14.4216 20.8505C15.2512 22.3027 16.1846 23.4437 17.3254 24.0661L17.4292 24.1698V14.5231L18.9848 14.8343C19.2959 14.938 19.3996 15.0417 19.3996 15.2492V18.4648H22.1998C22.7184 18.4648 22.9258 18.2573 23.3406 17.7387C23.9629 18.2573 24.274 18.5685 24.274 18.9834C24.274 19.6058 23.7555 19.8132 22.9258 19.8132H19.2959V24.8959C21.1627 25.4146 23.3406 25.5183 25.9334 25.3108C26.3482 25.4146 26.3482 25.7258 26.2445 25.8295ZM11.5177 14.3156C13.0733 11.8261 14.4216 8.19563 15.0438 5.29123L16.3921 5.9136C16.9106 6.12106 16.9106 6.22479 16.8069 6.6397C16.4958 7.46953 16.1846 8.29936 15.7698 9.12919C16.7032 9.64783 17.6366 10.1665 18.0514 10.7888C18.9848 12.0336 17.6366 13.5895 16.5995 12.1373C16.0809 11.4112 15.6661 10.5814 15.355 10.0627C14.3179 11.9299 13.0733 13.797 11.9325 14.8343C11.5177 14.938 11.3103 14.6268 11.5177 14.3156ZM17.6366 13.9007C19.1922 11.6187 20.333 8.40309 21.059 5.1875L22.4072 5.80987C22.9258 6.01733 23.0295 6.22479 22.8221 6.6397C22.5109 7.57326 22.0961 8.40308 21.6813 9.33664C22.8221 9.95901 24.274 10.7888 24.7926 11.5149C25.9334 13.0709 24.5851 14.5231 23.2369 12.8634C22.7184 12.241 21.785 10.8926 21.1627 10.0627C20.2293 11.7224 19.0885 13.2783 17.9477 14.2119C17.7403 14.4193 17.4292 14.2119 17.6366 13.9007Z" fill="#39401D"/>
<path d="M24.3777 52.2803C19.5034 58.6077 13.5919 60.786 5.39881 61.0972C4.98397 61.0972 4.77655 60.6823 5.2951 60.5785C11.9325 59.3338 18.2588 57.1555 21.9924 52.1765H15.1475C14.5253 52.6952 13.6956 53.2138 12.8659 53.7325C13.903 54.4586 14.7327 54.9772 15.2513 55.5996C16.2884 56.8443 14.8364 58.6077 13.5919 56.8443C13.1771 56.222 12.6585 55.3921 12.0362 54.2511C10.0658 55.3921 7.78413 56.3257 5.60623 56.8443C5.19139 56.948 5.08768 56.5331 5.39881 56.3257C9.5472 54.2511 13.6956 51.3467 15.9772 48.4423L17.2217 49.2721C17.6366 49.5833 17.7403 49.687 17.3254 49.9982L16.4958 50.7243H21.8887C22.3035 50.7243 22.5109 50.7243 23.0295 50.2057L23.8592 51.0355C24.5851 51.7616 24.5851 51.9691 24.3777 52.2803ZM5.60623 46.0566C9.44349 43.8783 12.7622 41.0776 14.5253 38.6918L15.8735 39.5217C16.2884 39.8328 16.2884 39.9366 16.1846 40.144C15.8735 40.4552 15.5624 40.8701 15.0438 41.285H20.7479C21.2664 41.285 21.4738 41.1813 21.9924 40.7664L22.9258 41.7C23.4443 42.1149 23.548 42.3223 23.0295 42.7372C18.9848 46.9901 12.4511 50.5169 5.81365 51.0355C5.50252 51.0355 5.2951 50.6206 5.60623 50.5169C8.30268 49.687 11.414 48.6498 13.6956 47.405C17.2217 45.4342 19.2959 43.7745 20.333 42.5298H13.2808L12.14 43.3596C13.1771 43.982 14.0067 44.5006 14.5253 45.0193C15.5624 46.1603 14.3179 47.9237 12.8659 46.264C12.4511 45.6416 11.8288 44.8118 11.3103 43.982C9.65091 45.0193 7.68042 45.9528 5.81365 46.4715C5.2951 46.6789 5.2951 46.264 5.60623 46.0566Z" fill="#39401D"/>
<path d="M23.7555 76.8639V92.9419C23.7555 94.1866 22.7184 94.7052 21.6813 94.0829C20.9553 93.5642 19.9182 93.1493 19.1922 92.8381C18.8811 92.7344 18.8811 92.4232 19.1922 92.4232C20.0219 92.4232 21.3701 92.4232 21.6813 92.3195C21.785 92.3195 21.785 92.112 21.785 92.0083V76.8639H15.5624C15.4587 77.2788 15.355 77.59 15.1475 77.9012C17.2217 78.8348 19.0885 79.7683 19.9182 80.4944C21.1627 81.6354 20.2293 83.5026 18.9848 82.2578C17.9477 81.2205 15.8735 79.3534 14.9401 78.5236C14.8364 78.8348 14.629 79.146 14.4216 79.3534C13.0733 81.3243 10.9991 82.8802 9.23607 83.5026C8.92494 83.6063 8.71752 83.2951 8.92494 83.0876C10.1695 82.1541 12.0362 80.5982 13.0733 78.5236C13.2808 78.0049 13.4882 77.4863 13.6956 76.8639H8.51011V93.1493C8.51011 94.1866 7.57672 94.7052 6.53962 94.3941V74.7894L8.09527 75.1005C8.4064 75.2043 8.51011 75.308 8.51011 75.5155H14.1104C14.3179 74.2707 14.5253 73.026 14.5253 71.9887L15.9772 72.4036C16.4958 72.5073 16.4958 72.7148 16.4958 73.1297C16.3921 73.8558 16.2883 74.6856 16.0809 75.5155H20.8516C21.2664 75.5155 21.5776 75.308 21.8887 74.9968L23.4443 75.5155C24.4814 75.8266 23.7555 76.3453 23.7555 76.8639ZM15.355 85.2659C15.0438 85.8883 14.7327 86.407 14.4216 86.9256C12.9696 89.0002 10.9991 90.3486 9.33978 90.971C9.02865 91.0747 8.71753 90.8673 9.02865 90.5561C10.2732 89.5188 12.0362 87.7554 12.9696 85.992C14.0067 84.0212 14.3179 82.6727 14.629 80.7019L15.9772 81.2205C16.5995 81.428 16.5995 81.6354 16.4958 81.9466C16.2883 82.7765 15.9772 83.71 15.5624 84.5398C17.3254 85.3697 19.3996 86.7181 20.1256 87.3405C21.3701 88.5853 20.333 90.3486 19.0885 89.1039C17.844 87.8592 16.2884 86.1995 15.355 85.2659Z" fill="#39401D"/>
<path d="M7.16187 113.273V126.446C7.16187 127.483 6.12478 127.898 5.19139 127.691V105.804L6.74704 106.115C6.95446 106.115 7.05816 106.219 7.16187 106.427H10.4806C10.9991 106.427 11.2066 106.219 11.6214 105.804L13.1771 106.219C14.2142 106.53 13.5919 106.945 13.5919 107.568V113.065C13.5919 114.206 12.6585 114.517 11.6214 114.31V113.376H7.16187V113.273ZM7.16187 107.568V109.124H11.6214V107.568H7.16187ZM11.6214 112.028V110.368H7.16187V112.028H11.6214ZM17.9477 120.741V125.824C17.9477 127.069 16.7032 127.276 16.0809 127.069V120.741H13.5919L13.4882 121.363C12.9696 124.475 10.688 126.55 8.71752 127.276C8.40639 127.38 8.19897 127.069 8.40639 126.861C10.0658 125.409 11.414 123.542 11.6214 120.845H8.71752C8.40639 120.845 8.30268 120.637 7.88785 119.6H11.7251C11.7251 118.563 11.7251 117.629 11.7251 116.903H9.96204C9.65091 116.903 9.44349 116.696 9.02865 115.658H18.57C18.9848 115.658 19.1922 115.451 19.7108 114.932C20.333 115.555 20.6442 115.762 20.6442 116.073C20.6442 116.696 20.1256 116.903 19.3996 116.903H17.9477V119.6H19.9182C20.333 119.6 20.5405 119.393 21.059 118.874C21.6813 119.496 21.8887 119.704 21.8887 120.015C21.8887 120.637 21.4738 120.845 20.6442 120.845H17.9477V120.741ZM16.0809 119.496V116.799H13.6956V118.044C13.6956 118.459 13.6956 118.978 13.6956 119.496H16.0809ZM24.5851 107.775V126.446C24.5851 127.483 23.548 128.313 22.6147 127.587C21.3701 126.654 20.4367 126.446 19.8145 126.239C19.6071 126.135 19.6071 125.824 19.8145 125.824C20.333 125.824 22.4072 125.928 22.6147 125.824C22.6147 125.824 22.7184 125.72 22.7184 125.616V113.169H18.2588C18.1551 114.102 17.118 114.31 16.2884 114.102V105.804L17.7403 106.115C17.9477 106.115 18.1551 106.323 18.1551 106.427H21.4738C21.8887 106.427 22.1998 106.219 22.5109 105.908L24.0666 106.323C25.3111 106.53 24.5851 107.153 24.5851 107.775ZM18.2588 107.568V109.227H22.6147V107.568H18.2588ZM22.7184 112.028V110.472H18.2588V112.028H22.7184Z" fill="#39401D"/>
<path d="M12.8659 156.735C14.1104 158.395 12.9696 160.573 11.6214 158.498C11.1029 157.772 10.4806 156.942 9.85833 156.009C8.40639 158.291 6.74703 160.054 4.56913 161.092C4.258 161.299 3.84316 161.092 4.258 160.677C5.91736 159.121 7.57671 157.254 8.82123 154.66C8.30268 154.038 7.68042 153.416 7.16187 152.793C6.64332 153.934 5.91736 154.038 4.88026 153.623C5.60623 151.963 6.53961 148.644 7.16187 145.221H4.77655C4.36171 145.221 4.258 144.91 3.84316 143.976H7.47301C7.78414 142.109 7.99156 140.346 8.09527 138.79L9.33978 139.101C9.96204 139.309 10.0658 139.516 9.96204 139.827C9.85833 140.761 9.65091 142.213 9.33978 143.873H10.5843C11.1029 143.873 11.3103 143.769 11.7251 143.354L12.7622 143.976C13.3845 144.391 13.3845 144.599 13.2808 145.117C12.7622 148.852 12.0362 151.963 10.7917 154.349C11.5177 155.075 12.2437 155.801 12.8659 156.735ZM9.02865 145.221C8.61381 147.607 7.99155 150.096 7.3693 151.963C7.99155 152.378 8.71752 152.897 9.33978 153.312C10.1695 151.134 10.8954 148.333 11.2066 145.221H9.02865ZM23.9629 148.125L23.3406 146.984C20.9553 147.607 16.8069 148.229 14.629 148.644C13.7993 148.748 13.6956 148.748 12.8659 147.088C13.4882 147.088 14.2142 147.088 14.8364 146.984C15.5624 145.74 16.0809 144.599 16.9106 142.628C17.4292 141.487 18.0514 139.723 18.2588 138.582L19.6071 139.309C20.1256 139.516 20.1256 139.827 20.0219 140.035C19.6071 140.968 19.0885 142.005 18.4663 143.146C17.6366 144.599 16.8069 145.843 15.9772 146.881C18.57 146.777 20.9553 146.466 23.0295 146.258C22.4072 145.014 21.4738 143.665 20.9553 142.835C20.7479 142.524 21.059 142.317 21.3701 142.524C23.4443 143.976 25.2074 145.947 25.726 146.984C26.4519 148.748 25 150.304 23.9629 148.125ZM24.0666 151.963V159.847C24.0666 160.677 23.2369 161.092 22.0961 160.884V158.809H16.5995V159.847C16.5995 160.884 15.6661 161.299 14.629 161.092V149.889L16.0809 150.096C16.2883 150.096 16.4958 150.304 16.4958 150.407H20.8516C21.3701 150.407 21.5776 150.2 21.9924 149.785L23.548 150.304C24.6889 150.822 24.0666 151.341 24.0666 151.963ZM22.1998 157.461V151.86H16.7032V157.461H22.1998Z" fill="#39401D"/>
<path d="M13.5919 177.999V191.484C13.5919 192.521 12.4511 192.936 11.6214 192.729V191.38H7.47301V192.418C7.47301 193.455 6.3322 193.87 5.50252 193.559V176.028L7.05817 176.34C7.3693 176.443 7.47301 176.547 7.47301 176.651H8.09527C8.51011 175.51 8.92494 173.746 9.13236 172.19L10.4806 172.813C11.1029 173.124 11.1029 173.228 10.8954 173.643C10.5843 174.265 9.75462 175.717 9.13236 176.651H10.5843C11.1029 176.651 11.3103 176.443 11.6214 176.028L13.1771 176.547C14.3179 176.858 13.5919 177.481 13.5919 177.999ZM7.47301 177.792V182.978H11.6214V177.792H7.47301ZM11.6214 189.928V184.327H7.47301V189.928H11.6214ZM25.1037 178.31C25.1037 190.758 23.8592 193.351 22.3035 194.181C21.785 194.492 21.3701 194.388 20.9553 194.077C20.4367 193.662 19.3996 193.144 18.4663 192.729C18.2588 192.625 18.2588 192.314 18.57 192.314C21.4738 192.521 21.6813 192.521 22.0961 191.484C22.5109 190.55 22.7184 188.891 22.9258 186.816C23.2369 183.912 23.2369 180.489 23.2369 178.103H17.5329C16.4958 179.866 15.6661 181.215 14.5253 182.252C14.3179 182.46 14.0067 182.252 14.1104 181.941C14.8364 180.592 15.7698 178.622 16.7032 176.236C17.2217 174.887 17.6366 173.435 17.9477 172.087L19.1922 172.709C19.8145 173.02 19.8145 173.124 19.7108 173.435C19.2959 174.473 18.7774 175.614 18.2588 176.755H22.0961C22.6147 176.755 22.8221 176.547 23.1332 176.236L24.6889 176.755C25.9334 177.377 25.1037 177.999 25.1037 178.31ZM18.4663 186.298C17.9477 185.053 17.3254 183.289 16.5995 181.941C16.4958 181.733 16.7032 181.422 17.0143 181.63C18.2588 182.667 19.5034 183.808 20.1256 185.26C20.9553 186.92 19.1922 188.165 18.4663 186.298Z" fill="#39401D"/>
<path d="M26.2445 217.105C24.7926 217.935 24.6889 218.246 23.7555 217.624C23.2369 217.312 22.6147 216.897 21.9924 216.379V220.632C21.9924 221.669 21.059 221.98 20.1256 221.773V220.943H18.4663V226.544C18.4663 227.478 17.5329 228.204 16.5995 227.582C15.9772 227.167 14.0067 226.441 13.2808 226.337C13.0733 226.337 12.9696 225.922 13.3845 225.922C13.5919 225.922 16.2884 225.922 16.3921 225.922C16.4958 225.922 16.4958 225.818 16.4958 225.714V220.943H14.4216C14.2142 221.669 13.3845 221.876 12.5548 221.773V216.794C11.7251 217.416 10.688 218.038 9.44349 218.557C9.13236 218.661 8.92494 218.246 9.23607 218.038C10.5843 217.105 11.7251 216.171 12.6585 215.134C12.3474 215.238 11.9325 215.134 11.414 214.615C10.8954 213.993 10.4806 213.371 10.1695 212.852C10.0658 212.645 10.1695 212.333 10.4806 212.437C11.1029 212.645 12.14 212.956 12.6585 213.474C12.9696 213.786 13.0733 214.201 13.0733 214.512C13.1771 214.408 13.2808 214.304 13.2808 214.201C13.903 213.474 14.3179 212.645 14.7327 211.711H10.3769C9.96204 211.711 9.85833 211.504 9.44349 210.466H15.355C15.5624 209.948 15.7698 209.325 15.9772 208.703H9.13236V213.578C9.13236 217.624 8.61381 221.254 7.68042 223.329C6.85074 225.092 5.81365 226.648 4.36171 227.582C3.94687 227.893 3.73945 227.478 3.94687 227.27C5.08768 225.714 6.43591 223.017 6.95446 219.387C7.05817 218.661 7.16187 217.935 7.16187 217.105L5.50252 218.972C5.19139 219.387 4.88026 219.387 4.46542 219.076L3.2209 218.246C4.56913 217.52 6.02107 216.586 7.05817 215.756C7.16188 213.371 7.16188 210.57 7.05817 206.94L8.61382 207.251C8.92495 207.354 9.02865 207.458 9.02865 207.562H16.1846C16.0809 207.458 15.9772 207.354 15.8735 207.251C15.2513 206.525 14.8364 206.006 14.629 205.591C14.4216 205.28 14.5253 205.072 14.8364 205.176C16.0809 205.487 17.0143 205.695 17.4292 206.11C17.9477 206.525 17.844 207.147 17.5329 207.562H23.4443C23.8592 207.562 24.0666 207.354 24.5851 206.836C25.1037 207.354 25.5185 207.562 25.5185 207.977C25.5185 208.599 25 208.807 24.1703 208.807H16.3921L17.3254 209.325C17.844 209.636 17.9477 209.74 17.7403 210.259L17.6366 210.57H23.4443C23.8592 210.57 24.0666 210.466 24.4814 209.948C25 210.466 25.3111 210.674 25.3111 210.985C25.3111 211.504 24.8963 211.711 24.1703 211.711H19.8145C20.333 212.541 21.059 213.474 21.8887 214.201C22.5109 213.578 23.3406 212.645 23.7555 211.919L24.7926 212.748C25.2074 213.06 25.2074 213.267 24.8963 213.474C24.3777 213.786 23.4443 214.304 22.6147 214.615C23.6518 215.342 25 216.068 26.3482 216.586C26.4519 216.897 26.4519 217.001 26.2445 217.105ZM4.15429 210.466C4.15429 210.259 4.258 209.948 4.56913 210.259C5.39881 210.881 6.22849 211.607 6.53962 212.437C7.3693 214.201 5.60623 215.134 5.08768 213.682C4.67284 212.437 4.36171 211.192 4.15429 210.466ZM8.61382 227.685C8.30269 227.789 7.99155 227.478 8.30268 227.27C9.75462 226.026 11.8288 223.847 12.7622 222.291L13.6956 222.914C14.2142 223.225 14.4216 223.432 14.1104 223.744C12.7622 225.196 10.5843 226.855 8.61382 227.685ZM14.5253 217.312H20.1256V215.964H14.5253V217.312ZM20.0219 219.802V218.557H14.4216V219.802H20.0219ZM16.9106 211.815C16.3921 212.852 15.6661 213.889 14.8364 214.823H19.1922C19.6071 214.823 19.8145 214.615 20.1256 214.304C19.5034 213.474 18.9848 212.541 18.6737 211.815H16.9106ZM24.7926 225.092C26.1408 226.544 24.8963 228.1 23.7555 226.855C23.1332 226.233 21.4738 224.262 20.333 223.017C20.1256 222.81 20.333 222.499 20.6442 222.706C22.8221 223.536 24.274 224.573 24.7926 225.092Z" fill="#39401D"/>
<path d="M7.3693 256.729C6.64333 258.493 5.50252 260.049 4.15429 261.086C3.84316 261.293 3.63574 260.878 3.73945 260.671C4.98397 259.011 6.12478 256.418 6.64332 252.788C6.74703 251.958 6.85075 251.024 6.85075 249.987C6.3322 250.609 5.81365 251.335 5.2951 251.854C4.98397 252.269 4.67284 252.269 4.258 251.958L3.11719 251.128C4.46542 250.402 5.70994 249.468 6.74704 248.742C6.85075 246.46 6.74703 243.556 6.64332 240.133L8.19897 240.444C8.5101 240.548 8.61382 240.651 8.61382 240.755H16.0809L15.9772 240.651C15.355 239.925 14.9401 239.51 14.629 239.095C14.4216 238.784 14.5253 238.577 14.8364 238.68C16.0809 238.888 16.8069 238.992 17.3254 239.407C17.844 239.822 17.844 240.444 17.5329 240.755H23.3406C23.7555 240.755 23.9629 240.548 24.4814 240.029C25 240.548 25.4148 240.755 25.4148 241.17C25.4148 241.792 24.8963 242 24.0666 242H17.6366C18.1551 242.415 18.2588 242.415 17.844 242.83C20.1256 244.489 22.4072 245.215 25.5185 245.838C25.8297 245.838 25.726 246.045 25.6222 246.253C24.274 247.497 24.274 247.497 23.1332 247.082C21.2664 246.356 19.0885 245.319 17.2217 243.452C16.2884 244.178 15.355 244.904 14.2142 245.527H17.844C18.2588 245.527 18.4663 245.423 18.8811 245.008C19.3996 245.423 19.8145 245.63 19.8145 246.045C19.8145 246.564 19.3996 246.771 18.6737 246.771H14.629C14.3179 246.771 14.2142 246.564 13.903 245.838C12.9696 246.356 11.9325 246.771 10.8954 247.186L11.5177 247.29C11.7251 247.29 11.9325 247.394 11.9325 247.601H14.1104C14.629 247.601 14.7327 247.497 15.0438 247.082L16.4958 247.497C17.3254 247.809 16.8069 248.224 16.8069 248.742V254.551C16.8069 255.277 15.8735 256.107 15.0438 255.381C14.5253 254.966 13.6956 254.655 13.1771 254.447C12.8659 254.343 12.9696 254.032 13.2808 254.032C13.903 254.032 14.7327 254.032 14.9401 254.032C15.0438 254.032 15.0438 253.825 15.0438 253.721V252.684H11.9325C11.7251 253.825 11.1029 255.173 9.65091 256.211C9.33978 256.418 9.13236 256.107 9.23607 255.899C10.2732 254.136 10.2732 252.061 10.2732 247.497C9.85833 247.601 9.44349 247.809 9.02865 247.912C8.92494 247.912 8.82123 247.912 8.82123 247.912C8.71752 251.439 8.19897 254.862 7.3693 256.729ZM4.05058 243.556C4.05058 243.348 4.15429 243.037 4.46542 243.348C5.2951 243.971 5.91736 244.593 6.3322 245.423C7.05817 246.979 5.39881 247.912 4.98397 246.668C4.56913 245.423 4.258 244.178 4.05058 243.556ZM10.9991 256.522C10.7917 257.974 10.3769 259.426 9.65091 260.152C8.19898 261.708 6.74704 260.152 7.78413 259.219C9.02865 258.181 9.5472 257.767 10.4806 256.418C10.688 256.107 10.9991 256.211 10.9991 256.522ZM16.2884 241.896H8.82123V247.394C8.82123 247.394 8.82123 247.394 8.92494 247.394C12.4511 245.423 14.3179 244.178 16.2884 241.896ZM15.1475 251.543V250.609H12.2437V251.024C12.2437 251.232 12.2437 251.335 12.2437 251.543H15.1475ZM12.14 248.535V249.468H15.1475V248.535H12.14ZM21.785 259.219C22.5109 259.945 21.9924 260.567 21.4738 260.775C20.0219 261.19 17.7403 261.397 15.8735 261.19C12.7622 260.982 12.5548 260.775 12.5548 257.663V255.692L14.0067 256.003C14.3179 256.107 14.4216 256.211 14.4216 256.314V258.181C14.4216 259.322 14.5253 259.426 15.8735 259.53C17.2217 259.634 18.9848 259.53 20.0219 259.219C20.333 259.115 20.5405 258.804 20.6442 258.389L20.8516 257.559C20.8516 257.352 21.1627 257.352 21.1627 257.559C21.3701 258.493 21.5776 259.011 21.785 259.219ZM18.7774 256.937C19.7108 258.181 18.1551 259.634 17.3254 257.974L16.3921 255.899C16.2884 255.588 16.3921 255.381 16.7032 255.485C17.6366 255.899 18.3625 256.314 18.7774 256.937ZM18.4663 252.995V247.705L19.8145 248.016C20.1256 248.12 20.2293 248.223 20.2293 248.327V252.061C20.2293 252.788 19.3996 253.099 18.4663 252.995ZM19.7108 253.825C20.2293 253.825 21.785 253.825 21.8887 253.825C21.9924 253.825 21.9924 253.721 21.9924 253.617V247.186L23.3406 247.497C23.7555 247.601 23.7555 247.705 23.7555 247.809V254.447C23.7555 255.277 22.9258 256.003 22.0961 255.485C21.1627 254.862 20.4367 254.447 19.6071 254.136C19.3996 254.136 19.3996 253.825 19.7108 253.825ZM24.4814 259.841C23.7555 258.804 23.4443 257.974 22.6147 256.833C22.4072 256.626 22.5109 256.211 22.9258 256.418C24.274 257.144 25 257.455 25.8297 258.389C26.7631 259.53 25.5185 261.397 24.4814 259.841Z" fill="#39401D"/>
<path d="M10.9991 275.919V289.507C10.9991 290.545 10.1695 290.96 9.13236 290.752V289.093H6.43591V290.026C6.43591 291.167 5.60623 291.582 4.56913 291.478V273.948L6.12478 274.259C6.4359 274.259 6.53962 274.467 6.53962 274.571H8.19897C8.61381 274.571 8.92494 274.363 9.23607 273.948L10.8954 274.571C11.6214 274.882 10.9991 275.504 10.9991 275.919ZM6.3322 275.815V281.105H9.02865V275.815H6.3322ZM9.02865 287.744V282.35H6.3322V287.744H9.02865ZM26.0371 284.736C26.0371 285.358 25.5185 285.566 24.6889 285.566H21.9924V293.242C21.9924 294.383 20.9553 295.109 19.8145 294.383C19.1922 293.968 18.0514 293.345 16.8069 292.931C16.4958 292.827 16.5995 292.516 16.8069 292.516C17.4292 292.516 19.7108 292.619 19.9182 292.516C20.0219 292.516 20.0219 292.412 20.0219 292.308V285.462H12.5548C12.14 285.462 12.0362 285.255 11.6214 284.114H20.1256V281.105L21.6813 281.417C21.9924 281.52 22.0961 281.624 22.0961 281.832V284.114H24.0666C24.5851 284.114 24.7926 283.802 25.3111 283.284C25.726 284.01 26.0371 284.321 26.0371 284.736ZM11.6214 275.193H17.3254V272.081L18.8811 272.392C19.1922 272.496 19.2959 272.6 19.2959 272.807V275.193H23.1332C23.548 275.193 23.8592 274.985 24.274 274.467C24.8963 275.089 25.2074 275.297 25.2074 275.712C25.2074 276.334 24.6889 276.541 23.8592 276.541H19.2959V279.653H22.1998C22.6147 279.653 22.9258 279.342 23.3406 278.927C23.8592 279.342 24.274 279.757 24.274 280.068C24.274 280.691 23.7555 280.898 23.0295 280.898H13.5919C13.2808 280.898 13.1771 280.691 12.6585 279.653H17.4292V276.541H12.6585C12.2437 276.541 12.0362 276.23 11.6214 275.193ZM15.2513 289.715C14.7327 288.47 14.3179 287.64 13.903 286.707C13.7993 286.499 13.903 286.188 14.3179 286.396C15.6661 287.122 16.5995 287.952 17.118 288.781C17.7403 290.13 16.2884 291.997 15.2513 289.715Z" fill="#39401D"/>
<path d="M16.5995 324.049C17.844 325.605 16.4958 327.68 14.9401 325.501C14.0067 324.153 13.1771 322.908 12.5548 321.975C10.0658 324.36 7.05817 326.227 4.15429 327.057C3.84316 327.161 3.73945 326.642 3.94687 326.539C7.16188 324.671 9.5472 322.701 11.414 320.626C12.9696 318.966 14.2142 317.099 15.1475 315.232L16.3921 316.166C16.8069 316.477 16.8069 316.581 16.5995 316.892C15.7698 318.344 14.629 319.9 13.1771 321.352C14.7327 322.286 15.8735 323.116 16.5995 324.049ZM17.4292 308.801C17.4292 309.32 16.9106 309.631 16.0809 309.631H10.5843L11.2066 310.046C11.6214 310.357 11.7251 310.564 11.414 310.876C10.5843 311.809 9.44349 312.95 8.30268 313.987C8.71752 314.299 9.13236 314.61 9.33978 315.025C10.2732 316.269 9.13236 318.24 7.68042 316.269C6.85075 315.232 6.22849 313.987 5.50252 313.054C5.39881 312.846 5.50252 312.535 5.91736 312.743C6.53962 313.054 7.05817 313.365 7.57672 313.573C8.4064 312.328 9.02865 311.29 9.75462 309.735H4.98397C4.56913 309.735 4.46542 309.423 4.05058 308.49H10.688C10.5843 308.386 10.3769 308.179 10.1695 307.867C9.65092 306.934 9.33979 306.312 9.02866 305.793C8.82124 305.482 9.02865 305.274 9.33978 305.378C10.3769 305.689 11.2066 306.104 11.8288 306.726C12.3474 307.349 12.2437 308.075 11.8288 308.386H15.355C15.7698 308.386 15.9772 308.179 16.4958 307.66C17.118 308.179 17.4292 308.49 17.4292 308.801ZM4.15429 321.975C8.61381 318.863 11.1029 315.958 13.2808 311.602L14.4216 312.431C14.8364 312.743 14.9401 312.95 14.8364 313.158C12.5548 316.892 9.02866 320.626 4.46542 322.286C4.05058 322.597 3.94687 322.078 4.15429 321.975ZM18.7774 322.493V309.008L20.2293 309.32C20.5405 309.423 20.6442 309.527 20.6442 309.631V321.352C20.7479 322.182 19.8145 322.701 18.7774 322.493ZM25.1037 306.208V326.435C25.1037 327.68 23.9629 328.302 23.0295 327.472C22.1998 326.85 21.3701 326.331 20.0219 325.916C19.7108 325.812 19.8145 325.501 20.0219 325.501C20.6442 325.501 22.8221 325.605 23.0295 325.501C23.1332 325.398 23.1332 325.398 23.1332 325.294V305.378L24.5851 305.689C24.8963 305.897 25.1037 306 25.1037 306.208Z" fill="#39401D"/>
<path d="M123.074 27.4773V49.9864C123.074 51.8535 121 52.7871 119.34 52.3722V27.7885C118.096 32.56 115.814 37.9539 112.392 41.1695C111.873 41.6881 111.251 41.0658 111.562 40.6508C114.985 34.0122 116.748 28.5146 117.785 21.7722H113.325C112.599 21.7722 112.288 21.3573 111.562 19.2828H119.237V7.97635L122.244 8.59872C122.763 8.70245 122.97 9.01364 122.97 9.42855V19.2828H125.459C126.289 19.2828 126.704 18.8679 127.637 17.7268C128.778 18.8679 129.504 19.3865 129.504 20.2163C129.504 21.3573 128.571 21.876 126.808 21.876H122.97V25.0916C124.941 26.6475 126.808 28.0997 127.845 29.4482C130.023 32.4563 126.808 35.3607 125.148 32.0414C124.422 30.3817 123.696 28.8258 123.074 27.4773ZM156.883 49.0529C156.883 50.2976 155.846 50.92 154.187 50.92H127.015C126.082 50.92 125.874 50.2976 125.044 48.3268H131.993V19.4902L135.104 20.1126C135.519 20.2163 135.83 20.6312 135.83 20.735H138.63L138.942 16.897H129.919C129.089 16.897 128.882 16.4821 128.052 14.4075H139.045L139.564 7.56144L142.364 8.28754C143.194 8.49499 143.297 8.70245 143.297 9.32482L142.883 14.3038H151.387C152.32 14.3038 152.631 13.8889 153.565 12.8516C154.706 13.8889 155.328 14.5113 155.328 15.1336C155.328 16.2746 154.394 16.7933 152.839 16.7933H142.779L142.468 20.6312H145.683C146.512 20.6312 147.031 20.3201 147.55 19.4902L150.765 20.6312C152.528 21.2536 151.387 22.2909 151.387 23.3282V48.1193H152.839C153.772 48.1193 154.187 47.7044 155.224 46.5634C156.157 47.8081 156.883 48.5342 156.883 49.0529ZM135.83 23.1207V27.4773H147.342V23.1207H135.83ZM147.342 30.0705H135.83V34.4271H147.342V30.0705ZM135.83 41.3769H147.342V36.9166H135.83V41.3769ZM135.83 48.223H147.342V43.7627H135.83V48.223Z" fill="#39401D"/>
<path d="M111.873 98.7388H150.039C151.387 98.7388 152.424 97.7016 153.461 96.4568C154.809 97.8053 156.157 98.7388 156.157 99.9836C156.157 101.54 154.706 102.266 152.424 102.266H114.051C113.118 102.266 113.014 101.228 111.873 98.7388Z" fill="#39401D"/>
<path d="M122.97 173.527V192.613C122.97 195.103 120.689 196.659 118.926 194.999C117.577 193.65 115.399 192.509 114.051 191.783C113.533 191.576 113.533 190.954 114.155 190.954C115.399 190.954 118.511 191.057 118.822 190.85C119.029 190.746 119.029 190.642 119.029 190.435V175.913C117.681 176.846 116.333 177.573 115.296 178.195C114.466 178.714 114.155 178.817 112.599 177.365L111.044 176.017C113.844 174.979 116.437 173.942 118.926 172.905V163.051H113.325C112.599 163.051 112.184 162.739 111.458 160.457H118.926V150.603L122.037 151.329C122.659 151.433 122.867 151.744 122.867 152.159V160.457H123.8C124.63 160.457 125.044 159.939 126.082 158.901C127.326 160.042 128.052 160.561 128.052 161.391C128.052 162.532 127.222 163.051 125.252 163.051H122.867V171.141C124.733 170.312 126.496 169.482 128.052 168.652C128.674 168.341 129.4 168.859 128.674 169.482C127.534 170.623 125.252 172.075 122.97 173.527ZM156.572 188.464C153.15 190.331 152.942 190.435 151.491 188.879C149.727 187.012 147.757 184.419 145.475 180.269C144.438 178.506 143.712 176.639 143.09 174.876V193.443C143.09 195.518 141.016 196.347 139.149 195.932V175.913C138.008 178.091 136.349 180.477 134.586 182.655C131.682 186.078 127.845 189.501 124.526 191.161C124.007 191.368 123.385 190.746 124.007 190.331C127.222 187.634 129.815 184.419 131.889 181.514C134.171 178.299 135.83 175.394 137.282 171.556H132.512C131.682 171.556 131.371 170.83 130.437 168.963H139.149V161.91H131.06C130.334 161.91 130.023 161.287 129.089 159.316H139.045V151.018L142.26 151.64C142.779 151.744 143.09 152.055 143.09 152.367V159.316H151.076C152.009 159.316 152.424 158.798 153.357 157.864C154.394 158.901 155.224 159.524 155.224 160.354C155.224 161.495 154.291 161.91 152.528 161.91H143.09V168.963H149.52C150.35 168.963 150.868 168.444 151.802 167.511C152.839 168.444 153.668 169.067 153.668 169.897C153.668 170.934 152.735 171.66 150.972 171.66H143.816C144.542 173.423 145.579 175.394 146.824 177.261C149.105 180.996 152.631 185.352 156.365 187.842C156.883 188.049 156.883 188.36 156.572 188.464Z" fill="#39401D"/>
<path d="M122.348 246.137V265.119C122.348 266.883 120.896 267.816 118.718 267.505V247.486C117.474 247.901 116.125 248.315 114.985 248.73C113.533 249.249 113.325 249.145 111.458 246.033C113.014 245.826 114.57 245.618 115.918 245.411C118.718 241.158 121.207 236.387 123.385 230.163L125.563 231.511C126.6 232.134 126.911 232.341 126.496 233.067C124.733 235.972 121.207 241.677 118.096 244.996C120.481 244.581 122.555 244.27 124.319 243.855L123.593 240.743C123.489 240.121 124.007 239.81 124.526 240.225C126.289 242.092 127.948 243.959 128.467 245.515C129.711 248.834 126.393 250.494 125.356 247.486L124.733 245.307C124.007 245.618 123.178 245.826 122.348 246.137ZM117.163 253.087C116.022 256.614 114.57 261.593 112.91 264.29C112.599 264.912 111.873 264.393 111.977 263.875C112.703 259.829 113.222 255.058 113.844 250.597L116.022 251.427C117.37 251.946 117.474 252.05 117.163 253.087ZM112.703 231.096C112.496 230.474 112.91 229.955 113.429 230.37C114.259 230.993 115.088 231.615 115.814 232.238C116.955 229.644 118.2 226.118 119.34 222.591L121.415 223.732C122.763 224.458 122.97 224.562 122.555 225.288C121 227.881 118.926 230.889 117.059 233.378C117.474 233.793 117.888 234.312 118.2 234.727C120.378 237.839 117.266 240.64 115.607 237.424C114.57 235.453 113.325 232.549 112.703 231.096ZM156.054 260.763L154.394 261.696C152.735 262.63 152.32 262.734 150.765 261.178C149.416 259.829 148.794 259.207 147.031 257.132C145.579 255.369 144.231 253.294 143.194 251.116V264.705C143.194 267.09 141.12 268.439 139.253 267.09C138.216 266.26 135.001 264.912 133.652 264.393C133.134 264.186 133.238 263.667 133.756 263.667C134.897 263.667 138.838 263.667 139.149 263.667C139.356 263.564 139.356 263.46 139.356 263.252V253.606C137.905 255.161 135.519 257.34 133.134 259.518C131.889 260.555 131.682 260.452 128.571 257.962C128.467 260.555 125.77 261.489 125.044 258.377C124.526 255.888 124.111 252.879 124.007 251.22C124.007 250.597 124.526 250.183 124.941 250.701C126.289 252.465 127.845 254.643 128.363 256.406C128.467 256.925 128.571 257.547 128.571 257.962C132.823 255.784 136.556 253.709 139.46 251.842V242.403H128.571C127.845 242.403 127.534 241.884 126.704 239.81H141.12L142.26 235.972H134.378C134.067 236.49 133.549 237.113 132.823 237.32C131.889 237.631 130.852 237.32 130.23 237.113L134.793 222.591L137.282 223.732C138.008 224.043 138.319 224.25 138.112 224.873L137.593 226.429H143.09C144.335 226.429 144.749 226.118 145.475 225.288L147.757 226.532C150.246 227.881 148.587 228.503 148.275 229.333L144.957 239.913H151.698C152.424 239.913 152.942 239.395 153.876 238.461C154.913 239.498 155.743 240.121 155.743 240.847C155.743 241.988 154.706 242.507 153.15 242.507H143.194V247.589C143.816 248.73 144.438 249.768 145.061 250.701C147.238 248.627 149.209 246.448 151.283 243.544L153.461 245.515C154.291 246.241 154.291 246.448 153.357 247.174C151.594 248.419 149.001 250.079 145.994 251.842L146.616 252.672C149.624 256.199 152.839 258.585 156.157 260.452C156.469 260.348 156.365 260.659 156.054 260.763ZM133.341 250.286C132.408 248.834 131.163 246.033 130.541 244.685C130.126 243.959 130.749 243.648 131.267 243.959C133.238 245.1 135.208 246.345 136.038 247.382C138.008 250.079 134.897 252.776 133.341 250.286ZM142.986 233.275L144.335 228.607H136.66L135.208 233.275H142.986Z" fill="#39401D"/>
<path d="M131.371 324.763C134.171 323 135.519 320.511 135.623 318.747C135.623 317.917 135.104 317.502 134.067 317.399C132.097 317.295 130.645 315.946 130.645 313.664C130.645 311.279 132.512 309.826 134.586 309.826C137.075 309.826 139.564 311.797 139.564 315.117C139.46 319.888 137.075 324.141 132.097 326.008C130.749 326.527 130.437 325.386 131.371 324.763Z" fill="#39401D"/>
<path d="M65.515 19.179H52.9661C52.2401 19.179 52.0327 18.7641 51.3067 16.5858H63.8556C64.8927 16.5858 65.3076 16.2746 66.241 15.2374C67.3818 16.2746 68.004 16.897 68.004 17.5194C68.004 18.7641 67.1743 19.179 65.515 19.179ZM53.1735 23.017H61.9888C62.9222 23.017 63.3371 22.6021 64.2705 21.5648C65.515 22.6021 66.1372 23.2244 66.1372 23.9506C66.1372 25.1953 65.2038 25.6102 63.6482 25.6102H55.0403C54.2106 25.5065 54.0032 25.0916 53.1735 23.017ZM53.3809 29.137H61.9888C62.9222 29.137 63.3371 28.7221 64.1668 27.7885C65.4113 28.8258 66.0335 29.4482 66.0335 30.0705C66.0335 31.2115 64.9964 31.7302 63.4408 31.7302H55.144C54.418 31.7302 54.2106 31.2115 53.3809 29.137ZM65.515 38.68V48.0156C65.515 50.1939 64.1667 50.92 61.8851 50.6088V48.3268H57.3219V48.6379C57.3219 51.1274 55.9737 51.7498 53.692 51.5423V34.6346L56.4922 35.257C56.9071 35.3607 57.3219 35.6719 57.3219 35.8793H59.9146C60.848 35.8793 61.2629 35.4644 61.8851 34.6346L64.8927 35.6719C66.8632 36.2942 65.515 37.539 65.515 38.68ZM56.0774 7.97635C55.87 7.45771 56.2848 6.93907 56.9071 7.35398C58.8775 8.49499 60.6406 9.94719 61.3666 11.3994C63.0259 14.4075 59.9146 17.5194 58.2553 13.7852C57.633 12.4367 56.4922 9.2211 56.0774 7.97635ZM61.8851 45.7335V38.3688H57.3219V45.7335H61.8851ZM96.628 50.1939L94.7612 51.2312C93.5167 51.8535 93.4129 51.9573 91.8573 51.1274C90.7165 50.5051 89.0571 49.4678 86.5681 46.9783C84.7013 45.1112 82.2123 41.1695 81.2789 37.539H79.9307C79.3084 38.3688 78.6861 39.0949 77.9602 39.821V46.7708C79.7232 45.941 81.2789 45.2149 82.7308 44.4888C83.3531 44.1776 83.7679 44.9037 83.3531 45.3186C81.0715 47.082 76.7157 50.2976 73.5006 52.2684C72.5673 52.8908 72.1524 52.4759 69.5597 49.9864C71.4264 49.364 72.9821 48.7417 74.434 48.223V42.8291C71.945 44.4888 68.8337 45.941 66.8632 46.5634C66.0335 46.7708 65.7224 46.0447 66.4484 45.6298C68.73 44.3851 71.5302 42.2068 73.6044 40.3397C74.434 39.6136 75.2637 38.5763 75.9897 37.6427H68.73C68.004 37.6427 67.9003 37.2278 67.0706 35.3607H74.7452V33.0787H71.4264C70.7005 33.0787 70.493 32.7675 69.7671 30.9004H74.7452V28.5146H69.7671C69.0411 28.5146 68.8337 28.2034 68.1077 26.3363H74.7452V23.8468L77.649 24.3655C78.1676 24.4692 78.375 24.6766 78.375 24.8841V26.44H83.4568V24.0543C83.2494 24.0543 83.042 24.0543 82.7308 24.0543V15.3411L85.2199 15.8597C85.6347 15.9635 85.9458 16.1709 85.9458 16.2746H88.1237C88.8497 16.2746 89.1608 16.0672 89.6794 15.3411L92.1684 16.0672C93.9315 16.5858 92.8944 17.5194 92.8944 18.4529V22.1872C92.8944 23.9505 91.4425 24.4692 89.6794 24.158V22.9133H85.7384C85.4273 23.6394 84.5976 24.0543 83.4568 24.0543L86.3607 24.5729C86.8792 24.6767 87.0866 24.8841 87.0866 25.1953V26.44H90.3017C91.1313 26.44 91.5462 26.1289 92.3759 25.1953C93.3092 26.1289 93.9315 26.5438 93.9315 27.2699C93.9315 28.2034 93.1018 28.5146 91.5462 28.5146H86.9829V30.9004H89.1608C90.0942 30.9004 90.5091 30.4854 91.235 29.6556C92.2721 30.5892 92.7907 31.0041 92.7907 31.6265C92.7907 32.56 92.0647 32.9749 90.5091 32.9749H86.9829V35.257H92.687C93.6204 35.257 93.9315 34.842 94.7612 33.9085C95.6946 34.9458 96.4205 35.4644 96.4205 36.0868C96.4205 37.1241 95.4871 37.4353 94.0352 37.4353H83.3531C84.0791 39.1986 85.1161 40.8583 86.257 42.3105C87.9163 40.962 89.7831 39.3024 90.8202 37.9539L92.687 39.5098C93.5167 40.2359 93.5167 40.5471 92.8944 40.8583C92.0647 41.3769 89.472 42.518 87.2941 43.3478C87.5015 43.4515 87.6052 43.659 87.8126 43.8664C90.5091 46.3559 93.1018 47.9118 96.4205 49.2603C96.9391 49.6752 96.9391 49.9864 96.628 50.1939ZM66.8632 11.918H80.7603C80.6566 11.8143 80.4492 11.6069 80.3455 11.3994C79.3084 10.1547 78.5824 8.90991 77.8565 7.76889C77.5453 7.35398 77.8565 6.73161 78.4787 6.93907C80.6566 7.56144 82.0049 7.97635 83.1457 9.01364C84.0791 9.84347 83.8716 11.1919 83.2494 11.8143H92.4796C93.3092 11.8143 93.7241 11.3994 94.5538 10.5696C95.5909 11.5031 96.2131 12.0218 96.2131 12.6441C96.2131 13.6814 95.3834 14.2001 93.8278 14.2001H68.73C68.004 14.3038 67.6929 13.7852 66.8632 11.918ZM77.0268 24.158V23.017H73.0858C72.8784 24.3655 71.6339 25.0916 69.8708 24.7804V15.3411L72.3598 15.8597C72.8784 15.9635 72.9821 16.1709 72.9821 16.2746H75.3674C76.0934 16.2746 76.4045 15.9635 76.9231 15.3411L79.3084 16.0672C81.0715 16.5858 80.0344 17.7268 80.0344 18.5567V22.0834C80.1381 23.9506 78.7898 24.3655 77.0268 24.158ZM77.0268 21.0462V18.3492H73.0858V21.0462H77.0268ZM78.375 30.9004H83.4568V28.5146H78.375V30.9004ZM78.375 35.257H83.4568V32.9749H78.375V35.257ZM85.8421 18.3492V20.9424H89.5757V18.3492H85.8421Z" fill="#39401D"/>
<path d="M52.5512 109.319C55.4551 105.17 57.9441 101.125 59.9146 95.627C60.1221 94.9009 61.0555 95.0046 61.0555 95.7307C60.5369 101.54 58.5664 108.697 56.8033 111.186C54.2106 114.92 50.477 112.327 52.5512 109.319ZM76.0934 122.078C65.8261 121.87 65.4113 121.04 65.4113 112.431V88.8846L68.8337 89.7145C69.456 89.8182 69.6634 90.1294 69.6634 90.8555V114.506C69.6634 117.617 70.0782 118.032 73.8118 118.24C77.7527 118.447 81.0715 118.24 82.7308 117.721C83.7679 117.41 84.1828 116.269 84.3902 115.128L85.0124 111.912C85.1162 111.497 85.7384 111.497 85.8421 111.912C86.3607 114.817 86.5681 116.58 87.7089 117.617C89.1608 118.966 88.6423 120.003 87.5015 120.626C85.4273 121.663 80.0344 122.181 76.0934 122.078ZM76.8194 90.1294C74.0192 86.8101 71.8413 84.2168 68.004 80.4826C67.3818 79.964 67.7966 79.2379 68.5226 79.4453C74.5377 81.9348 77.5453 84.1131 79.3084 86.084C82.2123 89.2995 79.6195 93.345 76.8194 90.1294ZM92.8944 108.904C90.5091 103.822 88.4349 98.6351 86.5681 95.2121C86.3607 94.7971 86.7755 93.9673 87.3978 94.486C91.8573 98.2202 95.4871 103.199 96.5242 105.689C98.2873 110.253 94.45 112.431 92.8944 108.904Z" fill="#39401D"/>
<path d="M95.6946 177.676C95.6946 178.817 94.6575 179.336 93.1018 179.336H54.1069C53.3809 179.336 53.1735 178.817 52.2401 176.846H59.4998V168.548L62.5074 169.171C62.9222 169.274 63.2334 169.378 63.3371 169.689H82.316C83.2494 169.689 83.7679 169.378 84.3902 168.548L87.9163 169.689C89.6794 170.208 88.2275 171.66 88.2275 172.49V176.846H91.7536C92.5833 176.846 92.9981 176.432 93.9315 175.394C94.9686 176.432 95.6946 176.95 95.6946 177.676ZM53.4846 159.42C54.8329 158.072 56.5959 156.308 57.5293 153.922C57.7367 153.3 58.5664 153.508 58.5664 153.922V154.96H73.7081L73.3969 154.649C72.3598 153.404 71.219 152.055 70.4931 151.018C70.0782 150.499 70.3893 150.084 71.0116 150.188C72.8784 150.499 74.9526 150.914 76.0934 151.952C77.1305 152.885 76.9231 154.234 76.0934 154.96H88.6423C89.5757 154.96 89.9905 154.856 90.7165 154.026L92.8944 155.997C93.8278 156.931 93.8278 157.138 93.1018 157.657C91.6499 158.798 89.7831 160.146 88.6423 160.976C89.6794 161.495 90.5091 162.221 91.235 163.051C93.1018 165.333 90.6128 168.548 88.3312 165.54L84.3902 160.25C84.0791 159.835 84.2865 159.316 85.0124 159.628C85.9458 159.939 86.7755 160.25 87.5015 160.561C88.02 159.731 88.6423 158.798 89.2645 157.553H58.1516C58.0479 158.486 57.7367 159.42 57.4256 160.146C55.5588 164.71 50.9956 161.91 53.4846 159.42ZM62.5074 160.25C62.0925 163.777 61.2629 166.059 59.9146 167.407C57.2182 170.104 54.1069 167.303 56.5959 165.333C58.6701 163.673 60.2258 162.324 61.574 160.042C61.7814 159.524 62.6111 159.628 62.5074 160.25ZM91.1313 182.966C91.1313 184.107 90.0942 184.626 88.5386 184.626H76.7157V192.717C76.7157 195.31 74.2266 196.659 72.2561 195.206C70.9079 194.065 68.5226 193.236 67.278 192.717C66.7595 192.509 66.7595 191.887 67.3818 191.991C68.5226 192.095 72.0487 192.198 72.3598 191.991C72.5673 191.887 72.5673 191.783 72.5673 191.576V184.73H58.1516C57.4256 184.73 57.1145 184.211 56.2848 182.137H86.8792C87.7089 182.137 88.2275 181.722 89.1608 180.684C90.4054 181.722 91.1313 182.24 91.1313 182.966ZM63.2334 176.846H67.7966V172.282H63.2334V176.846ZM69.2485 159.731V163.154C69.2485 164.814 69.456 165.125 70.9079 165.229C71.4264 165.229 77.0268 165.644 79.9307 165.229C81.0715 165.021 81.59 164.606 81.7974 163.984L82.2123 162.117C82.2123 161.806 82.8345 161.702 82.9382 162.117C83.3531 163.673 83.6642 164.295 84.1828 164.814C85.4273 165.955 84.9087 167.2 83.6642 167.615C79.7232 168.859 71.1153 168.341 69.1448 168.133C65.4113 167.822 65.4113 166.474 65.4113 162.532V158.59L68.4189 159.316C68.9374 159.213 69.2485 159.42 69.2485 159.731ZM76.0934 172.282H71.4264V176.95H76.0934V172.282ZM75.16 162.947C74.0192 161.702 72.7747 159.939 71.8413 159.005C71.3227 158.486 71.7376 157.864 72.3598 158.072C74.6414 158.694 76.1971 159.109 77.649 160.354C79.3084 161.91 77.4416 165.436 75.16 162.947ZM79.7232 172.282V176.95H84.3902V172.282H79.7232Z" fill="#39401D"/>
<path d="M70.8042 241.054H53.2772C52.6549 241.054 52.4475 240.432 51.6178 238.565H60.4332V235.661H55.144C54.418 235.661 54.3143 235.246 53.4846 233.275H60.5369V230.267H54.0032C53.3809 230.267 53.1735 229.748 52.3438 227.881H60.5369V222.694L63.5445 223.317C64.063 223.421 64.3742 223.732 64.3742 224.147V227.881H68.3151C69.2485 227.881 69.6634 227.466 70.4931 226.532C71.5302 227.57 72.1524 228.088 72.1524 228.711C72.1524 229.748 71.219 230.267 69.7671 230.267H64.3742V233.275H67.3818C68.2114 233.275 68.6263 232.86 69.456 231.926C70.5968 232.964 71.219 233.482 71.219 234.208C71.219 235.246 70.2856 235.764 68.73 235.764H64.3742V238.669H69.5597C70.3893 238.669 70.8042 238.254 71.6339 237.32C72.671 238.254 73.3969 238.98 73.3969 239.602C73.2932 240.639 72.4635 241.054 70.8042 241.054ZM70.1819 246.552V264.497C70.1819 266.364 68.5226 268.231 66.4484 266.987C64.8927 265.949 62.1963 264.601 61.0555 264.29C60.4332 264.082 60.5369 263.564 61.1592 263.564C62.6111 263.564 65.8261 263.771 66.1372 263.564C66.3447 263.46 66.3447 263.252 66.3447 262.941V258.17H58.9813C58.8775 258.999 58.6701 259.726 58.4627 260.555C57.8404 262.941 56.0774 265.949 53.692 267.505C53.0698 267.92 52.5512 267.401 52.9661 266.779C53.692 265.638 54.7291 263.149 55.0403 260.867C55.3514 258.896 55.4551 256.925 55.4551 253.917C55.4551 251.22 55.4551 246.241 55.4551 242.714L58.4627 243.336C58.9813 243.44 59.2924 243.751 59.2924 243.959H64.063C65.1001 243.959 65.515 243.648 66.241 242.818L69.3522 243.855C71.5302 244.374 70.1819 245.722 70.1819 246.552ZM66.3447 255.576V252.257H59.3961C59.3961 253.502 59.3961 254.539 59.2924 255.576H66.3447ZM59.3961 246.345V249.768H66.3447V246.345H59.3961ZM96.8354 245.93C96.8354 247.071 95.902 247.486 94.4501 247.486H92.3759V254.332C92.3759 256.303 90.5091 256.925 88.6423 256.51V254.435H84.3902V264.497C84.3902 266.883 82.1086 268.231 80.4492 266.987C79.2047 266.053 76.3008 264.912 74.9526 264.393C74.434 264.186 74.5377 263.667 75.0563 263.667C76.3008 263.667 80.0344 263.875 80.3455 263.667C80.5529 263.564 80.5529 263.46 80.5529 263.252V254.332H74.8489C74.1229 254.332 73.9155 253.502 73.1895 251.842H80.5529V247.382H73.7081C72.9821 247.382 72.7747 246.863 71.8413 244.892H80.5529V240.536H75.5748C74.7452 240.536 74.434 239.81 73.9155 238.046H86.4644C87.5015 238.046 88.02 237.631 88.6423 236.802L91.7536 237.839C93.6204 238.461 92.3759 239.913 92.3759 240.743V244.789H93.1018C93.9315 244.789 94.3463 244.374 95.176 243.544C96.1094 244.581 96.8354 245.204 96.8354 245.93ZM73.3969 227.57C80.6566 226.118 85.4273 224.873 89.9905 222.694L91.235 224.25C92.2721 225.495 92.3759 225.91 90.7165 226.325C86.8792 227.362 77.9602 228.607 73.2932 228.503C72.8784 228.607 72.5673 227.777 73.3969 227.57ZM79.2047 233.586C80.6566 236.179 77.7527 239.395 76.5082 235.661C76.0934 234.416 74.9526 231.511 74.5377 230.474C74.434 230.059 74.6414 229.437 75.2637 229.852C76.5082 230.682 78.2713 231.926 79.2047 233.586ZM85.3236 233.793C85.9458 236.49 82.9382 238.461 82.2123 234.934C82.0049 233.69 81.2789 230.889 80.7603 229.229C80.6566 228.814 81.0715 228.4 81.6937 228.814C82.9382 229.852 84.9087 231.823 85.3236 233.793ZM84.3902 244.996H88.6423V240.639H84.3902V244.996ZM88.6423 247.486H84.3902V251.946H88.6423V247.486ZM91.6499 228.711C92.8944 229.437 92.8944 229.748 92.4796 230.474C91.0276 232.652 89.1608 235.142 87.2941 237.009C86.8792 237.424 86.0495 237.216 86.4644 236.387C87.3978 234.52 88.746 230.059 89.3683 227.362L91.6499 228.711Z" fill="#39401D"/>
<path d="M68.5226 316.88C68.5226 313.353 71.3227 310.553 74.8489 310.553C78.375 310.553 81.1752 313.353 81.1752 316.88C81.1752 320.407 78.375 323.207 74.8489 323.207C71.3227 323.207 68.5226 320.407 68.5226 316.88ZM78.7898 316.88C78.7898 314.702 77.0268 313.042 74.9526 313.042C72.7747 313.042 71.1153 314.805 71.1153 316.88C71.1153 319.058 72.8784 320.718 74.9526 320.718C77.0268 320.718 78.7898 319.058 78.7898 316.88Z" fill="#39401D"/>
</svg>
