<svg width="145" height="300" viewBox="0 0 145 300" fill="none" xmlns="http://www.w3.org/2000/svg">
<path d="M8.36946 13.4044V23.7148C8.36946 24.8396 7.52358 25.2145 6.5837 25.027V15.2791C5.64383 16.1226 4.70396 16.8725 3.6701 17.5286C3.38814 17.7161 3.10618 17.4349 3.38814 17.1537C4.51599 16.1226 5.73782 14.8104 7.14763 12.8421C7.99351 11.7173 8.55743 10.6863 9.30933 9.09284L10.3432 9.93641C10.7191 10.2176 10.6252 10.3113 10.4372 10.6863C9.68528 11.7173 9.21534 12.4671 8.36946 13.4044ZM3.48213 11.2486C4.32801 10.4988 5.36187 9.46776 6.30174 8.15553C7.14763 7.03077 7.89952 5.906 8.46345 4.6875L9.40332 5.43735C9.87325 5.81227 9.87325 5.906 9.59129 6.28092C9.02737 7.03077 8.46345 7.78061 7.42959 8.81165C6.20776 9.93642 5.07991 10.9675 3.6701 11.7173C3.48213 11.7173 3.20017 11.4361 3.48213 11.2486ZM23.7833 23.3399C23.4074 23.7148 23.2194 23.9023 22.9375 24.2772C22.6555 24.5584 22.5615 24.8396 21.9976 24.8396C19.084 24.9333 17.1103 24.4647 15.5125 23.5274C14.3846 22.8712 13.5388 21.8402 12.7869 20.2468C12.6929 20.528 12.5049 20.8092 12.4109 21.1841C11.659 22.8712 10.6252 24.1835 9.49731 24.9333C9.02737 25.027 8.93338 24.7459 9.02737 24.5584C10.0612 23.1524 10.9071 21.0904 11.377 19.122C11.753 17.7161 11.847 16.2164 11.941 14.6229L13.1628 14.9979C13.5388 15.0916 13.7267 15.1853 13.6327 15.5603C13.5388 16.685 13.2568 17.8098 13.0688 18.8408C13.8207 20.1531 14.6666 21.1841 15.7005 21.7465L15.7944 21.8402V13.1233L17.2043 13.4044C17.4862 13.4982 17.5802 13.5919 17.5802 13.7794V16.685H20.1179C20.5878 16.685 20.7758 16.4976 21.1517 16.0289C21.7156 16.4976 21.9976 16.7788 21.9976 17.1537C21.9976 17.7161 21.5277 17.9035 20.7758 17.9035H17.4862V22.4963C19.178 22.965 21.1517 23.0587 23.5014 22.8712C23.8773 22.965 23.8773 23.2462 23.7833 23.3399ZM10.4372 12.9358C11.847 10.6863 13.0688 7.40569 13.6327 4.78123L14.8546 5.34361C15.3245 5.53108 15.3245 5.62481 15.2305 5.99973C14.9486 6.74957 14.6666 7.49942 14.2906 8.24926C15.1365 8.71792 15.9824 9.18657 16.3584 9.74895C17.2042 10.8737 15.9824 12.2797 15.0425 10.9675C14.5726 10.3113 14.1967 9.56149 13.9147 9.09284C12.9748 10.78 11.847 12.4671 10.8131 13.4044C10.4372 13.4982 10.2492 13.217 10.4372 12.9358ZM15.9824 12.5609C17.3922 10.4988 18.4261 7.59315 19.084 4.6875L20.3058 5.24988C20.7758 5.43734 20.8697 5.62481 20.6818 5.99973C20.3998 6.8433 20.0239 7.59315 19.6479 8.43672C20.6818 8.99911 21.9976 9.74895 22.4675 10.4051C23.5014 11.811 22.2796 13.1233 21.0577 11.6236C20.5878 11.0612 19.7419 9.84268 19.178 9.09284C18.3321 10.5925 17.2982 11.9985 16.2644 12.8421C16.0764 13.0295 15.7944 12.8421 15.9824 12.5609Z" fill="#39401D"/>
<path d="M22.0916 47.2412C17.6742 52.9588 12.3169 54.9271 4.89194 55.2083C4.51599 55.2083 4.32801 54.8334 4.79795 54.7397C10.8131 53.6149 16.5463 51.6465 19.9299 47.1475H13.7267C13.1628 47.6161 12.4109 48.0848 11.659 48.5534C12.5989 49.2095 13.3508 49.6782 13.8207 50.2406C14.7606 51.3654 13.4448 52.9588 12.3169 51.3654C11.941 50.803 11.471 50.0531 10.9071 49.0221C9.12136 50.0531 7.05364 50.8967 5.07991 51.3654C4.70396 51.4591 4.60997 51.0842 4.89194 50.8967C8.65142 49.0221 12.4109 46.3976 14.4786 43.7732L15.6065 44.523C15.9824 44.8042 16.0764 44.8979 15.7005 45.1791L14.9486 45.8352H19.8359C20.2118 45.8352 20.3998 45.8352 20.8697 45.3666L21.6216 46.1164C22.2796 46.7726 22.2796 46.96 22.0916 47.2412ZM5.07991 41.6174C8.55743 39.649 11.565 37.1183 13.1628 34.9625L14.3846 35.7123C14.7606 35.9935 14.7606 36.0873 14.6666 36.2747C14.3846 36.5559 14.1027 36.9308 13.6327 37.3058H18.802C19.272 37.3058 19.4599 37.212 19.9299 36.8371L20.7758 37.6807C21.2457 38.0556 21.3397 38.2431 20.8697 38.618C17.2042 42.4609 11.2831 45.6478 5.26788 46.1164C4.98592 46.1164 4.79795 45.7415 5.07991 45.6478C7.52357 44.8979 10.3432 43.9606 12.4109 42.8359C15.6065 41.055 17.4862 39.5553 18.4261 38.4305H12.035L11.0011 39.1804C11.941 39.7428 12.6929 40.2114 13.1628 40.6801C14.1027 41.7111 12.9748 43.3045 11.659 41.8048C11.2831 41.2424 10.7191 40.4926 10.2492 39.7428C8.74541 40.6801 6.95965 41.5236 5.26788 41.9923C4.79795 42.1798 4.79795 41.8048 5.07991 41.6174Z" fill="#39401D"/>
<path d="M21.5277 69.4554V83.9836C21.5277 85.1084 20.5878 85.577 19.6479 85.0146C18.99 84.546 18.0501 84.1711 17.3922 83.8899C17.1103 83.7962 17.1103 83.515 17.3922 83.515C18.1441 83.515 19.366 83.515 19.6479 83.4212C19.7419 83.4212 19.7419 83.2338 19.7419 83.14V69.4554H14.1027C14.0087 69.8303 13.9147 70.1115 13.7267 70.3927C15.6065 71.2362 17.2982 72.0798 18.0501 72.7359C19.178 73.767 18.3321 75.4541 17.2043 74.3294C16.2644 73.392 14.3846 71.7049 13.5388 70.9551C13.4448 71.2362 13.2568 71.5174 13.0688 71.7049C11.847 73.4858 9.96724 74.8917 8.36946 75.4541C8.0875 75.5479 7.89952 75.2667 8.0875 75.0792C9.21534 74.2356 10.9071 72.8297 11.847 70.9551C12.035 70.4864 12.2229 70.0177 12.4109 69.4554H7.71155V84.1711C7.71155 85.1084 6.86567 85.577 5.9258 85.2958V67.5807L7.3356 67.8619C7.61756 67.9557 7.71155 68.0494 7.71155 68.2369H12.7869C12.9748 67.1121 13.1628 65.9873 13.1628 65.05L14.4786 65.4249C14.9486 65.5187 14.9486 65.7061 14.9486 66.0811C14.8546 66.7372 14.7606 67.487 14.5726 68.2369H18.896C19.272 68.2369 19.5539 68.0494 19.8359 67.7682L21.2457 68.2369C22.1856 68.5181 21.5277 68.9867 21.5277 69.4554ZM13.9147 77.0475C13.6327 77.6099 13.3508 78.0786 13.0688 78.5472C11.753 80.4218 9.96724 81.6403 8.46345 82.2027C8.18149 82.2965 7.89952 82.109 8.18149 81.8278C9.30933 80.8905 10.9071 79.2971 11.753 77.7037C12.6929 75.9228 12.9748 74.7043 13.2568 72.9234L14.4786 73.392C15.0425 73.5795 15.0425 73.767 14.9486 74.0482C14.7606 74.798 14.4786 75.6416 14.1027 76.3914C15.7005 77.1413 17.5802 78.3598 18.2381 78.9222C19.366 80.0469 18.4261 81.6403 17.2982 80.5156C16.1704 79.3908 14.7606 77.8911 13.9147 77.0475Z" fill="#39401D"/>
<path d="M6.48972 102.355V114.259C6.48972 115.196 5.54985 115.571 4.70396 115.383V95.6062L6.11377 95.8874C6.30174 95.8874 6.39573 95.9811 6.48972 96.1686H9.49731C9.96724 96.1686 10.1552 95.9811 10.5312 95.6062L11.941 95.9811C12.8808 96.2623 12.3169 96.6372 12.3169 97.1996V102.167C12.3169 103.198 11.471 103.48 10.5312 103.292V102.449H6.48972V102.355ZM6.48972 97.1996V98.6056H10.5312V97.1996H6.48972ZM10.5312 101.23V99.7304H6.48972V101.23H10.5312ZM16.2644 109.103V113.696C16.2644 114.821 15.1365 115.008 14.5726 114.821V109.103H12.3169L12.2229 109.666C11.753 112.478 9.68528 114.352 7.89952 115.008C7.61756 115.102 7.42959 114.821 7.61756 114.634C9.12136 113.321 10.3432 111.634 10.5312 109.197H7.89952C7.61756 109.197 7.52358 109.01 7.14763 108.072H10.6252C10.6252 107.135 10.6252 106.291 10.6252 105.635H9.02737C8.74541 105.635 8.55743 105.448 8.18149 104.511H16.8283C17.2042 104.511 17.3922 104.323 17.8622 103.854C18.4261 104.417 18.708 104.604 18.708 104.886C18.708 105.448 18.2381 105.635 17.5802 105.635H16.2644V108.072H18.0501C18.4261 108.072 18.6141 107.885 19.084 107.416C19.6479 107.979 19.8359 108.166 19.8359 108.447C19.8359 109.01 19.4599 109.197 18.708 109.197H16.2644V109.103ZM14.5726 107.979V105.542H12.4109V106.666C12.4109 107.041 12.4109 107.51 12.4109 107.979H14.5726ZM22.2796 97.3871V114.259C22.2796 115.196 21.3397 115.946 20.4938 115.29C19.366 114.446 18.5201 114.259 17.9561 114.071C17.7682 113.977 17.7682 113.696 17.9561 113.696C18.4261 113.696 20.3058 113.79 20.4938 113.696C20.4938 113.696 20.5878 113.602 20.5878 113.509V102.261H16.5463C16.4524 103.105 15.5125 103.292 14.7606 103.105V95.6062L16.0764 95.8874C16.2644 95.8874 16.4524 96.0749 16.4524 96.1686H19.4599C19.8359 96.1686 20.1178 95.9811 20.3998 95.6999L21.8096 96.0749C22.9375 96.2623 22.2796 96.8247 22.2796 97.3871ZM16.5463 97.1996V98.6993H20.4938V97.1996H16.5463ZM20.5878 101.23V99.8241H16.5463V101.23H20.5878Z" fill="#39401D"/>
<path d="M11.659 141.628C12.7869 143.128 11.753 145.096 10.5312 143.221C10.0612 142.565 9.4973 141.815 8.93338 140.972C7.61756 143.034 6.11377 144.627 4.14004 145.565C3.85808 145.752 3.48213 145.565 3.85808 145.19C5.36187 143.784 6.86567 142.097 7.99351 139.753C7.52358 139.191 6.95965 138.629 6.48972 138.066C6.01978 139.097 5.36187 139.191 4.422 138.816C5.07991 137.316 5.92579 134.317 6.48972 131.224H4.32801C3.95206 131.224 3.85808 130.943 3.48213 130.099H6.77168C7.05364 128.412 7.24161 126.819 7.3356 125.413L8.46345 125.694C9.02737 125.881 9.12136 126.069 9.02737 126.35C8.93338 127.193 8.74541 128.506 8.46345 130.005H9.59129C10.0612 130.005 10.2492 129.912 10.6252 129.537L11.565 130.099C12.1289 130.474 12.1289 130.661 12.035 131.13C11.565 134.504 10.9071 137.316 9.77927 139.472C10.4372 140.128 11.0951 140.784 11.659 141.628ZM8.18149 131.224C7.80554 133.38 7.24161 135.629 6.67769 137.316C7.24161 137.691 7.89952 138.16 8.46345 138.535C9.21534 136.566 9.87325 134.036 10.1552 131.224H8.18149ZM21.7156 133.848L21.1517 132.817C18.99 133.38 15.2305 133.942 13.2568 134.317C12.5049 134.411 12.4109 134.411 11.659 132.911C12.2229 132.911 12.8808 132.911 13.4448 132.817C14.1027 131.692 14.5726 130.661 15.3245 128.881C15.7944 127.85 16.3584 126.256 16.5463 125.225L17.7682 125.881C18.2381 126.069 18.2381 126.35 18.1441 126.537C17.7682 127.381 17.2982 128.318 16.7343 129.349C15.9824 130.661 15.2305 131.786 14.4786 132.724C16.8283 132.63 18.99 132.349 20.8697 132.161C20.3058 131.036 19.4599 129.818 18.99 129.068C18.802 128.787 19.084 128.599 19.366 128.787C21.2457 130.099 22.8435 131.88 23.3134 132.817C23.9713 134.411 22.6555 135.817 21.7156 133.848ZM21.8096 137.316V144.44C21.8096 145.19 21.0577 145.565 20.0239 145.377V143.503H15.0425V144.44C15.0425 145.377 14.1967 145.752 13.2568 145.565V135.442L14.5726 135.629C14.7606 135.629 14.9486 135.817 14.9486 135.91H18.896C19.366 135.91 19.5539 135.723 19.9299 135.348L21.3397 135.817C22.3735 136.285 21.8096 136.754 21.8096 137.316ZM20.1179 142.284V137.223H15.1365V142.284H20.1179Z" fill="#39401D"/>
<path d="M12.3169 160.843V173.028C12.3169 173.965 11.2831 174.34 10.5312 174.152V172.934H6.77168V173.871C6.77168 174.809 5.73782 175.184 4.98592 174.902V159.062L6.39573 159.343C6.67769 159.437 6.77168 159.531 6.77168 159.624H7.3356C7.71155 158.593 8.0875 157 8.27547 155.594L9.49731 156.156C10.0612 156.437 10.0612 156.531 9.87325 156.906C9.59129 157.468 8.8394 158.781 8.27547 159.624H9.59129C10.0612 159.624 10.2492 159.437 10.5312 159.062L11.941 159.531C12.9748 159.812 12.3169 160.374 12.3169 160.843ZM6.77168 160.655V165.342H10.5312V160.655H6.77168ZM10.5312 171.622V166.56H6.77168V171.622H10.5312ZM22.7495 161.124C22.7495 172.372 21.6216 174.715 20.2118 175.465C19.7419 175.746 19.366 175.652 18.99 175.371C18.5201 174.996 17.5802 174.527 16.7343 174.152C16.5463 174.059 16.5463 173.778 16.8283 173.778C19.4599 173.965 19.6479 173.965 20.0239 173.028C20.3998 172.184 20.5878 170.684 20.7758 168.81C21.0577 166.185 21.0577 163.092 21.0577 160.936H15.8884C14.9486 162.53 14.1967 163.748 13.1628 164.686C12.9748 164.873 12.6929 164.686 12.7869 164.404C13.4448 163.186 14.2906 161.405 15.1365 159.249C15.6065 158.031 15.9824 156.719 16.2644 155.5L17.3922 156.062C17.9561 156.344 17.9561 156.437 17.8622 156.719C17.4862 157.656 17.0163 158.687 16.5463 159.718H20.0239C20.4938 159.718 20.6818 159.53 20.9637 159.249L22.3735 159.718C23.5014 160.28 22.7495 160.843 22.7495 161.124ZM16.7343 168.341C16.2644 167.216 15.7005 165.623 15.0425 164.404C14.9486 164.217 15.1365 163.936 15.4185 164.123C16.5463 165.061 17.6742 166.092 18.2381 167.404C18.99 168.904 17.3922 170.028 16.7343 168.341Z" fill="#39401D"/>
<path d="M23.7833 196.179C22.4675 196.929 22.3735 197.21 21.5277 196.648C21.0577 196.367 20.4938 195.992 19.9299 195.523V199.366C19.9299 200.303 19.084 200.585 18.2381 200.397V199.647H16.7343V204.709C16.7343 205.552 15.8884 206.208 15.0425 205.646C14.4786 205.271 12.6929 204.615 12.035 204.521C11.847 204.521 11.753 204.146 12.1289 204.146C12.3169 204.146 14.7606 204.146 14.8546 204.146C14.9486 204.146 14.9486 204.053 14.9486 203.959V199.647H13.0688C12.8808 200.303 12.1289 200.491 11.377 200.397V195.898C10.6252 196.46 9.68528 197.023 8.55743 197.491C8.27547 197.585 8.0875 197.21 8.36946 197.023C9.59129 196.179 10.6252 195.336 11.471 194.398C11.1891 194.492 10.8131 194.398 10.3432 193.93C9.87325 193.367 9.49731 192.805 9.21534 192.336C9.12136 192.149 9.21534 191.868 9.49731 191.961C10.0612 192.149 11.0011 192.43 11.471 192.899C11.753 193.18 11.847 193.555 11.847 193.836C11.941 193.742 12.035 193.648 12.035 193.555C12.5989 192.899 12.9748 192.149 13.3508 191.305H9.40332C9.02737 191.305 8.93338 191.118 8.55743 190.18H13.9147C14.1027 189.712 14.2906 189.149 14.4786 188.587H8.27547V192.992C8.27547 196.648 7.80554 199.928 6.95965 201.803C6.20776 203.396 5.26788 204.802 3.95206 205.646C3.57612 205.927 3.38814 205.552 3.57612 205.365C4.60998 203.959 5.83181 201.522 6.30174 198.241C6.39573 197.585 6.48972 196.929 6.48972 196.179L4.98592 197.866C4.70396 198.241 4.422 198.241 4.04605 197.96L2.91821 197.21C4.14004 196.554 5.45586 195.711 6.39573 194.961C6.48972 192.805 6.48972 190.274 6.39573 186.994L7.80554 187.275C8.0875 187.368 8.18149 187.462 8.18149 187.556H14.6666C14.5726 187.462 14.4786 187.368 14.3846 187.275C13.8207 186.619 13.4448 186.15 13.2568 185.775C13.0688 185.494 13.1628 185.306 13.4448 185.4C14.5726 185.681 15.4185 185.869 15.7944 186.244C16.2644 186.619 16.1704 187.181 15.8884 187.556H21.2457C21.6216 187.556 21.8096 187.368 22.2796 186.9C22.7495 187.368 23.1254 187.556 23.1254 187.931C23.1254 188.493 22.6555 188.681 21.9036 188.681H14.8546L15.7005 189.149C16.1704 189.431 16.2644 189.524 16.0764 189.993L15.9824 190.274H21.2457C21.6216 190.274 21.8096 190.18 22.1856 189.712C22.6555 190.18 22.9375 190.368 22.9375 190.649C22.9375 191.118 22.5615 191.305 21.9036 191.305H17.9561C18.4261 192.055 19.084 192.899 19.8359 193.555C20.3998 192.992 21.1517 192.149 21.5277 191.493L22.4675 192.242C22.8435 192.524 22.8435 192.711 22.5615 192.899C22.0916 193.18 21.2457 193.648 20.4938 193.93C21.4337 194.586 22.6555 195.242 23.8773 195.711C23.9713 195.992 23.9713 196.085 23.7833 196.179ZM3.76409 190.18C3.76409 189.993 3.85808 189.712 4.14004 189.993C4.89194 190.555 5.64383 191.211 5.9258 191.961C6.67769 193.555 5.07991 194.398 4.60997 193.086C4.23403 191.961 3.95206 190.837 3.76409 190.18ZM7.80554 205.74C7.52358 205.833 7.24161 205.552 7.52358 205.365C8.8394 204.24 10.7191 202.272 11.565 200.866L12.4109 201.428C12.8808 201.709 13.0688 201.897 12.7869 202.178C11.565 203.49 9.59129 204.99 7.80554 205.74ZM13.1628 196.367H18.2381V195.148H13.1628V196.367ZM18.1441 198.616V197.491H13.0688V198.616H18.1441ZM15.3245 191.399C14.8546 192.336 14.1967 193.274 13.4448 194.117H17.3922C17.7682 194.117 17.9561 193.93 18.2381 193.648C17.6742 192.899 17.2042 192.055 16.9223 191.399H15.3245ZM22.4675 203.396C23.6894 204.709 22.5615 206.115 21.5277 204.99C20.9637 204.427 19.4599 202.647 18.4261 201.522C18.2381 201.334 18.4261 201.053 18.708 201.241C20.6818 201.99 21.9976 202.928 22.4675 203.396Z" fill="#39401D"/>
<path d="M6.67769 231.984C6.01978 233.578 4.98592 234.984 3.76409 235.921C3.48213 236.108 3.29415 235.734 3.38814 235.546C4.51599 234.046 5.54985 231.703 6.01978 228.423C6.11377 227.673 6.20776 226.829 6.20776 225.892C5.73782 226.454 5.26788 227.11 4.79795 227.579C4.51599 227.954 4.23403 227.954 3.85808 227.673L2.82422 226.923C4.04605 226.267 5.1739 225.423 6.11377 224.767C6.20776 222.705 6.11377 220.08 6.01978 216.987L7.42959 217.269C7.71155 217.362 7.80554 217.456 7.80554 217.55H14.5726L14.4786 217.456C13.9147 216.8 13.5388 216.425 13.2568 216.05C13.0688 215.769 13.1628 215.581 13.4448 215.675C14.5726 215.863 15.2305 215.956 15.7005 216.331C16.1704 216.706 16.1704 217.269 15.8884 217.55H21.1517C21.5277 217.55 21.7156 217.362 22.1856 216.894C22.6555 217.362 23.0315 217.55 23.0315 217.925C23.0315 218.487 22.5615 218.675 21.8096 218.675H15.9824C16.4524 219.049 16.5463 219.049 16.1704 219.424C18.2381 220.924 20.3058 221.58 23.1254 222.143C23.4074 222.143 23.3134 222.33 23.2194 222.517C21.9976 223.642 21.9976 223.642 20.9637 223.267C19.272 222.611 17.2982 221.674 15.6065 219.987C14.7606 220.643 13.9147 221.299 12.8808 221.861H16.1704C16.5463 221.861 16.7343 221.768 17.1103 221.393C17.5802 221.768 17.9561 221.955 17.9561 222.33C17.9561 222.799 17.5802 222.986 16.9223 222.986H13.2568C12.9748 222.986 12.8808 222.799 12.5989 222.143C11.753 222.611 10.8131 222.986 9.87325 223.361L10.4372 223.455C10.6252 223.455 10.8131 223.549 10.8131 223.736H12.7869C13.2568 223.736 13.3508 223.642 13.6327 223.267L14.9486 223.642C15.7005 223.923 15.2305 224.298 15.2305 224.767V230.016C15.2305 230.672 14.3846 231.422 13.6327 230.766C13.1628 230.391 12.4109 230.11 11.941 229.922C11.659 229.828 11.753 229.547 12.035 229.547C12.5989 229.547 13.3508 229.547 13.5388 229.547C13.6327 229.547 13.6327 229.36 13.6327 229.266V228.329H10.8131C10.6252 229.36 10.0612 230.578 8.74541 231.516C8.46345 231.703 8.27547 231.422 8.36946 231.234C9.30933 229.641 9.30933 227.766 9.30933 223.642C8.93338 223.736 8.55743 223.923 8.18149 224.017C8.0875 224.017 7.99351 224.017 7.99351 224.017C7.89952 227.204 7.42959 230.297 6.67769 231.984ZM3.6701 220.08C3.6701 219.893 3.76409 219.612 4.04605 219.893C4.79795 220.455 5.36187 221.018 5.73782 221.768C6.39573 223.174 4.89194 224.017 4.51599 222.892C4.14004 221.768 3.85808 220.643 3.6701 220.08ZM9.96724 231.797C9.77927 233.109 9.40332 234.421 8.74541 235.077C7.42959 236.483 6.11377 235.077 7.05364 234.234C8.18149 233.297 8.65142 232.922 9.49731 231.703C9.68528 231.422 9.96724 231.516 9.96724 231.797ZM14.7606 218.581H7.99351V223.549C7.99351 223.549 7.99351 223.549 8.0875 223.549C11.2831 221.768 12.9748 220.643 14.7606 218.581ZM13.7267 227.298V226.454H11.0951V226.829C11.0951 227.017 11.0951 227.11 11.0951 227.298H13.7267ZM11.0011 224.58V225.423H13.7267V224.58H11.0011ZM19.7419 234.234C20.3998 234.89 19.9299 235.452 19.4599 235.64C18.1441 236.015 16.0764 236.202 14.3846 236.015C11.565 235.827 11.377 235.64 11.377 232.828V231.047L12.6929 231.328C12.9748 231.422 13.0688 231.516 13.0688 231.609V233.297C13.0688 234.328 13.1628 234.421 14.3846 234.515C15.6065 234.609 17.2043 234.515 18.1441 234.234C18.4261 234.14 18.6141 233.859 18.708 233.484L18.896 232.734C18.896 232.547 19.178 232.547 19.178 232.734C19.366 233.578 19.5539 234.046 19.7419 234.234ZM17.0163 232.172C17.8622 233.296 16.4524 234.609 15.7005 233.109L14.8546 231.234C14.7606 230.953 14.8546 230.766 15.1365 230.86C15.9824 231.234 16.6403 231.609 17.0163 232.172ZM16.7343 228.61V223.83L17.9561 224.111C18.2381 224.205 18.3321 224.298 18.3321 224.392V227.766C18.3321 228.423 17.5802 228.704 16.7343 228.61ZM17.8622 229.36C18.3321 229.36 19.7419 229.36 19.8359 229.36C19.9299 229.36 19.9299 229.266 19.9299 229.172V223.361L21.1517 223.642C21.5277 223.736 21.5277 223.83 21.5277 223.923V229.922C21.5277 230.672 20.7758 231.328 20.0239 230.86C19.178 230.297 18.5201 229.922 17.7682 229.641C17.5802 229.641 17.5802 229.36 17.8622 229.36ZM22.1856 234.796C21.5277 233.859 21.2457 233.109 20.4938 232.078C20.3058 231.891 20.3998 231.516 20.7758 231.703C21.9976 232.359 22.6555 232.64 23.4074 233.484C24.2533 234.515 23.1254 236.202 22.1856 234.796Z" fill="#39401D"/>
<path d="M9.96724 249.324V261.603C9.96724 262.54 9.21534 262.915 8.27547 262.728V261.228H5.83181V262.072C5.83181 263.103 5.07991 263.478 4.14004 263.384V247.544L5.54985 247.825C5.83181 247.825 5.9258 248.012 5.9258 248.106H7.42959C7.80554 248.106 8.0875 247.918 8.36946 247.544L9.87325 248.106C10.5312 248.387 9.96724 248.95 9.96724 249.324ZM5.73782 249.231V254.011H8.18149V249.231H5.73782ZM8.18149 260.01V255.136H5.73782V260.01H8.18149ZM23.5954 257.292C23.5954 257.854 23.1254 258.041 22.3735 258.041H19.9299V264.977C19.9299 266.009 18.99 266.665 17.9561 266.009C17.3922 265.634 16.3584 265.071 15.2305 264.696C14.9486 264.603 15.0425 264.321 15.2305 264.321C15.7944 264.321 17.8622 264.415 18.0501 264.321C18.1441 264.321 18.1441 264.228 18.1441 264.134V257.948H11.377C11.0011 257.948 10.9071 257.76 10.5312 256.729H18.2381V254.011L19.6479 254.292C19.9299 254.386 20.0239 254.48 20.0239 254.667V256.729H21.8096C22.2796 256.729 22.4675 256.448 22.9375 255.979C23.3134 256.635 23.5954 256.917 23.5954 257.292ZM10.5312 248.668H15.7005V245.856L17.1103 246.138C17.3922 246.231 17.4862 246.325 17.4862 246.513V248.668H20.9637C21.3397 248.668 21.6216 248.481 21.9976 248.012C22.5615 248.575 22.8435 248.762 22.8435 249.137C22.8435 249.699 22.3735 249.887 21.6216 249.887H17.4862V252.699H20.1179C20.4938 252.699 20.7758 252.418 21.1517 252.043C21.6216 252.418 21.9976 252.792 21.9976 253.074C21.9976 253.636 21.5277 253.824 20.8697 253.824H12.3169C12.035 253.824 11.941 253.636 11.471 252.699H15.7944V249.887H11.471C11.0951 249.887 10.9071 249.606 10.5312 248.668ZM13.8207 261.791C13.3508 260.666 12.9748 259.916 12.5989 259.072C12.5049 258.885 12.5989 258.604 12.9748 258.791C14.1967 259.447 15.0425 260.197 15.5125 260.947C16.0764 262.166 14.7606 263.853 13.8207 261.791Z" fill="#39401D"/>
<path d="M15.0425 292.815C16.1704 294.221 14.9486 296.096 13.5388 294.128C12.6929 292.909 11.941 291.784 11.377 290.941C9.12136 293.097 6.39573 294.784 3.76409 295.534C3.48213 295.627 3.38814 295.159 3.57612 295.065C6.48972 293.378 8.65142 291.597 10.3432 289.722C11.753 288.223 12.8808 286.536 13.7267 284.848L14.8546 285.692C15.2305 285.973 15.2305 286.067 15.0425 286.348C14.2906 287.66 13.2568 289.066 11.941 290.378C13.3508 291.222 14.3846 291.972 15.0425 292.815ZM15.7944 279.037C15.7944 279.506 15.3245 279.787 14.5726 279.787H9.59129L10.1552 280.162C10.5312 280.443 10.6252 280.63 10.3432 280.912C9.59129 281.755 8.55743 282.786 7.52358 283.724C7.89952 284.005 8.27547 284.286 8.46345 284.661C9.30933 285.786 8.27547 287.567 6.95965 285.786C6.20776 284.848 5.64383 283.724 4.98592 282.88C4.89194 282.693 4.98592 282.411 5.36187 282.599C5.9258 282.88 6.39573 283.161 6.86567 283.349C7.61756 282.224 8.18149 281.287 8.8394 279.881H4.51599C4.14004 279.881 4.04605 279.599 3.6701 278.756H9.68528C9.59129 278.662 9.40332 278.475 9.21535 278.193C8.74541 277.35 8.46345 276.788 8.18149 276.319C7.99351 276.038 8.18149 275.85 8.46345 275.944C9.40332 276.225 10.1552 276.6 10.7191 277.162C11.1891 277.725 11.0951 278.381 10.7191 278.662H13.9147C14.2907 278.662 14.4786 278.475 14.9486 278.006C15.5125 278.475 15.7944 278.756 15.7944 279.037ZM3.76409 290.941C7.80554 288.129 10.0612 285.504 12.035 281.568L13.0688 282.318C13.4448 282.599 13.5388 282.786 13.4448 282.974C11.377 286.348 8.18149 289.722 4.04605 291.222C3.6701 291.503 3.57612 291.035 3.76409 290.941ZM17.0163 291.41V279.225L18.3321 279.506C18.6141 279.599 18.708 279.693 18.708 279.787V290.378C18.802 291.128 17.9561 291.597 17.0163 291.41ZM22.7495 276.694V294.971C22.7495 296.096 21.7156 296.658 20.8697 295.909C20.1178 295.346 19.366 294.878 18.1441 294.503C17.8622 294.409 17.9562 294.128 18.1441 294.128C18.708 294.128 20.6818 294.221 20.8697 294.128C20.9637 294.034 20.9637 294.034 20.9637 293.94V275.944L22.2796 276.225C22.5615 276.413 22.7495 276.506 22.7495 276.694Z" fill="#39401D"/>
<path d="M111.535 24.8289V45.1684C111.535 46.8556 109.655 47.6992 108.152 47.3243V25.1101C107.024 29.4217 104.956 34.2957 101.854 37.2013C101.384 37.67 100.821 37.1076 101.102 36.7327C104.204 30.7339 105.802 25.7662 106.742 19.6737H102.7C102.042 19.6737 101.76 19.2988 101.102 17.4242H108.058V7.20755L110.783 7.76993C111.253 7.86366 111.441 8.14485 111.441 8.51978V17.4242H113.697C114.449 17.4242 114.825 17.0493 115.671 16.0182C116.704 17.0493 117.362 17.5179 117.362 18.2678C117.362 19.2988 116.516 19.7675 114.919 19.7675H111.441V22.6731C113.227 24.0791 114.919 25.3913 115.858 26.6098C117.832 29.328 114.919 31.9524 113.415 28.9531C112.757 27.4534 112.099 26.0474 111.535 24.8289ZM142.175 44.3249C142.175 45.4496 141.235 46.012 139.731 46.012H115.107C114.261 46.012 114.073 45.4496 113.321 43.6688H119.618V17.6116L122.438 18.174C122.814 18.2678 123.095 18.6427 123.095 18.7364H125.633L125.915 15.2684H117.738C116.986 15.2684 116.798 14.8935 116.046 13.0188H126.009L126.479 6.83262L129.017 7.48874C129.769 7.6762 129.863 7.86366 129.863 8.42604L129.487 12.9251H137.194C138.039 12.9251 138.321 12.5502 139.167 11.6129C140.201 12.5502 140.765 13.1126 140.765 13.675C140.765 14.706 139.919 15.1747 138.509 15.1747H129.393L129.111 18.6427H132.024C132.776 18.6427 133.246 18.3615 133.716 17.6116L136.63 18.6427C138.227 19.2051 137.194 20.1424 137.194 21.0797V43.4813H138.509C139.355 43.4813 139.731 43.1064 140.671 42.0753C141.517 43.2001 142.175 43.8562 142.175 44.3249ZM123.095 20.8922V24.8289H133.528V20.8922H123.095ZM133.528 27.1722H123.095V31.1089H133.528V27.1722ZM123.095 37.3888H133.528V33.3584H123.095V37.3888ZM123.095 43.575H133.528V39.5446H123.095V43.575Z" fill="#39401D"/>
<path d="M101.384 89.2218H135.972C137.194 89.2218 138.133 88.2845 139.073 87.1598C140.295 88.3783 141.517 89.2219 141.517 90.3466C141.517 91.7526 140.201 92.4087 138.133 92.4087H103.358C102.512 92.4087 102.418 91.4714 101.384 89.2218Z" fill="#39401D"/>
<path d="M111.441 156.802V174.048C111.441 176.298 109.373 177.704 107.776 176.204C106.554 174.985 104.58 173.954 103.358 173.298C102.888 173.111 102.888 172.548 103.452 172.548C104.58 172.548 107.4 172.642 107.682 172.455C107.87 172.361 107.87 172.267 107.87 172.08V158.957C106.648 159.801 105.426 160.457 104.486 161.02C103.734 161.488 103.452 161.582 102.042 160.27L100.633 159.051C103.17 158.114 105.52 157.177 107.776 156.239V147.335H102.7C102.042 147.335 101.666 147.054 101.009 144.992H107.776V136.087L110.595 136.743C111.159 136.837 111.347 137.118 111.347 137.493V144.992H112.193C112.945 144.992 113.321 144.523 114.261 143.586C115.389 144.617 116.046 145.085 116.046 145.835C116.046 146.866 115.295 147.335 113.509 147.335H111.347V154.646C113.039 153.896 114.637 153.146 116.046 152.396C116.61 152.115 117.268 152.584 116.61 153.146C115.577 154.177 113.509 155.489 111.441 156.802ZM141.893 170.299C138.791 171.986 138.603 172.08 137.288 170.674C135.69 168.987 133.904 166.643 131.836 162.894C130.896 161.301 130.239 159.614 129.675 158.02V174.798C129.675 176.673 127.795 177.422 126.103 177.047V158.957C125.069 160.926 123.565 163.082 121.968 165.05C119.336 168.143 115.858 171.236 112.851 172.736C112.381 172.923 111.817 172.361 112.381 171.986C115.295 169.549 117.644 166.643 119.524 164.019C121.592 161.113 123.096 158.489 124.411 155.021H120.088C119.336 155.021 119.054 154.365 118.208 152.677H126.103V146.304H118.772C118.114 146.304 117.832 145.741 116.986 143.961H126.009V136.462L128.923 137.024C129.393 137.118 129.675 137.399 129.675 137.681V143.961H136.912C137.757 143.961 138.133 143.492 138.979 142.648C139.919 143.586 140.671 144.148 140.671 144.898C140.671 145.929 139.825 146.304 138.227 146.304H129.675V152.677H135.502C136.254 152.677 136.724 152.209 137.57 151.365C138.509 152.209 139.261 152.771 139.261 153.521C139.261 154.458 138.415 155.114 136.818 155.114H130.332C130.99 156.708 131.93 158.489 133.058 160.176C135.126 163.55 138.321 167.487 141.705 169.736C142.175 169.924 142.175 170.205 141.893 170.299Z" fill="#39401D"/>
<path d="M110.877 222.413V239.566C110.877 241.159 109.561 242.003 107.588 241.722V223.632C106.46 224.007 105.238 224.381 104.204 224.756C102.888 225.225 102.7 225.131 101.009 222.319C102.418 222.132 103.828 221.944 105.05 221.757C107.588 217.914 109.843 213.602 111.817 207.979L113.791 209.197C114.731 209.759 115.013 209.947 114.637 210.603C113.039 213.227 109.843 218.383 107.024 221.382C109.185 221.007 111.065 220.726 112.663 220.351L112.005 217.539C111.911 216.977 112.381 216.696 112.851 217.07C114.449 218.758 115.952 220.445 116.422 221.851C117.55 224.85 114.543 226.35 113.603 223.632L113.039 221.663C112.381 221.944 111.629 222.132 110.877 222.413ZM106.178 228.693C105.144 231.88 103.828 236.379 102.324 238.816C102.042 239.378 101.384 238.91 101.478 238.441C102.136 234.786 102.606 230.474 103.17 226.443L105.144 227.193C106.366 227.662 106.46 227.756 106.178 228.693ZM102.136 208.822C101.948 208.26 102.324 207.791 102.794 208.166C103.546 208.728 104.298 209.291 104.956 209.853C105.99 207.51 107.118 204.323 108.152 201.136L110.031 202.167C111.253 202.823 111.441 202.917 111.065 203.573C109.655 205.916 107.776 208.635 106.084 210.884C106.46 211.259 106.836 211.728 107.118 212.103C109.091 214.915 106.272 217.445 104.768 214.54C103.828 212.759 102.7 210.134 102.136 208.822ZM141.423 235.629L139.919 236.473C138.415 237.316 138.039 237.41 136.63 236.004C135.408 234.786 134.844 234.223 133.246 232.349C131.93 230.755 130.708 228.88 129.769 226.912V239.191C129.769 241.347 127.889 242.565 126.197 241.347C125.257 240.597 122.344 239.378 121.122 238.91C120.652 238.722 120.746 238.254 121.216 238.254C122.25 238.254 125.821 238.254 126.103 238.254C126.291 238.16 126.291 238.066 126.291 237.879V229.162C124.975 230.568 122.814 232.536 120.652 234.504C119.524 235.442 119.336 235.348 116.516 233.098C116.422 235.442 113.979 236.285 113.321 233.473C112.851 231.224 112.475 228.506 112.381 227.006C112.381 226.443 112.851 226.069 113.227 226.537C114.449 228.131 115.858 230.099 116.328 231.692C116.422 232.161 116.516 232.723 116.516 233.098C120.37 231.13 123.753 229.255 126.385 227.568V219.039H116.516C115.858 219.039 115.577 218.57 114.825 216.696H127.889L128.923 213.227H121.78C121.498 213.696 121.028 214.258 120.37 214.446C119.524 214.727 118.584 214.446 118.02 214.259L122.156 201.136L124.411 202.167C125.069 202.448 125.351 202.636 125.163 203.198L124.693 204.604H129.675C130.802 204.604 131.178 204.323 131.836 203.573L133.904 204.698C136.16 205.916 134.656 206.479 134.374 207.229L131.366 216.789H137.476C138.133 216.789 138.603 216.321 139.449 215.477C140.389 216.414 141.141 216.977 141.141 217.633C141.141 218.664 140.201 219.132 138.791 219.132H129.769V223.725C130.332 224.756 130.896 225.694 131.46 226.537C133.434 224.663 135.22 222.694 137.1 220.07L139.073 221.851C139.825 222.507 139.825 222.694 138.979 223.35C137.382 224.475 135.032 225.975 132.306 227.568L132.87 228.318C135.596 231.505 138.509 233.661 141.517 235.348C141.799 235.254 141.705 235.535 141.423 235.629ZM120.84 226.162C119.994 224.85 118.866 222.319 118.302 221.101C117.926 220.445 118.49 220.164 118.96 220.445C120.746 221.476 122.532 222.601 123.283 223.538C125.069 225.975 122.25 228.412 120.84 226.162ZM129.581 210.79L130.802 206.573H123.847L122.532 210.79H129.581Z" fill="#39401D"/>
<path d="M119.054 293.461C121.592 291.867 122.814 289.618 122.908 288.025C122.908 287.275 122.438 286.9 121.498 286.806C119.712 286.712 118.396 285.494 118.396 283.432C118.396 281.276 120.088 279.964 121.968 279.964C124.223 279.964 126.479 281.745 126.479 284.744C126.385 289.056 124.223 292.899 119.712 294.586C118.49 295.054 118.208 294.023 119.054 293.461Z" fill="#39401D"/>
<path d="M59.3722 17.3305H47.9998C47.3419 17.3305 47.1539 16.9555 46.496 14.9872H57.8684C58.8083 14.9872 59.1842 14.706 60.0301 13.7687C61.064 14.706 61.6279 15.2684 61.6279 15.8308C61.6279 16.9555 60.876 17.3305 59.3722 17.3305ZM48.1877 20.7985H56.1767C57.0225 20.7985 57.3985 20.4236 58.2444 19.4863C59.3722 20.4236 59.9361 20.986 59.9361 21.6421C59.9361 22.7668 59.0903 23.1418 57.6805 23.1418H49.8795C49.1276 23.048 48.9396 22.6731 48.1877 20.7985ZM48.3757 26.3286H56.1767C57.0225 26.3286 57.3985 25.9537 58.1504 25.1101C59.2782 26.0474 59.8422 26.6098 59.8422 27.1722C59.8422 28.2032 58.9023 28.6719 57.4925 28.6719H49.9735C49.3156 28.6719 49.1276 28.2032 48.3757 26.3286ZM59.3722 34.9518V43.3876C59.3722 45.3559 58.1504 46.012 56.0827 45.7308V43.6688H51.9472V43.95C51.9472 46.1995 50.7254 46.7619 48.6577 46.5744V31.2963L51.1953 31.8587C51.5713 31.9524 51.9472 32.2336 51.9472 32.4211H54.2969C55.1428 32.4211 55.5187 32.0462 56.0827 31.2963L58.8083 32.2336C60.594 32.796 59.3722 33.9208 59.3722 34.9518ZM50.8194 7.20755C50.6314 6.73889 51.0074 6.27024 51.5713 6.64516C53.357 7.6762 54.9548 8.98843 55.6127 10.3007C57.1165 13.0188 54.2969 15.8308 52.7931 12.4565C52.2292 11.238 51.1953 8.33231 50.8194 7.20755ZM56.0827 41.3255V34.6706H51.9472V41.3255H56.0827ZM87.5684 45.3559L85.8766 46.2932C84.7487 46.8556 84.6548 46.9493 83.2449 46.1995C82.2111 45.6371 80.7073 44.6998 78.4516 42.4503C76.7598 40.7631 74.5042 37.2013 73.6583 33.9208H72.4364C71.8725 34.6706 71.3086 35.3267 70.6507 35.9828V42.2628C72.2485 41.513 73.6583 40.8568 74.9741 40.2007C75.538 39.9195 75.914 40.5756 75.538 40.9506C73.4703 42.544 69.5228 45.4496 66.6092 47.2305C65.7633 47.7929 65.3874 47.418 63.0377 45.1684C64.7295 44.6061 66.1393 44.0437 67.4551 43.575V38.701C65.1994 40.2007 62.3798 41.513 60.5941 42.0753C59.8422 42.2628 59.5602 41.6067 60.2181 41.2318C62.2858 40.107 64.8235 38.1387 66.7032 36.4515C67.4551 35.7954 68.207 34.8581 68.8649 34.0145H62.2858C61.6279 34.0145 61.5339 33.6396 60.782 31.9524H67.7371V29.8904H64.7295C64.0716 29.8904 63.8836 29.6092 63.2257 27.922H67.7371V25.7662H63.2257C62.5678 25.7662 62.3798 25.485 61.7219 23.7979H67.7371V21.5483L70.3687 22.017C70.8386 22.1107 71.0266 22.2982 71.0266 22.4856V23.8916H75.632V21.7358C75.444 21.7358 75.256 21.7358 74.9741 21.7358V13.8624L77.2298 14.3311C77.6057 14.4248 77.8877 14.6123 77.8877 14.706H79.8614C80.5193 14.706 80.8013 14.5185 81.2712 13.8624L83.5269 14.5185C85.1247 14.9872 84.1848 15.8308 84.1848 16.6743V20.0486C84.1848 21.6421 82.869 22.1107 81.2712 21.8295V20.7048H77.6997C77.4177 21.3609 76.6658 21.7358 75.632 21.7358L78.2636 22.2044C78.7336 22.2982 78.9215 22.4856 78.9215 22.7668V23.8916H81.8351C82.587 23.8916 82.963 23.6104 83.7149 22.7668C84.5608 23.6104 85.1247 23.9853 85.1247 24.6414C85.1247 25.485 84.3728 25.7662 82.963 25.7662H78.8276V27.922H80.8013C81.6472 27.922 82.0231 27.5471 82.681 26.7972C83.6209 27.6408 84.0908 28.0157 84.0908 28.5781C84.0908 29.4217 83.4329 29.7966 82.0231 29.7966H78.8276V31.8587H83.9968C84.8427 31.8587 85.1247 31.4838 85.8766 30.6402C86.7225 31.5775 87.3804 32.0462 87.3804 32.6085C87.3804 33.5459 86.5345 33.827 85.2187 33.827H75.538C76.1959 35.4205 77.1358 36.9202 78.1696 38.2324C79.6734 37.0139 81.3652 35.5142 82.3051 34.2957L83.9968 35.7017C84.7487 36.3578 84.7487 36.639 84.1848 36.9202C83.4329 37.3888 81.0832 38.4198 79.1095 39.1697C79.2975 39.2634 79.3915 39.4509 79.5794 39.6383C82.0231 41.8879 84.3728 43.2938 87.3804 44.5123C87.8503 44.8873 87.8503 45.1684 87.5684 45.3559ZM60.5941 10.7693H73.1883C73.0943 10.6756 72.9064 10.4881 72.8124 10.3007C71.8725 9.17589 71.2146 8.05112 70.5567 7.02009C70.2747 6.64516 70.5567 6.08278 71.1206 6.27024C73.0943 6.83262 74.3162 7.20755 75.35 8.14485C76.1959 8.8947 76.0079 10.1132 75.444 10.6756H83.8089C84.5608 10.6756 84.9367 10.3007 85.6886 9.55081C86.6285 10.3944 87.1924 10.863 87.1924 11.4254C87.1924 12.3627 86.4405 12.8314 85.0307 12.8314H62.2858C61.6279 12.9251 61.3459 12.4565 60.5941 10.7693ZM69.8048 21.8295V20.7985H66.2333C66.0453 22.017 64.9175 22.6731 63.3197 22.3919V13.8624L65.5754 14.3311C66.0453 14.4248 66.1393 14.6123 66.1393 14.706H68.301C68.9589 14.706 69.2409 14.4248 69.7108 13.8624L71.8725 14.5185C73.4703 14.9872 72.5304 16.0182 72.5304 16.7681V19.9549C72.6244 21.6421 71.4026 22.017 69.8048 21.8295ZM69.8048 19.0176V16.5806H66.2333V19.0176H69.8048ZM71.0266 27.922H75.632V25.7662H71.0266V27.922ZM71.0266 31.8587H75.632V29.7966H71.0266V31.8587ZM77.7937 16.5806V18.9239H81.1772V16.5806H77.7937Z" fill="#39401D"/>
<path d="M47.6238 98.7824C50.2555 95.0331 52.5112 91.3777 54.2969 86.4099C54.4849 85.7538 55.3308 85.8475 55.3308 86.5037C54.8608 91.7526 53.0751 98.22 51.4773 100.47C49.1276 103.844 45.7441 101.501 47.6238 98.7824ZM68.9589 110.311C59.6542 110.124 59.2782 109.374 59.2782 101.594V80.3174L62.3798 81.0673C62.9437 81.161 63.1317 81.4422 63.1317 82.0983V103.469C63.1317 106.281 63.5076 106.656 66.8912 106.843C70.4627 107.031 73.4703 106.843 74.9741 106.375C75.9139 106.093 76.2899 105.062 76.4779 104.031L77.0418 101.126C77.1358 100.751 77.6997 100.751 77.7937 101.126C78.2636 103.75 78.4516 105.344 79.4855 106.281C80.8013 107.499 80.3313 108.437 79.2975 108.999C77.4177 109.936 72.5304 110.405 68.9589 110.311ZM69.6168 81.4422C67.0792 78.4428 65.1054 76.0996 61.6279 72.7253C61.064 72.2566 61.4399 71.6005 62.0978 71.7879C67.5491 74.0375 70.2747 76.0058 71.8725 77.7867C74.5041 80.6924 72.1545 84.3479 69.6168 81.4422ZM84.1848 98.4075C82.0231 93.8147 80.1434 89.1281 78.4516 86.035C78.2636 85.6601 78.6396 84.9102 79.2035 85.3789C83.2449 88.7532 86.5345 93.2523 87.4744 95.5018C89.0721 99.626 85.5946 101.594 84.1848 98.4075Z" fill="#39401D"/>
<path d="M86.7225 160.551C86.7225 161.582 85.7826 162.051 84.3728 162.051H49.0336C48.3757 162.051 48.1878 161.582 47.3419 159.801H53.921V152.303L56.6466 152.865C57.0225 152.959 57.3045 153.052 57.3985 153.334H74.5981C75.444 153.334 75.914 153.052 76.4779 152.303L79.6734 153.334C81.2712 153.802 79.9554 155.114 79.9554 155.864V159.801H83.151C83.9029 159.801 84.2788 159.426 85.1247 158.489C86.0646 159.426 86.7225 159.895 86.7225 160.551ZM48.4697 144.054C49.6915 142.836 51.2893 141.242 52.1352 139.087C52.3232 138.524 53.0751 138.712 53.0751 139.087V140.024H66.7972L66.5152 139.743C65.5754 138.618 64.5415 137.399 63.8836 136.462C63.5077 135.993 63.7896 135.618 64.3535 135.712C66.0453 135.993 67.925 136.368 68.9589 137.306C69.8988 138.149 69.7108 139.368 68.9589 140.024H80.3313C81.1772 140.024 81.5532 139.93 82.2111 139.18L84.1848 140.961C85.0307 141.805 85.0307 141.992 84.3728 142.461C83.057 143.492 81.3652 144.71 80.3313 145.46C81.2712 145.929 82.0231 146.585 82.681 147.335C84.3728 149.397 82.1171 152.303 80.0494 149.584L76.4779 144.804C76.1959 144.429 76.3839 143.961 77.0418 144.242C77.8877 144.523 78.6396 144.804 79.2975 145.085C79.7674 144.335 80.3313 143.492 80.8953 142.367H52.6991C52.6051 143.211 52.3232 144.054 52.0412 144.71C50.3495 148.835 46.214 146.304 48.4697 144.054ZM56.6466 144.804C56.2706 147.991 55.5187 150.053 54.2969 151.272C51.8532 153.709 49.0336 151.178 51.2893 149.397C53.1691 147.897 54.5789 146.679 55.8007 144.617C55.9887 144.148 56.7406 144.242 56.6466 144.804ZM82.587 165.331C82.587 166.362 81.6472 166.831 80.2374 166.831H69.5228V174.142C69.5228 176.485 67.2671 177.704 65.4814 176.391C64.2595 175.36 62.0978 174.61 60.97 174.142C60.5001 173.954 60.5001 173.392 61.064 173.486C62.0978 173.579 65.2934 173.673 65.5754 173.486C65.7633 173.392 65.7633 173.298 65.7633 173.111V166.925H52.6991C52.0412 166.925 51.7593 166.456 51.0074 164.581H78.7336C79.4855 164.581 79.9554 164.206 80.8013 163.269C81.9291 164.206 82.587 164.675 82.587 165.331ZM57.3045 159.801H61.4399V155.677H57.3045V159.801ZM62.7557 144.335V147.429C62.7557 148.928 62.9437 149.209 64.2596 149.303C64.7295 149.303 69.8048 149.678 72.4364 149.303C73.4703 149.116 73.9402 148.741 74.1282 148.178L74.5041 146.491C74.5041 146.21 75.0681 146.116 75.1621 146.491C75.538 147.897 75.82 148.46 76.2899 148.928C77.4177 149.959 76.9478 151.084 75.82 151.459C72.2485 152.584 64.4475 152.115 62.6618 151.928C59.2782 151.646 59.2782 150.428 59.2782 146.866V143.304L62.0039 143.961C62.4738 143.867 62.7557 144.054 62.7557 144.335ZM68.9589 155.677H64.7295V159.895H68.9589V155.677ZM68.113 147.241C67.0792 146.116 65.9513 144.523 65.1054 143.679C64.6355 143.211 65.0114 142.648 65.5754 142.836C67.6431 143.398 69.0529 143.773 70.3687 144.898C71.8725 146.304 70.1807 149.491 68.113 147.241ZM72.2485 155.677V159.895H76.4779V155.677H72.2485Z" fill="#39401D"/>
<path d="M64.1656 217.82H48.2817C47.7178 217.82 47.5298 217.258 46.7779 215.571H54.7668V212.946H49.9735C49.3156 212.946 49.2216 212.571 48.4697 210.79H54.8608V208.072H48.9396C48.3757 208.072 48.1877 207.604 47.4359 205.916H54.8608V201.23L57.5865 201.792C58.0564 201.886 58.3384 202.167 58.3384 202.542V205.916H61.9099C62.7558 205.916 63.1317 205.542 63.8836 204.698C64.8235 205.635 65.3874 206.104 65.3874 206.666C65.3874 207.604 64.5415 208.072 63.2257 208.072H58.3384V210.79H61.064C61.8159 210.79 62.1918 210.416 62.9437 209.572C63.9776 210.509 64.5415 210.978 64.5415 211.634C64.5415 212.571 63.6956 213.04 62.2858 213.04H58.3384V215.664H63.0377C63.7896 215.664 64.1656 215.29 64.9175 214.446C65.8573 215.29 66.5152 215.946 66.5152 216.508C66.4212 217.445 65.6694 217.82 64.1656 217.82ZM63.6016 222.788V239.003C63.6016 240.691 62.0978 242.378 60.2181 241.253C58.8083 240.316 56.3646 239.097 55.3308 238.816C54.7668 238.628 54.8608 238.16 55.4248 238.16C56.7406 238.16 59.6542 238.347 59.9361 238.16C60.1241 238.066 60.1241 237.879 60.1241 237.597V233.286H53.451C53.357 234.036 53.1691 234.692 52.9811 235.442C52.4172 237.597 50.8194 240.316 48.6577 241.722C48.0938 242.096 47.6238 241.628 47.9998 241.065C48.6577 240.034 49.5976 237.785 49.8795 235.723C50.1615 233.942 50.2555 232.161 50.2555 229.443C50.2555 227.006 50.2555 222.507 50.2555 219.32L52.9811 219.882C53.451 219.976 53.733 220.257 53.733 220.445H58.0564C58.9963 220.445 59.3722 220.164 60.0301 219.414L62.8497 220.351C64.8235 220.82 63.6016 222.038 63.6016 222.788ZM60.1241 230.943V227.943H53.827C53.827 229.068 53.827 230.005 53.733 230.943H60.1241ZM53.827 222.601V225.694H60.1241V222.601H53.827ZM87.7563 222.226C87.7563 223.257 86.9104 223.632 85.5946 223.632H83.7149V229.818C83.7149 231.599 82.0231 232.161 80.3313 231.786V229.912H76.4779V239.003C76.4779 241.159 74.4102 242.378 72.9064 241.253C71.7785 240.409 69.1469 239.378 67.925 238.91C67.4551 238.722 67.5491 238.254 68.019 238.254C69.1469 238.254 72.5304 238.441 72.8124 238.254C73.0004 238.16 73.0004 238.066 73.0004 237.879V229.818H67.8311C67.1731 229.818 66.9852 229.068 66.3273 227.568H73.0004V223.538H66.7972C66.1393 223.538 65.9513 223.069 65.1054 221.288H73.0004V217.352H68.489C67.7371 217.352 67.4551 216.695 66.9852 215.102H78.3576C79.2975 215.102 79.7674 214.727 80.3313 213.977L83.151 214.915C84.8427 215.477 83.7149 216.789 83.7149 217.539V221.195H84.3728C85.1247 221.195 85.5006 220.82 86.2525 220.07C87.0984 221.007 87.7563 221.57 87.7563 222.226ZM66.5152 205.635C73.0943 204.323 77.4177 203.198 81.5532 201.23L82.681 202.636C83.6209 203.761 83.7149 204.136 82.2111 204.511C78.7336 205.448 70.6507 206.573 66.4212 206.479C66.0453 206.573 65.7633 205.823 66.5152 205.635ZM71.7785 211.072C73.0943 213.415 70.4627 216.321 69.3348 212.946C68.9589 211.822 67.925 209.197 67.5491 208.26C67.4551 207.885 67.6431 207.322 68.207 207.697C69.3349 208.447 70.9326 209.572 71.7785 211.072ZM77.3238 211.259C77.8877 213.696 75.162 215.477 74.5041 212.29C74.3162 211.165 73.6583 208.635 73.1883 207.135C73.0943 206.76 73.4703 206.385 74.0342 206.76C75.162 207.697 76.9478 209.478 77.3238 211.259ZM76.4779 221.382H80.3313V217.445H76.4779V221.382ZM80.3313 223.632H76.4779V227.662H80.3313V223.632ZM83.057 206.666C84.1848 207.322 84.1848 207.604 83.8089 208.26C82.493 210.228 80.8013 212.478 79.1095 214.165C78.7336 214.54 77.9817 214.352 78.3576 213.602C79.2035 211.915 80.4253 207.885 80.9893 205.448L83.057 206.666Z" fill="#39401D"/>
<path d="M62.0978 286.337C62.0978 283.151 64.6355 280.62 67.8311 280.62C71.0266 280.62 73.5643 283.151 73.5643 286.337C73.5643 289.524 71.0266 292.055 67.8311 292.055C64.6355 292.055 62.0978 289.524 62.0978 286.337ZM71.4026 286.337C71.4026 284.369 69.8048 282.869 67.925 282.869C65.9513 282.869 64.4475 284.463 64.4475 286.337C64.4475 288.306 66.0453 289.805 67.925 289.805C69.8048 289.805 71.4026 288.306 71.4026 286.337Z" fill="#39401D"/>
</svg>
