<svg width="1076" height="432" viewBox="0 0 1076 432" fill="none" xmlns="http://www.w3.org/2000/svg">
<g clip-path="url(#clip0_6487_22)">
<path d="M365.472 357.31C368.416 356.819 368.416 356.623 368.416 347.402V324.546C368.416 315.914 368.318 315.816 366.159 315.129C364.589 314.639 364.294 314.247 364.393 312.481C369.201 313.266 376.365 312.481 382.547 312.481C392.459 312.481 399.72 319.151 399.72 325.625C399.72 337.887 387.65 341.713 377.444 340.045C376.855 339.947 376.561 339.064 377.542 339.064C387.356 338.574 392.851 334.356 392.459 326.018C392.164 319.053 386.767 314.05 375.089 316.307V345.833C375.089 356.917 375.089 356.917 381.468 357.31C380.977 359.075 380.585 359.468 379.603 359.468H364C364.294 358.192 364.491 357.408 365.472 357.31Z" fill="white" fill-opacity="0.8"/>
<path d="M460.661 312.481C460.269 314.149 460.072 314.541 459.189 314.639C456.147 314.835 455.755 314.737 455.755 323.271V355.053C455.755 355.642 455.853 356.132 456.834 356.231C458.404 356.329 461.937 356.525 464.587 356.329C475.185 355.838 475.872 353.876 478.816 347.795C479.208 347.108 480.484 347.402 480.19 348.285L476.951 359.075C476.853 359.468 476.559 359.762 475.676 359.762C473.615 359.664 469.984 359.468 464.783 359.468H446.432C445.647 359.468 445.352 358.879 446.236 358.487C448.689 357.408 449.18 356.819 449.18 349.168V324.645C449.18 314.737 449.081 314.835 445.451 314.541C444.567 314.443 444.469 313.658 444.764 312.383H460.661V312.481Z" fill="white" fill-opacity="0.8"/>
<path d="M566.841 357.31C566.253 358.977 566.253 359.468 565.271 359.468H550.846C551.14 357.898 551.14 357.408 552.121 357.31C556.341 357.015 555.556 355.544 553.495 349.854L551.434 344.165H534.457L531.023 353.288C529.747 356.819 530.139 356.917 535.046 357.31C534.457 358.977 534.457 359.468 533.476 359.468H521.308C521.602 357.8 521.602 357.506 522.583 357.31C524.84 357.015 525.527 356.132 527.981 349.953L543.289 312.089C543.682 311.304 544.467 311.304 544.859 312.089L560.953 350.051C563.309 355.642 563.799 357.211 566.841 357.31ZM542.701 323.173L535.537 341.222H550.061L543.093 323.173C543.093 323.075 542.799 323.075 542.701 323.173Z" fill="white" fill-opacity="0.8"/>
<path d="M620.716 312.481L648.488 346.814V324.645C648.488 315.718 648.194 314.737 644.268 314.541C642.895 314.443 642.796 314.05 643.189 312.383H657.615C657.124 314.247 657.124 314.345 656.241 314.541C652.315 315.129 652.119 315.816 652.119 323.173V359.271C652.119 360.35 650.156 360.056 649.862 359.566L619.048 320.819V346.127C619.048 356.034 618.95 356.623 624.642 357.31C624.053 358.879 624.053 359.468 623.072 359.468H609.922C610.216 358.094 610.314 357.506 611.198 357.31C615.123 356.623 615.221 356.132 615.221 348.285V318.465C615.221 315.816 613.16 314.933 610.314 314.639C609.235 314.541 609.333 313.854 609.529 312.481H620.716Z" fill="white" fill-opacity="0.8"/>
<path d="M702.265 312.873C702.265 312.187 702.658 311.99 703.345 312.089C705.602 312.285 711.49 312.481 717.28 312.481H728.565C735.14 312.481 739.85 312.285 742.205 312.089C742.892 311.99 743.481 312.089 743.481 312.775C743.089 316.208 742.892 319.936 742.598 323.369C742.5 324.35 741.322 324.252 741.224 323.467C740.243 318.17 738.378 315.424 734.943 315.424H725.817V345.833C725.817 356.819 725.915 356.819 732.392 357.31C731.901 358.879 731.607 359.468 730.626 359.468H712.863C713.158 358.094 713.354 357.506 714.237 357.31C718.948 356.623 719.144 356.623 719.144 347.304V315.522H709.527C706.779 315.522 704.718 318.465 703.246 323.565C702.854 324.743 701.873 324.35 701.873 323.565C701.774 320.034 702.265 316.307 702.265 312.873Z" fill="white" fill-opacity="0.8"/>
<path d="M789.898 314.639C788.819 314.541 788.917 313.854 789.113 312.481H804.52C804.127 314.05 803.931 314.541 803.048 314.639C800.3 314.835 800.104 314.835 800.104 323.271V345.833C800.104 356.917 800.202 356.917 805.011 357.31C804.52 358.977 804.324 359.468 803.342 359.468H788.72C789.015 358.192 789.113 357.506 789.996 357.31C793.431 356.623 793.431 356.623 793.431 347.304V324.743C793.529 314.933 793.529 315.031 789.898 314.639Z" fill="white" fill-opacity="0.8"/>
<path d="M925.224 368.296C921.495 371.729 913.644 375.457 904.91 372.318C897.943 369.866 893.527 363.195 888.031 357.702C884.793 359.173 880.868 360.056 876.452 360.056C861.339 360.056 851.722 349.56 851.722 336.612C851.722 321.211 862.517 311.5 876.157 311.5C890.583 311.5 901.476 321.8 901.476 335.533C901.476 342.988 898.531 350.051 892.938 354.563C898.531 359.37 903.536 364.863 908.541 366.727C916.588 369.571 920.415 368.688 924.635 367.315C925.42 367.217 925.911 367.707 925.224 368.296ZM858.984 335.337C858.984 341.026 860.554 346.029 863.204 349.854C871.545 345.44 878.61 346.225 884.4 348.972C886.167 349.854 887.835 350.835 889.503 352.013C892.447 348.579 893.919 343.577 893.919 337.102C893.919 326.704 887.639 314.541 875.667 314.541C865.559 314.541 858.984 322.585 858.984 335.337ZM876.648 356.917C880.083 356.917 882.928 356.329 885.382 355.152C884.106 354.171 882.928 353.19 881.456 352.405C877.04 349.953 871.545 348.972 863.989 350.639C867.031 354.563 871.447 356.917 876.648 356.917Z" fill="white" fill-opacity="0.8"/>
<path d="M981.062 314.639C979.688 314.541 979.688 314.05 979.884 312.481H994.898C994.506 314.05 994.211 314.639 993.328 314.639C989.599 314.639 989.108 315.914 989.108 322.879V339.26C989.108 350.639 984.987 360.154 970.365 360.154C959.08 360.154 950.738 355.25 950.738 341.026V324.645C950.738 315.326 950.64 314.933 947.402 314.639C946.322 314.541 946.224 313.952 946.421 312.481H961.926C961.729 314.05 961.239 314.247 960.65 314.443C957.706 315.129 957.411 315.522 957.411 322.879V340.928C957.411 350.639 961.827 356.329 971.15 356.329C981.454 356.329 985.379 349.756 985.379 339.947V324.645C985.379 315.522 984.692 314.835 981.062 314.639Z" fill="white" fill-opacity="0.8"/>
<path d="M1071.74 359.762C1069.68 359.664 1065.95 359.468 1061.33 359.468H1041.32C1040.53 359.468 1040.24 358.781 1041.12 358.389C1043.47 357.506 1043.57 356.819 1043.57 349.462V324.645C1043.57 316.012 1043.77 315.326 1041.71 314.933C1040.63 314.737 1040.43 314.345 1039.94 312.481H1060.45C1064.57 312.481 1069.48 312.481 1071.83 312.089C1072.23 311.99 1072.62 312.187 1072.62 312.775L1073.01 321.8C1073.01 322.683 1072.03 323.075 1071.64 321.996C1069.87 317.386 1069.09 315.424 1062.71 315.424H1050.15V333.473H1055.05C1063.98 333.473 1064.38 332.1 1065.65 330.236C1066.04 329.647 1066.83 329.843 1066.63 330.53C1066.04 332.59 1066.54 337.397 1066.73 340.045C1066.83 340.732 1066.24 341.222 1065.75 340.536C1063.49 337.495 1060.75 336.416 1054.96 336.416H1050.15V354.661C1050.15 355.74 1050.44 356.132 1051.23 356.231C1054.17 356.427 1057.41 356.525 1061.14 356.329C1070.76 356.034 1071.93 353.386 1074.58 347.893C1074.98 347.206 1076.25 347.5 1075.96 348.383L1072.91 358.879C1072.82 359.468 1072.62 359.86 1071.74 359.762Z" fill="white" fill-opacity="0.8"/>
<path d="M833.159 383.919C832.764 385.596 832.566 385.991 831.677 386.09C828.613 386.287 828.218 386.189 828.218 394.773V426.745C828.218 427.337 828.317 427.83 829.305 427.929C830.886 428.028 834.443 428.225 837.112 428.028C847.784 427.534 848.476 425.561 851.44 419.443C851.836 418.752 853.12 419.048 852.824 419.936L849.563 430.791C849.464 431.185 849.167 431.481 848.278 431.481C846.203 431.383 842.547 431.185 837.309 431.185H818.83C818.04 431.185 817.743 430.593 818.633 430.199C821.103 429.113 821.597 428.521 821.597 420.824V396.254C821.597 386.287 821.498 386.386 817.842 386.09C816.953 385.991 816.854 385.202 817.15 383.919H833.159Z" fill="white" fill-opacity="0.8"/>
<path d="M899.071 386.09C897.984 385.991 898.083 385.3 898.28 383.919H913.795C913.399 385.498 913.202 385.991 912.312 386.09C909.546 386.287 909.348 386.287 909.348 394.773V417.469C909.348 428.62 909.447 428.62 914.289 429.014C913.795 430.692 913.597 431.185 912.609 431.185H897.885C898.181 429.902 898.28 429.212 899.17 429.014C902.628 428.324 902.628 428.324 902.628 418.949V396.254C902.628 386.386 902.727 386.485 899.071 386.09Z" fill="white" fill-opacity="0.8"/>
<path d="M963.006 429.014C966.267 428.324 966.267 428.225 966.267 419.344V395.464C966.267 387.077 966.169 386.781 963.995 386.386C963.006 386.189 962.71 385.695 962.315 383.919H981.98C986.13 383.919 990.478 383.82 992.85 383.524C993.344 383.426 993.64 383.722 993.64 384.215L994.134 393.096C994.233 393.984 993.146 394.477 992.751 393.392C990.972 388.853 990.083 386.879 984.351 386.879H972.987V405.628H976.347C985.142 405.628 985.932 404.049 986.921 402.372C987.316 401.78 988.008 402.076 987.909 402.766C987.513 405.036 987.711 409.674 988.007 412.338C988.106 412.93 987.415 413.423 987.019 412.831C984.845 409.674 982.078 408.687 975.853 408.687H972.987V417.173C973.086 428.62 972.987 428.62 978.817 429.014C978.422 430.593 978.027 431.185 977.137 431.185H961.821C962.117 430.001 962.117 429.212 963.006 429.014Z" fill="white" fill-opacity="0.8"/>
<path d="M1071.41 431.481C1069.34 431.383 1065.58 431.185 1060.94 431.185H1040.78C1039.99 431.185 1039.69 430.495 1040.58 430.1C1042.95 429.212 1043.05 428.521 1043.05 421.12V396.155C1043.05 387.471 1043.25 386.781 1041.17 386.386C1040.08 386.189 1039.89 385.794 1039.39 383.919H1060.05C1064.2 383.919 1069.14 383.919 1071.51 383.524C1071.9 383.426 1072.3 383.623 1072.3 384.215L1072.69 393.293C1072.69 394.181 1071.71 394.576 1071.31 393.491C1069.53 388.853 1068.74 386.879 1062.32 386.879H1049.87V405.036H1054.81C1063.8 405.036 1064.2 403.654 1065.48 401.779C1065.88 401.187 1066.67 401.385 1066.47 402.076C1065.88 404.148 1066.37 408.983 1066.57 411.647C1066.67 412.338 1066.07 412.831 1065.58 412.141C1063.31 409.082 1060.54 407.996 1054.71 407.996H1049.97V426.449C1049.97 427.534 1050.26 427.929 1051.05 428.028C1054.02 428.225 1057.28 428.324 1061.03 428.126C1070.72 427.83 1071.9 425.166 1074.57 419.64C1074.97 418.949 1076.25 419.245 1075.96 420.133L1072.89 430.692C1072.4 431.284 1072.3 431.58 1071.41 431.481Z" fill="white" fill-opacity="0.8"/>
</g>
<defs>
<clipPath id="clip0_6487_22">
<rect width="1076" height="431" fill="white" transform="translate(0 0.5)"/>
</clipPath>
</defs>
</svg>
