<svg width="262" height="28" viewBox="0 0 262 28" fill="none" xmlns="http://www.w3.org/2000/svg">
<path d="M0.626268 20.6894C1.91409 20.4772 1.88762 20.3623 1.88762 16.2063V5.90467C1.88762 1.98741 1.86116 1.96088 0.92617 1.66023C0.26462 1.44801 0.114669 1.27116 0.141131 0.457644C2.21399 0.82019 5.31005 0.457644 7.98271 0.457644C12.2519 0.457644 15.4009 3.47296 15.4009 6.39101C15.4009 11.9353 10.2055 13.6508 5.7599 12.8991C5.48646 12.8372 5.39825 12.4747 5.82164 12.4482C10.0556 12.2359 12.4283 10.3083 12.2784 6.54133C12.1549 3.41106 9.81741 1.12084 4.77199 2.1731V15.5077C4.77199 20.5037 4.77198 20.5037 7.53286 20.6894C7.32116 21.4764 7.14475 21.6533 6.72135 21.6533H0C0.114669 21.0785 0.202876 20.7513 0.626268 20.6894Z" fill="white"/>
<path d="M26.1973 0.448809C26.0474 1.20043 25.9592 1.38612 25.5623 1.41265C24.2392 1.50107 24.0892 1.47455 24.0892 5.32991V19.6991C24.0892 19.9732 24.1157 20.1766 24.5391 20.2119C25.2271 20.2738 26.7354 20.3357 27.8733 20.2738C32.4424 20.0351 32.7688 19.1597 34.0301 16.4185C34.1801 16.0913 34.7534 16.2416 34.6299 16.6307L33.2186 21.5118C33.1569 21.6887 33.0687 21.8478 32.6805 21.8125C31.8073 21.7506 30.2196 21.6621 27.9615 21.6621H20.0317C19.67 21.6621 19.5554 21.388 19.9435 21.2112C21.0284 20.7337 21.2048 20.4595 21.2048 16.9933V5.96657C21.2048 1.48339 21.1431 1.53644 19.5818 1.42149C19.1937 1.39496 19.1584 1.03242 19.2819 0.457651H26.1973V0.448809Z" fill="white"/>
<path d="M56.4523 20.6894C56.2141 21.441 56.1788 21.6532 55.7907 21.6532H49.5457C49.6692 20.9635 49.6692 20.7159 50.0838 20.6894C51.9185 20.5656 51.5833 19.9024 50.6836 17.3204L49.7839 14.756H42.4274L40.9544 18.8855C40.381 20.486 40.5927 20.5391 42.7009 20.6894C42.4627 21.441 42.4274 21.6532 42.0393 21.6532H36.7822C36.9057 20.9016 36.9057 20.7513 37.3202 20.6894C38.3082 20.5391 38.5816 20.15 39.6665 17.3469L46.3085 0.271909C46.4585 -0.0906363 46.8201 -0.0906363 46.9701 0.271909L53.9119 17.4088C54.9175 19.9378 55.1292 20.6629 56.4523 20.6894ZM46.0262 5.30333L42.9302 13.4385H49.2105L46.2027 5.30333C46.1762 5.24143 46.0527 5.24143 46.0262 5.30333Z" fill="white"/>
<path d="M64.1439 0.448809L76.1312 15.9587V5.96657C76.1312 1.93436 76.0077 1.50992 74.2965 1.42149C73.6967 1.39496 73.6702 1.18274 73.8202 0.457651H80.1005C79.8888 1.2977 79.8888 1.35959 79.5007 1.42149C77.8159 1.69561 77.7277 1.99626 77.7277 5.30338V21.6002C77.7277 22.0777 76.8898 21.9628 76.7398 21.7506L63.4206 4.25111V15.6669C63.4206 20.15 63.3589 20.4242 65.8551 20.6983C65.617 21.4234 65.5817 21.6621 65.1936 21.6621H59.513C59.6365 21.0255 59.663 20.7867 60.0864 20.6983C61.7711 20.3711 61.8329 20.1589 61.8329 16.6307V3.16348C61.8329 1.96089 60.9332 1.57181 59.7336 1.41265C59.2837 1.35075 59.3102 1.0501 59.3984 0.448809H64.1439Z" fill="white"/>
<path d="M83.7611 0.634469C83.7611 0.333821 83.9375 0.245396 84.2374 0.271923C85.2253 0.360349 87.7481 0.448775 90.2443 0.448775H95.1398C97.9977 0.448775 100.009 0.360349 101.032 0.271923C101.332 0.245396 101.605 0.271924 101.57 0.572571C101.42 2.11118 101.297 3.79127 101.182 5.36524C101.155 5.78969 100.644 5.75432 100.582 5.42714C100.159 3.04849 99.3472 1.81053 97.8742 1.81053H93.9049V15.5165C93.9049 20.4595 93.9666 20.4595 96.7275 20.6983C96.5158 21.4233 96.3659 21.6621 95.9425 21.6621H88.2508C88.3743 21.0608 88.4625 20.7602 88.8506 20.6983C90.897 20.3976 90.9852 20.3711 90.9852 16.1797V1.81053H86.8395C85.6664 1.81053 84.7667 3.13692 84.1404 5.42714C83.9905 5.96654 83.5406 5.78969 83.5406 5.42714C83.5494 3.85316 83.7611 2.17308 83.7611 0.634469Z" fill="white"/>
<path d="M106.051 1.41265C105.575 1.35075 105.628 1.0501 105.725 0.448809H112.367C112.217 1.13853 112.128 1.38612 111.731 1.41265C110.558 1.50107 110.47 1.50107 110.47 5.32991V15.5077C110.47 20.5037 110.532 20.5037 112.569 20.6894C112.358 21.4411 112.27 21.6533 111.846 21.6533H105.539C105.663 21.0785 105.716 20.7779 106.113 20.6894C107.586 20.3888 107.586 20.3888 107.586 16.1709V5.96657C107.586 1.57182 107.621 1.59834 106.051 1.41265Z" fill="white"/>
<path d="M148.928 25.659C147.305 27.2241 143.909 28.8777 140.16 27.4629C137.153 26.3487 135.23 23.3334 132.857 20.8663C131.446 21.5295 129.761 21.9186 127.838 21.9186C121.293 21.9186 117.147 17.1878 117.147 11.3517C117.147 4.39262 121.831 0.0243891 127.723 0.0243891C133.968 0.0243891 138.661 4.66674 138.661 10.8919C138.661 14.2609 137.4 17.4266 134.965 19.5046C137.4 21.671 139.534 24.1734 141.722 24.987C145.206 26.2514 146.855 25.8624 148.69 25.2611C148.981 25.1815 149.193 25.3849 148.928 25.659ZM120.296 10.7504C120.296 13.3059 120.958 15.5961 122.131 17.3116C125.739 15.322 128.773 15.6846 131.296 16.9225C132.045 17.3116 132.795 17.7626 133.492 18.3108C134.78 16.7722 135.415 14.5174 135.415 11.5639C135.415 6.86854 132.716 1.38614 127.547 1.38614C123.119 1.38614 120.296 5.00275 120.296 10.7504ZM127.926 20.5126C129.399 20.5126 130.66 20.2385 131.684 19.7256C131.146 19.2747 130.599 18.8502 129.999 18.4877C128.102 17.3735 125.703 16.9491 122.431 17.7007C123.754 19.4515 125.677 20.5126 127.926 20.5126Z" fill="white"/>
<path d="M157.431 1.41265C156.832 1.38612 156.832 1.13853 156.92 0.448809H163.412C163.262 1.1739 163.112 1.41265 162.75 1.41265C161.127 1.41265 160.916 1.98741 160.916 5.11768V12.5012C160.916 17.6476 159.143 21.9274 152.801 21.9274C147.932 21.9274 144.333 19.7256 144.333 13.2882V5.94004C144.333 1.75751 144.306 1.57181 142.895 1.42149C142.419 1.35959 142.383 1.09432 142.472 0.457651H149.175C149.087 1.18274 148.875 1.27117 148.637 1.33307C147.349 1.63371 147.226 1.81056 147.226 5.12653V13.2882C147.226 17.6564 149.122 20.2473 153.145 20.2473C157.617 20.2473 159.337 17.2939 159.337 12.8726V5.97541C159.328 1.81056 159.019 1.50992 157.431 1.41265Z" fill="white"/>
<path d="M181.018 21.8036C180.145 21.7417 178.495 21.6532 176.51 21.6532H167.857C167.496 21.6532 167.381 21.3261 167.769 21.1757C168.792 20.7867 168.819 20.486 168.819 17.1435V5.93114C168.819 2.01389 168.907 1.74861 168.007 1.56292C167.557 1.47449 167.434 1.2888 167.222 0.448753H176.087C177.886 0.448753 179.995 0.448753 181.018 0.271901C181.194 0.245374 181.344 0.298429 181.344 0.607919L181.494 4.70203C181.494 5.0911 181.071 5.27679 180.894 4.79045C180.109 2.71245 179.783 1.81051 177.048 1.81051H171.703V9.9722H173.802C177.648 9.9722 177.825 9.33553 178.372 8.53086C178.548 8.25674 178.883 8.35401 178.795 8.68118C178.557 9.6185 178.733 11.7849 178.857 12.9875C178.883 13.3147 178.645 13.5004 178.433 13.1997C177.472 11.8115 176.272 11.334 173.75 11.334H171.703V19.5575C171.703 20.035 171.827 20.2207 172.179 20.2473C173.467 20.3357 174.852 20.3711 176.449 20.3092C180.621 20.1588 181.106 18.9828 182.244 16.4803C182.394 16.1532 182.967 16.3035 182.844 16.6925L181.521 21.4498C181.468 21.6886 181.406 21.8389 181.018 21.8036Z" fill="white"/>
<path d="M204.719 0.448809C204.569 1.20043 204.481 1.38612 204.084 1.41265C202.761 1.50107 202.611 1.47455 202.611 5.32991V19.6991C202.611 19.9732 202.637 20.1766 203.061 20.2119C203.749 20.2738 205.257 20.3357 206.395 20.2738C210.964 20.0351 211.29 19.1597 212.552 16.4185C212.702 16.0913 213.275 16.2416 213.152 16.6307L211.74 21.5118C211.678 21.6887 211.59 21.8478 211.202 21.8125C210.329 21.7506 208.741 21.6621 206.483 21.6621H198.553C198.192 21.6621 198.077 21.388 198.465 21.2112C199.55 20.7337 199.726 20.4595 199.726 16.9933V5.96657C199.726 1.48339 199.665 1.53644 198.103 1.42149C197.715 1.39496 197.68 1.03242 197.804 0.457651H204.719V0.448809Z" fill="white"/>
<path d="M217.43 1.41265C216.953 1.35075 217.006 1.0501 217.103 0.448809H223.745C223.595 1.13853 223.507 1.38612 223.11 1.41265C221.937 1.50107 221.849 1.50107 221.849 5.32991V15.5077C221.849 20.5037 221.91 20.5037 223.948 20.6894C223.736 21.4411 223.648 21.6533 223.225 21.6533H216.918C217.041 21.0785 217.094 20.7779 217.491 20.6894C218.964 20.3888 218.964 20.3888 218.964 16.1709V5.96657C218.964 1.57182 218.991 1.59834 217.43 1.41265Z" fill="white"/>
<path d="M229.267 20.6894C230.652 20.3623 230.652 20.3269 230.652 16.3566V5.63055C230.652 1.86362 230.59 1.74867 229.69 1.56297C229.267 1.47455 229.152 1.22695 228.967 0.448809H237.408C239.208 0.448809 241.042 0.422281 242.066 0.271958C242.277 0.24543 242.392 0.360383 242.392 0.607975L242.604 4.61366C242.63 5.00273 242.18 5.21495 242.004 4.73745C241.254 2.68598 240.866 1.81941 238.396 1.81941H233.527V10.2552H234.965C238.749 10.2552 239.084 9.53013 239.499 8.77851C239.649 8.50439 239.975 8.62818 239.922 8.95536C239.746 9.9811 239.834 12.0591 239.949 13.2617C239.975 13.5358 239.711 13.7392 239.525 13.4739C238.59 12.0591 237.391 11.6081 234.745 11.6081H233.51V15.4016C233.536 20.548 233.51 20.548 236.006 20.6983C235.829 21.4234 235.68 21.6621 235.283 21.6621H228.702C228.852 21.1139 228.879 20.7779 229.267 20.6894Z" fill="white"/>
<path d="M260.157 21.8036C259.284 21.7417 257.634 21.6532 255.649 21.6532H246.996C246.635 21.6532 246.52 21.3261 246.908 21.1757C247.931 20.7867 247.958 20.486 247.958 17.1435V5.93114C247.958 2.01389 248.046 1.74861 247.146 1.56292C246.696 1.47449 246.573 1.2888 246.361 0.448753H255.226C257.026 0.448753 259.134 0.448753 260.157 0.271901C260.333 0.245374 260.483 0.298429 260.483 0.607919L260.633 4.70203C260.633 5.0911 260.21 5.27679 260.033 4.79045C259.248 2.71245 258.922 1.81051 256.188 1.81051H250.842V9.9722H252.941C256.787 9.9722 256.964 9.33553 257.511 8.53086C257.687 8.25674 258.022 8.35401 257.934 8.68118C257.696 9.6185 257.872 11.7849 257.996 12.9875C258.022 13.3147 257.784 13.5004 257.572 13.1997C256.611 11.8115 255.411 11.334 252.889 11.334H250.842V19.5575C250.842 20.035 250.966 20.2207 251.318 20.2473C252.606 20.3357 253.991 20.3711 255.588 20.3092C259.76 20.1588 260.245 18.9828 261.383 16.4803C261.533 16.1532 262.106 16.3035 261.983 16.6925L260.66 21.4498C260.607 21.6886 260.545 21.8389 260.157 21.8036Z" fill="white"/>
</svg>
