<svg width="262" height="48" viewBox="0 0 262 48" fill="none" xmlns="http://www.w3.org/2000/svg">
<g clip-path="url(#clip0_6028_3188)">
<path d="M0.626268 20.6894C1.91409 20.4772 1.88762 20.3623 1.88762 16.2063V5.90467C1.88762 1.98741 1.86116 1.96088 0.92617 1.66023C0.26462 1.44801 0.114669 1.27116 0.141131 0.457644C2.21399 0.82019 5.31005 0.457644 7.98271 0.457644C12.2519 0.457644 15.4009 3.47296 15.4009 6.39101C15.4009 11.9353 10.2055 13.6508 5.7599 12.8991C5.48646 12.8372 5.39825 12.4747 5.82164 12.4482C10.0556 12.2359 12.4283 10.3083 12.2784 6.54133C12.1549 3.41106 9.81741 1.12084 4.77199 2.1731V15.5077C4.77199 20.5037 4.77198 20.5037 7.53286 20.6894C7.32116 21.4764 7.14475 21.6533 6.72135 21.6533H0C0.114669 21.0785 0.202876 20.7513 0.626268 20.6894Z" fill="#8C9761"/>
<path d="M26.1973 0.448809C26.0474 1.20043 25.9592 1.38612 25.5623 1.41265C24.2392 1.50107 24.0892 1.47455 24.0892 5.32991V19.6991C24.0892 19.9732 24.1157 20.1766 24.5391 20.2119C25.2271 20.2738 26.7354 20.3357 27.8733 20.2738C32.4424 20.0351 32.7688 19.1597 34.0301 16.4185C34.1801 16.0913 34.7534 16.2416 34.6299 16.6307L33.2186 21.5118C33.1569 21.6887 33.0687 21.8478 32.6805 21.8125C31.8073 21.7506 30.2196 21.6621 27.9615 21.6621H20.0317C19.67 21.6621 19.5554 21.388 19.9435 21.2112C21.0284 20.7337 21.2048 20.4595 21.2048 16.9933V5.96657C21.2048 1.48339 21.1431 1.53644 19.5818 1.42149C19.1937 1.39496 19.1584 1.03242 19.2819 0.457651H26.1973V0.448809Z" fill="#8C9761"/>
<path d="M56.4523 20.6894C56.2141 21.441 56.1788 21.6532 55.7907 21.6532H49.5457C49.6692 20.9635 49.6692 20.7159 50.0838 20.6894C51.9185 20.5656 51.5833 19.9024 50.6836 17.3204L49.7839 14.756H42.4274L40.9544 18.8855C40.381 20.486 40.5927 20.5391 42.7009 20.6894C42.4627 21.441 42.4274 21.6532 42.0393 21.6532H36.7822C36.9057 20.9016 36.9057 20.7513 37.3202 20.6894C38.3082 20.5391 38.5816 20.15 39.6665 17.3469L46.3085 0.271909C46.4585 -0.0906363 46.8201 -0.0906363 46.9701 0.271909L53.9119 17.4088C54.9175 19.9378 55.1292 20.6629 56.4523 20.6894ZM46.0262 5.30333L42.9302 13.4385H49.2105L46.2027 5.30333C46.1762 5.24143 46.0527 5.24143 46.0262 5.30333Z" fill="#8C9761"/>
<path d="M64.1439 0.448809L76.1312 15.9587V5.96657C76.1312 1.93436 76.0077 1.50992 74.2965 1.42149C73.6967 1.39496 73.6702 1.18274 73.8202 0.457651H80.1005C79.8888 1.2977 79.8888 1.35959 79.5007 1.42149C77.8159 1.69561 77.7277 1.99626 77.7277 5.30338V21.6002C77.7277 22.0777 76.8898 21.9628 76.7398 21.7506L63.4206 4.25111V15.6669C63.4206 20.15 63.3589 20.4242 65.8551 20.6983C65.617 21.4234 65.5817 21.6621 65.1936 21.6621H59.513C59.6365 21.0255 59.663 20.7867 60.0864 20.6983C61.7711 20.3711 61.8329 20.1589 61.8329 16.6307V3.16348C61.8329 1.96089 60.9332 1.57181 59.7336 1.41265C59.2837 1.35075 59.3102 1.0501 59.3984 0.448809H64.1439Z" fill="#8C9761"/>
<path d="M83.7611 0.634469C83.7611 0.333821 83.9375 0.245396 84.2374 0.271923C85.2253 0.360349 87.7481 0.448775 90.2443 0.448775H95.1398C97.9977 0.448775 100.009 0.360349 101.032 0.271923C101.332 0.245396 101.605 0.271924 101.57 0.572571C101.42 2.11118 101.297 3.79127 101.182 5.36524C101.155 5.78969 100.644 5.75432 100.582 5.42714C100.159 3.04849 99.3472 1.81053 97.8742 1.81053H93.9049V15.5165C93.9049 20.4595 93.9666 20.4595 96.7275 20.6983C96.5158 21.4233 96.3659 21.6621 95.9425 21.6621H88.2508C88.3743 21.0608 88.4625 20.7602 88.8506 20.6983C90.897 20.3976 90.9852 20.3711 90.9852 16.1797V1.81053H86.8395C85.6664 1.81053 84.7667 3.13692 84.1404 5.42714C83.9905 5.96654 83.5406 5.78969 83.5406 5.42714C83.5494 3.85316 83.7611 2.17308 83.7611 0.634469Z" fill="#8C9761"/>
<path d="M106.051 1.41265C105.575 1.35075 105.628 1.0501 105.725 0.448809H112.367C112.217 1.13853 112.128 1.38612 111.731 1.41265C110.558 1.50107 110.47 1.50107 110.47 5.32991V15.5077C110.47 20.5037 110.532 20.5037 112.569 20.6894C112.358 21.4411 112.27 21.6533 111.846 21.6533H105.539C105.663 21.0785 105.716 20.7779 106.113 20.6894C107.586 20.3888 107.586 20.3888 107.586 16.1709V5.96657C107.586 1.57182 107.621 1.59834 106.051 1.41265Z" fill="#8C9761"/>
<path d="M148.928 25.659C147.305 27.2241 143.909 28.8777 140.16 27.4629C137.153 26.3487 135.23 23.3334 132.857 20.8663C131.446 21.5295 129.761 21.9186 127.838 21.9186C121.293 21.9186 117.147 17.1878 117.147 11.3517C117.147 4.39262 121.831 0.0243891 127.723 0.0243891C133.968 0.0243891 138.661 4.66674 138.661 10.8919C138.661 14.2609 137.4 17.4266 134.965 19.5046C137.4 21.671 139.534 24.1734 141.722 24.987C145.206 26.2514 146.855 25.8624 148.69 25.2611C148.981 25.1815 149.193 25.3849 148.928 25.659ZM120.296 10.7504C120.296 13.3059 120.958 15.5961 122.131 17.3116C125.739 15.322 128.773 15.6846 131.296 16.9225C132.045 17.3116 132.795 17.7626 133.492 18.3108C134.78 16.7722 135.415 14.5174 135.415 11.5639C135.415 6.86854 132.716 1.38614 127.547 1.38614C123.119 1.38614 120.296 5.00275 120.296 10.7504ZM127.926 20.5126C129.399 20.5126 130.66 20.2385 131.684 19.7256C131.146 19.2747 130.599 18.8502 129.999 18.4877C128.102 17.3735 125.703 16.9491 122.431 17.7007C123.754 19.4515 125.677 20.5126 127.926 20.5126Z" fill="#8C9761"/>
<path d="M157.431 1.41265C156.832 1.38612 156.832 1.13853 156.92 0.448809H163.412C163.262 1.1739 163.112 1.41265 162.75 1.41265C161.127 1.41265 160.916 1.98741 160.916 5.11768V12.5012C160.916 17.6476 159.143 21.9274 152.801 21.9274C147.932 21.9274 144.333 19.7256 144.333 13.2882V5.94004C144.333 1.75751 144.306 1.57181 142.895 1.42149C142.419 1.35959 142.383 1.09432 142.472 0.457651H149.175C149.087 1.18274 148.875 1.27117 148.637 1.33307C147.349 1.63371 147.226 1.81056 147.226 5.12653V13.2882C147.226 17.6564 149.122 20.2473 153.145 20.2473C157.617 20.2473 159.337 17.2939 159.337 12.8726V5.97541C159.328 1.81056 159.019 1.50992 157.431 1.41265Z" fill="#8C9761"/>
<path d="M181.018 21.8036C180.145 21.7417 178.495 21.6532 176.51 21.6532H167.857C167.496 21.6532 167.381 21.3261 167.769 21.1757C168.792 20.7867 168.819 20.486 168.819 17.1435V5.93114C168.819 2.01389 168.907 1.74861 168.007 1.56292C167.557 1.47449 167.434 1.2888 167.222 0.448753H176.087C177.886 0.448753 179.995 0.448753 181.018 0.271901C181.194 0.245374 181.344 0.298429 181.344 0.607919L181.494 4.70203C181.494 5.0911 181.071 5.27679 180.894 4.79045C180.109 2.71245 179.783 1.81051 177.048 1.81051H171.703V9.9722H173.802C177.648 9.9722 177.825 9.33553 178.372 8.53086C178.548 8.25674 178.883 8.35401 178.795 8.68118C178.557 9.6185 178.733 11.7849 178.857 12.9875C178.883 13.3147 178.645 13.5004 178.433 13.1997C177.472 11.8115 176.272 11.334 173.75 11.334H171.703V19.5575C171.703 20.035 171.827 20.2207 172.179 20.2473C173.467 20.3357 174.852 20.3711 176.449 20.3092C180.621 20.1588 181.106 18.9828 182.244 16.4803C182.394 16.1532 182.967 16.3035 182.844 16.6925L181.521 21.4498C181.468 21.6886 181.406 21.8389 181.018 21.8036Z" fill="#8C9761"/>
<path d="M204.719 0.448809C204.569 1.20043 204.481 1.38612 204.084 1.41265C202.761 1.50107 202.611 1.47455 202.611 5.32991V19.6991C202.611 19.9732 202.637 20.1766 203.061 20.2119C203.749 20.2738 205.257 20.3357 206.395 20.2738C210.964 20.0351 211.29 19.1597 212.552 16.4185C212.702 16.0913 213.275 16.2416 213.152 16.6307L211.74 21.5118C211.678 21.6887 211.59 21.8478 211.202 21.8125C210.329 21.7506 208.741 21.6621 206.483 21.6621H198.553C198.192 21.6621 198.077 21.388 198.465 21.2112C199.55 20.7337 199.726 20.4595 199.726 16.9933V5.96657C199.726 1.48339 199.665 1.53644 198.103 1.42149C197.715 1.39496 197.68 1.03242 197.804 0.457651H204.719V0.448809Z" fill="#8C9761"/>
<path d="M217.43 1.41265C216.953 1.35075 217.006 1.0501 217.103 0.448809H223.745C223.595 1.13853 223.507 1.38612 223.11 1.41265C221.937 1.50107 221.849 1.50107 221.849 5.32991V15.5077C221.849 20.5037 221.91 20.5037 223.948 20.6894C223.736 21.4411 223.648 21.6533 223.225 21.6533H216.918C217.041 21.0785 217.094 20.7779 217.491 20.6894C218.964 20.3888 218.964 20.3888 218.964 16.1709V5.96657C218.964 1.57182 218.991 1.59834 217.43 1.41265Z" fill="#8C9761"/>
<path d="M229.267 20.6894C230.652 20.3623 230.652 20.3269 230.652 16.3566V5.63055C230.652 1.86362 230.59 1.74867 229.69 1.56297C229.267 1.47455 229.152 1.22695 228.967 0.448809H237.408C239.208 0.448809 241.042 0.422281 242.066 0.271958C242.277 0.24543 242.392 0.360383 242.392 0.607975L242.604 4.61366C242.63 5.00273 242.18 5.21495 242.004 4.73745C241.254 2.68598 240.866 1.81941 238.396 1.81941H233.527V10.2552H234.965C238.749 10.2552 239.084 9.53013 239.499 8.77851C239.649 8.50439 239.975 8.62818 239.922 8.95536C239.746 9.9811 239.834 12.0591 239.949 13.2617C239.975 13.5358 239.711 13.7392 239.525 13.4739C238.59 12.0591 237.391 11.6081 234.745 11.6081H233.51V15.4016C233.536 20.548 233.51 20.548 236.006 20.6983C235.829 21.4234 235.68 21.6621 235.283 21.6621H228.702C228.852 21.1139 228.879 20.7779 229.267 20.6894Z" fill="#8C9761"/>
<path d="M260.157 21.8036C259.284 21.7417 257.634 21.6532 255.649 21.6532H246.996C246.635 21.6532 246.52 21.3261 246.908 21.1757C247.931 20.7867 247.958 20.486 247.958 17.1435V5.93114C247.958 2.01389 248.046 1.74861 247.146 1.56292C246.696 1.47449 246.573 1.2888 246.361 0.448753H255.226C257.026 0.448753 259.134 0.448753 260.157 0.271901C260.333 0.245374 260.483 0.298429 260.483 0.607919L260.633 4.70203C260.633 5.0911 260.21 5.27679 260.033 4.79045C259.248 2.71245 258.922 1.81051 256.188 1.81051H250.842V9.9722H252.941C256.787 9.9722 256.964 9.33553 257.511 8.53086C257.687 8.25674 258.022 8.35401 257.934 8.68118C257.696 9.6185 257.872 11.7849 257.996 12.9875C258.022 13.3147 257.784 13.5004 257.572 13.1997C256.611 11.8115 255.411 11.334 252.889 11.334H250.842V19.5575C250.842 20.035 250.966 20.2207 251.318 20.2473C252.606 20.3357 253.991 20.3711 255.588 20.3092C259.76 20.1588 260.245 18.9828 261.383 16.4803C261.533 16.1532 262.106 16.3035 261.983 16.6925L260.66 21.4498C260.607 21.6886 260.545 21.8389 260.157 21.8036Z" fill="#8C9761"/>
<path d="M56.142 38.9279V47.1249C56.142 47.7948 55.417 48.1297 54.7981 47.9535V39.5801C54.3207 41.1666 53.525 42.9118 52.3226 43.9871C52.128 44.1634 51.9335 43.9519 52.022 43.7932C52.6232 42.7179 53.2067 41.3782 53.6134 40.0737C53.9494 38.9808 54.1792 38.1699 54.3384 37.1474H52.6939C52.4287 37.1474 52.3226 36.9888 52.075 36.2484H54.7981V32.2292L55.8768 32.4584C56.0713 32.4936 56.142 32.5994 56.142 32.7404V36.2484H57.1323C57.4152 36.2484 57.5743 36.0897 57.9103 35.7019C58.317 36.0897 58.5823 36.2837 58.5823 36.5305C58.5823 37.0064 58.2463 37.1474 57.6097 37.1474H56.142V37.9936C56.8493 38.5401 57.5213 38.9808 57.8926 39.6506C58.5292 40.7788 57.4329 41.8013 56.9201 40.6025C56.6725 40.0032 56.3896 39.4038 56.142 38.9279ZM68.131 46.79C68.131 47.2131 67.7773 47.4423 67.1584 47.4423H57.5036C57.1853 47.4423 57.1146 47.2307 56.814 46.508H59.2896V36.3189L60.4036 36.5305C60.5627 36.5657 60.6511 36.7067 60.6511 36.7596H61.6591L61.7652 35.4022H58.5646C58.2817 35.4022 58.2109 35.2436 57.9103 34.5385H61.8182L61.995 32.1234L62.9853 32.3878C63.2682 32.4584 63.3212 32.5465 63.3036 32.758L63.1444 34.5385H66.1505C66.4688 34.5385 66.6102 34.3974 66.9285 34.0273C67.3352 34.3974 67.5651 34.6266 67.5651 34.8205C67.5651 35.226 67.2468 35.4022 66.6633 35.4022H63.0737L62.9499 36.7596H64.0816C64.3822 36.7596 64.559 36.6362 64.7536 36.3718L65.8852 36.7772C66.5218 37.0064 66.1151 37.3766 66.1151 37.7468V46.508H66.6279C66.9639 46.508 67.1054 46.3493 67.459 45.9615C67.8834 46.3669 68.131 46.5961 68.131 46.79ZM60.6511 37.6234V39.1747H64.7536V37.6234H60.6511ZM64.7536 40.0561H60.6511V41.6073H64.7536V40.0561ZM60.6511 44.0577H64.7536V42.4888H60.6511V44.0577ZM60.6511 46.508H64.7536V44.9214H60.6511V46.508Z" fill="#8C9761"/>
<path d="M102.524 34.8205V36.0897C102.524 37.5529 102.347 39.0865 101.834 40.6378C101.498 41.6602 100.561 42.9471 99.6948 43.4583C99.518 43.564 99.3412 43.3172 99.4473 43.1762C100.438 41.8012 100.897 40.1971 101.056 38.2404C101.163 36.883 101.127 35.0497 101.109 33.4455L102.206 33.6747C102.4 33.7099 102.524 33.8333 102.524 33.9391H108.625C108.589 33.3397 108.572 32.7051 108.554 32L109.65 32.1763C109.862 32.2115 109.951 32.3349 109.951 32.4583C109.951 32.9695 109.969 33.4631 109.986 33.9391H113.293C113.593 33.9391 113.717 33.7628 114.018 33.4455C114.407 33.7981 114.69 33.992 114.69 34.2388C114.69 34.609 114.372 34.8205 113.806 34.8205H110.039C110.145 36.3541 110.375 37.5529 110.8 38.3637L110.959 38.6458C111.578 37.6234 112.02 36.5481 112.338 35.4199L113.151 35.9134C113.54 36.1602 113.54 36.2307 113.381 36.6186C113.081 37.4118 112.479 38.5577 111.648 39.6153C112.356 40.4439 113.134 40.9375 113.664 41.149C113.841 41.2195 113.983 41.2371 114.071 41.1137C114.212 40.9198 114.478 40.1794 114.584 39.8445C114.619 39.7211 114.849 39.7564 114.849 39.8974C114.849 40.4262 114.831 41.5368 115.026 41.9599C115.344 42.6474 115.309 43.1762 114.23 42.8942C113.7 42.7531 112.055 42.0833 110.747 40.6378C109.915 41.4487 108.872 42.1538 107.528 42.665C107.298 42.7532 107.157 42.4887 107.334 42.3653C108.501 41.5897 109.367 40.7612 110.128 39.8093C110.022 39.6682 109.915 39.5096 109.827 39.3333C109.244 38.2756 108.872 36.9182 108.695 34.8205H102.524ZM102.506 43.6522C102.259 45.0801 101.941 46.1906 101.392 46.8252C100.314 48.0768 99.1643 46.9663 100.013 46.173C100.809 45.415 101.534 44.7099 102.153 43.5817C102.259 43.3878 102.542 43.423 102.506 43.6522ZM103.32 36.742C103.072 36.742 103.002 36.5481 102.701 35.8958H107.086C107.369 35.8958 107.546 35.7019 107.794 35.4199C108.2 35.7548 108.43 35.9487 108.43 36.2131C108.43 36.5657 108.076 36.742 107.564 36.742H103.32ZM103.125 41.7836V37.3589L104.186 37.5529C104.398 37.5881 104.469 37.6763 104.469 37.7997H105.99C106.344 37.7997 106.538 37.6586 106.768 37.3942L107.864 37.7644C108.572 37.9936 108.112 38.3285 108.112 38.6811V40.7612C108.112 41.5016 107.44 41.6602 106.768 41.5544V40.9551H104.469C104.451 41.6426 103.815 41.907 103.125 41.7836ZM111.472 47.2836C110.358 47.6714 108.006 47.689 106.609 47.6361C103.939 47.5304 103.762 47.1954 103.762 44.9567V43.0881L104.876 43.3349C105.123 43.3878 105.176 43.4759 105.176 43.5993V45.3445C105.176 46.1554 105.23 46.2964 106.538 46.4022C107.581 46.4903 109.473 46.4551 110.216 46.2435C110.517 46.1554 110.676 45.9262 110.747 45.556L110.888 44.7804C110.923 44.6217 111.118 44.6041 111.153 44.7804C111.277 45.4326 111.383 45.891 111.648 46.1377C112.25 46.6842 111.931 47.1249 111.472 47.2836ZM104.469 38.6282V40.1266H106.768V38.6282H104.469ZM108.678 43.9166C109.385 44.7275 108.501 45.8557 107.776 45.0095C107.228 44.3573 106.697 43.5464 106.096 42.7708C105.937 42.5592 106.114 42.4006 106.308 42.4711C107.705 43.0352 108.2 43.3525 108.678 43.9166ZM110.481 32.3702C110.358 32.2115 110.446 32.0353 110.676 32.0881C111.472 32.2644 111.967 32.4054 112.338 32.6522C113.151 33.1811 112.444 34.5032 111.525 33.6218C111.171 33.2692 110.8 32.7933 110.481 32.3702ZM113.912 46.2435C113.275 45.5384 112.497 44.4983 111.631 43.5993C111.525 43.4935 111.578 43.1939 111.878 43.3349C113.47 44.0753 114.425 44.5688 114.937 45.2035C115.671 46.0849 114.92 47.3541 113.912 46.2435Z" fill="#8C9761"/>
<path d="M162.743 46.5256C162.743 46.9487 162.354 47.1602 161.646 47.1602H147.677C147.323 47.1602 147.217 46.9487 146.846 46.1025H154.202V41.9952H150.17C149.834 41.9952 149.746 41.766 149.374 40.9727H154.202V37.2179H150.17C149.321 38.6282 148.349 39.9503 147.465 40.7788C147.253 40.9727 147.076 40.6907 147.164 40.532C148.42 38.3814 149.622 35.7901 150.4 33.1635L151.443 33.6747C151.762 33.8333 151.85 33.9215 151.709 34.2388C151.443 34.8734 151.107 35.5433 150.736 36.2131H154.202V32.141L155.404 32.3878C155.581 32.4231 155.705 32.5112 155.705 32.6523V36.2131H159.577C159.931 36.2131 160.126 36.0192 160.444 35.649C160.851 36.0192 161.187 36.2484 161.187 36.5833C161.187 37.0417 160.798 37.2179 160.143 37.2179H155.705V40.9727H158.729C159.047 40.9727 159.259 40.8317 159.577 40.4439C160.02 40.8317 160.32 41.0961 160.32 41.3782C160.32 41.7484 159.949 41.9952 159.295 41.9952H155.705V46.1025H161.045C161.381 46.1025 161.629 45.9262 161.965 45.5208C162.398 45.9615 162.743 46.2612 162.743 46.5256Z" fill="#8C9761"/>
<path d="M197.021 43.4583C197.304 44.5865 197.516 45.5384 197.498 46.1554C197.463 47.1426 196.968 47.8653 196.349 47.8829C195.783 47.9006 195.376 47.4246 195.571 46.79C195.836 45.9438 196.455 44.7099 196.349 43.7932C196.278 43.2115 195.465 42.9647 194.475 42.8942C194.209 42.8766 194.174 42.5416 194.457 42.524C195.535 42.4535 195.783 42.3125 196.101 41.766C196.879 40.4439 198.382 36.883 199.107 34.9968C199.231 34.6795 199.585 34.7853 199.496 35.0849C198.029 39.8269 196.72 42.2772 197.021 43.4583ZM194.368 36.4776C194.245 36.266 194.351 36.0897 194.598 36.1955C195.412 36.5657 196.013 36.883 196.455 37.4118C197.304 38.4166 196.278 39.7388 195.571 38.6458C195.093 37.9054 194.704 37.0769 194.368 36.4776ZM195.907 32.7404C195.748 32.5112 195.854 32.2997 196.137 32.4231C196.932 32.7757 197.64 33.0577 198.099 33.516C198.984 34.3974 198.046 35.8429 197.215 34.7147C196.685 33.992 196.225 33.1987 195.907 32.7404ZM210 37.6939C210 38.0993 209.664 38.2933 209.045 38.2933H205.031V41.1137H206.127C206.463 41.1137 206.64 40.9903 206.906 40.7083L208.143 41.1137C208.851 41.3429 208.355 41.7131 208.355 42.0833V46.9839C208.355 47.7772 207.684 48.0063 206.906 47.9182V46.4022H201.795V46.79C201.795 47.7067 201.123 47.8653 200.345 47.7772V40.673L201.495 40.9022C201.671 40.9375 201.777 41.008 201.795 41.1137H203.563V38.2933H199.885C199.567 38.2933 199.479 38.1346 199.125 37.359H203.563V34.274C202.184 34.4327 200.858 34.5385 200.062 34.5032C199.903 34.5032 199.726 34.1859 200.045 34.133C202.167 33.7452 205.827 32.9519 207.471 32.2997L208.055 32.899C208.426 33.2692 208.355 33.4455 208.09 33.516C207.471 33.6923 206.304 33.9038 205.031 34.0801V37.359H208.497C208.798 37.359 208.974 37.2003 209.31 36.8125C209.699 37.2356 210 37.4471 210 37.6939ZM201.795 42.048V45.4326H206.906V42.048H201.795Z" fill="#8C9761"/>
</g>
<defs>
<clipPath id="clip0_6028_3188">
<rect width="262" height="48" fill="white"/>
</clipPath>
</defs>
</svg>
