<svg width="175" height="32" viewBox="0 0 175 32" fill="none" xmlns="http://www.w3.org/2000/svg">
<path d="M0.418309 22.793C1.27849 22.6515 1.26082 22.5748 1.26082 19.8042V12.9364C1.26082 10.3249 1.24314 10.3073 0.618625 10.1068C0.17675 9.96534 0.0765916 9.84744 0.0942667 9.3051C1.47881 9.54679 3.54679 9.3051 5.33196 9.3051C8.18353 9.3051 10.2869 11.3153 10.2869 13.2607C10.2869 16.9569 6.81666 18.1005 3.84726 17.5994C3.66462 17.5582 3.6057 17.3165 3.8885 17.2988C6.71651 17.1573 8.30137 15.8722 8.20121 13.3609C8.11872 11.274 6.55743 9.74722 3.18739 10.4487V19.3385C3.18739 22.6692 3.18739 22.6692 5.03149 22.793C4.89009 23.3176 4.77225 23.4355 4.48945 23.4355H0C0.0765917 23.0523 0.135508 22.8342 0.418309 22.793Z" fill="#8C9761"/>
<path d="M17.4982 9.29921C17.3981 9.80028 17.3392 9.92408 17.074 9.94177C16.1903 10.0007 16.0901 9.98303 16.0901 12.5533V22.1327C16.0901 22.3155 16.1078 22.4511 16.3906 22.4746C16.8501 22.5159 17.8576 22.5572 18.6176 22.5159C21.6695 22.3567 21.8875 21.7731 22.73 19.9457C22.8302 19.7275 23.2132 19.8278 23.1307 20.0871L22.188 23.3412C22.1468 23.4591 22.0878 23.5652 21.8286 23.5416C21.2453 23.5004 20.1848 23.4414 18.6766 23.4414H13.38C13.1384 23.4414 13.0618 23.2587 13.321 23.1408C14.0457 22.8224 14.1635 22.6397 14.1635 20.3288V12.9777C14.1635 9.98893 14.1223 10.0243 13.0795 9.94766C12.8202 9.92998 12.7967 9.68828 12.8792 9.3051H17.4982V9.29921Z" fill="#8C9761"/>
<path d="M37.7067 22.7929C37.5476 23.294 37.524 23.4355 37.2648 23.4355H33.0935C33.176 22.9757 33.176 22.8106 33.4529 22.7929C34.6784 22.7104 34.4545 22.2683 33.8535 20.5469L33.2526 18.8374H28.3389L27.355 21.5903C26.9721 22.6573 27.1135 22.6927 28.5216 22.7929C28.3625 23.294 28.3389 23.4355 28.0797 23.4355H24.5683C24.6507 22.9344 24.6507 22.8342 24.9276 22.7929C25.5875 22.6927 25.7702 22.4333 26.4948 20.5646L30.9313 9.18127C31.0314 8.93958 31.273 8.93958 31.3731 9.18127L36.0099 20.6059C36.6815 22.2919 36.8229 22.7752 37.7067 22.7929ZM30.7427 12.5356L28.6747 17.959H32.8696L30.8606 12.5356C30.8429 12.4943 30.7604 12.4943 30.7427 12.5356Z" fill="#8C9761"/>
<path d="M42.8442 9.29921L50.851 19.6391V12.9777C50.851 10.2896 50.7685 10.0066 49.6255 9.94766C49.2249 9.92998 49.2072 9.78849 49.3074 9.3051H53.5022C53.3608 9.86513 53.3608 9.9064 53.1016 9.94766C51.9763 10.1304 51.9174 10.3308 51.9174 12.5356V23.4002C51.9174 23.7185 51.3577 23.6418 51.2575 23.5004L42.3611 11.8341V19.4446C42.3611 22.4334 42.3199 22.6161 43.9872 22.7989C43.8281 23.2823 43.8046 23.4414 43.5453 23.4414H39.7511C39.8336 23.017 39.8512 22.8578 40.134 22.7989C41.2593 22.5807 41.3006 22.4393 41.3006 20.0871V11.109C41.3006 10.3073 40.6996 10.0479 39.8984 9.94177C39.5979 9.9005 39.6156 9.70007 39.6745 9.29921H42.8442Z" fill="#8C9761"/>
<path d="M55.9473 9.42298C55.9473 9.22255 56.0651 9.1636 56.2655 9.18128C56.9253 9.24023 58.6104 9.29918 60.2777 9.29918H63.5476C65.4565 9.29918 66.7998 9.24023 67.4832 9.18128C67.6835 9.1636 67.8662 9.18128 67.8426 9.38171C67.7424 10.4075 67.66 11.5275 67.5834 12.5768C67.5657 12.8598 67.224 12.8362 67.1827 12.6181C66.8999 11.0323 66.3579 10.207 65.374 10.207H62.7227V19.3443C62.7227 22.6397 62.764 22.6397 64.6081 22.7988C64.4667 23.2822 64.3665 23.4414 64.0837 23.4414H58.9462C59.0287 23.0405 59.0876 22.8401 59.3468 22.7988C60.7137 22.5984 60.7726 22.5807 60.7726 19.7865V10.207H58.0035C57.2199 10.207 56.619 11.0913 56.2007 12.6181C56.1005 12.9777 55.8 12.8598 55.8 12.6181C55.8059 11.5688 55.9473 10.4487 55.9473 9.42298Z" fill="#8C9761"/>
<path d="M70.8356 9.94177C70.5174 9.9005 70.5528 9.70007 70.6176 9.29921H75.054C74.9538 9.75902 74.8949 9.92408 74.6298 9.94177C73.8462 10.0007 73.7873 10.0007 73.7873 12.5533V19.3385C73.7873 22.6692 73.8285 22.6692 75.1895 22.793C75.0481 23.294 74.9892 23.4355 74.7064 23.4355H70.4938C70.5763 23.0523 70.6117 22.8519 70.8768 22.793C71.8607 22.5925 71.8607 22.5925 71.8607 19.7806V12.9777C71.8607 10.0479 71.8843 10.0656 70.8356 9.94177Z" fill="#8C9761"/>
<path d="M99.4749 26.106C98.3908 27.1494 96.1225 28.2518 93.6186 27.3086C91.6095 26.5658 90.3251 24.5556 88.7403 22.9109C87.7976 23.353 86.6723 23.6124 85.3879 23.6124C81.0163 23.6124 78.2472 20.4585 78.2472 16.5678C78.2472 11.9284 81.3757 9.01626 85.3113 9.01626C89.4826 9.01626 92.617 12.1112 92.617 16.2613C92.617 18.5073 91.7745 20.6177 90.1484 22.003C91.7745 23.4473 93.2003 25.1156 94.6614 25.658C96.9886 26.501 98.0904 26.2416 99.3158 25.8407C99.5102 25.7877 99.6516 25.9232 99.4749 26.106ZM80.3505 16.1669C80.3505 17.8706 80.7924 19.3974 81.576 20.5411C83.9857 19.2147 86.0124 19.4564 87.6974 20.2817C88.1982 20.5411 88.699 20.8417 89.1645 21.2072C90.0247 20.1815 90.4488 18.6782 90.4488 16.7093C90.4488 13.579 88.646 9.9241 85.1935 9.9241C82.2359 9.9241 80.3505 12.3352 80.3505 16.1669ZM85.4468 22.6751C86.4307 22.6751 87.2732 22.4923 87.9567 22.1504C87.5973 21.8498 87.232 21.5668 86.8314 21.3251C85.5647 20.5823 83.9621 20.2994 81.7763 20.8005C82.6601 21.9677 83.9445 22.6751 85.4468 22.6751Z" fill="#8C9761"/>
<path d="M105.155 9.94177C104.754 9.92408 104.754 9.75902 104.813 9.29921H109.149C109.049 9.7826 108.949 9.94177 108.707 9.94177C107.623 9.94177 107.482 10.3249 107.482 12.4118V17.3342C107.482 20.7651 106.298 23.6183 102.061 23.6183C98.8092 23.6183 96.4054 22.1504 96.4054 17.8588V12.96C96.4054 10.1717 96.3877 10.0479 95.4451 9.94766C95.1269 9.9064 95.1034 9.72954 95.1623 9.3051H99.64C99.581 9.78849 99.4396 9.84744 99.2806 9.88871C98.4204 10.0891 98.3379 10.207 98.3379 12.4177V17.8588C98.3379 20.771 99.6046 22.4982 102.291 22.4982C105.278 22.4982 106.427 20.5293 106.427 17.5817V12.9836C106.421 10.207 106.215 10.0066 105.155 9.94177Z" fill="#8C9761"/>
<path d="M120.909 23.5357C120.326 23.4944 119.224 23.4355 117.898 23.4355H112.118C111.877 23.4355 111.8 23.2174 112.06 23.1172C112.743 22.8578 112.761 22.6573 112.761 20.429V12.9541C112.761 10.3426 112.82 10.1657 112.219 10.0419C111.918 9.98299 111.836 9.8592 111.694 9.29917H117.615C118.817 9.29917 120.225 9.29917 120.909 9.18127C121.027 9.16358 121.127 9.19895 121.127 9.40528L121.227 12.1347C121.227 12.3941 120.944 12.5179 120.826 12.1936C120.302 10.8083 120.084 10.207 118.258 10.207H114.687V15.6481H116.089C118.658 15.6481 118.776 15.2237 119.141 14.6872C119.259 14.5045 119.483 14.5693 119.424 14.7875C119.265 15.4123 119.383 16.8566 119.465 17.6583C119.483 17.8765 119.324 18.0003 119.183 17.7998C118.54 16.8743 117.739 16.556 116.054 16.556H114.687V22.0384C114.687 22.3567 114.77 22.4805 115.005 22.4982C115.866 22.5571 116.791 22.5807 117.857 22.5394C120.644 22.4392 120.968 21.6552 121.728 19.9869C121.828 19.7688 122.211 19.869 122.128 20.1284L121.245 23.2999C121.209 23.4591 121.168 23.5593 120.909 23.5357Z" fill="#8C9761"/>
<path d="M136.74 9.29921C136.64 9.80028 136.581 9.92408 136.316 9.94177C135.432 10.0007 135.332 9.98303 135.332 12.5533V22.1327C135.332 22.3155 135.349 22.4511 135.632 22.4746C136.092 22.5159 137.099 22.5572 137.859 22.5159C140.911 22.3567 141.129 21.7731 141.972 19.9457C142.072 19.7275 142.455 19.8278 142.372 20.0871L141.43 23.3412C141.388 23.4591 141.329 23.5652 141.07 23.5416C140.487 23.5004 139.426 23.4414 137.918 23.4414H132.621C132.38 23.4414 132.303 23.2587 132.563 23.1408C133.287 22.8224 133.405 22.6397 133.405 20.3288V12.9777C133.405 9.98893 133.364 10.0243 132.321 9.94766C132.062 9.92998 132.038 9.68828 132.121 9.3051H136.74V9.29921Z" fill="#8C9761"/>
<path d="M145.23 9.94177C144.912 9.9005 144.947 9.70007 145.012 9.29921H149.448C149.348 9.75902 149.289 9.92408 149.024 9.94177C148.24 10.0007 148.181 10.0007 148.181 12.5533V19.3385C148.181 22.6692 148.223 22.6692 149.584 22.793C149.442 23.294 149.383 23.4355 149.101 23.4355H144.888C144.97 23.0523 145.006 22.8519 145.271 22.793C146.255 22.5925 146.255 22.5925 146.255 19.7806V12.9777C146.255 10.0479 146.272 10.0656 145.23 9.94177Z" fill="#8C9761"/>
<path d="M153.136 22.793C154.061 22.5748 154.061 22.5513 154.061 19.9044V12.7537C154.061 10.2424 154.02 10.1658 153.419 10.042C153.136 9.98303 153.06 9.81797 152.936 9.29921H158.574C159.776 9.29921 161.002 9.28152 161.685 9.18131C161.826 9.16362 161.903 9.24026 161.903 9.40532L162.044 12.0758C162.062 12.3352 161.762 12.4766 161.644 12.1583C161.143 10.7907 160.884 10.2129 159.234 10.2129H155.982V15.8368H156.942C159.47 15.8368 159.694 15.3534 159.971 14.8523C160.071 14.6696 160.289 14.7521 160.253 14.9702C160.136 15.6541 160.195 17.0394 160.271 17.8411C160.289 18.0239 160.112 18.1595 159.988 17.9826C159.364 17.0394 158.563 16.7388 156.795 16.7388H155.97V19.2677C155.988 22.6986 155.97 22.6986 157.638 22.7989C157.52 23.2823 157.42 23.4414 157.154 23.4414H152.759C152.859 23.0759 152.877 22.8519 153.136 22.793Z" fill="#8C9761"/>
<path d="M173.769 23.5357C173.186 23.4944 172.084 23.4355 170.758 23.4355H164.979C164.737 23.4355 164.66 23.2174 164.92 23.1172C165.603 22.8578 165.621 22.6573 165.621 20.429V12.9541C165.621 10.3426 165.68 10.1657 165.079 10.0419C164.778 9.98299 164.696 9.8592 164.554 9.29917H170.475C171.677 9.29917 173.085 9.29917 173.769 9.18127C173.887 9.16358 173.987 9.19895 173.987 9.40528L174.087 12.1347C174.087 12.3941 173.804 12.5179 173.686 12.1936C173.162 10.8083 172.944 10.207 171.118 10.207H167.547V15.6481H168.949C171.518 15.6481 171.636 15.2237 172.001 14.6872C172.119 14.5045 172.343 14.5693 172.284 14.7875C172.125 15.4123 172.243 16.8566 172.325 17.6583C172.343 17.8765 172.184 18.0003 172.043 17.7998C171.4 16.8743 170.599 16.556 168.914 16.556H167.547V22.0384C167.547 22.3567 167.63 22.4805 167.865 22.4982C168.726 22.5571 169.651 22.5807 170.717 22.5394C173.504 22.4392 173.828 21.6552 174.588 19.9869C174.688 19.7688 175.071 19.869 174.988 20.1284L174.105 23.2999C174.069 23.4591 174.028 23.5593 173.769 23.5357Z" fill="#8C9761"/>
</svg>
