<svg width="24" height="24" viewBox="0 0 24 24" fill="white" xmlns="http://www.w3.org/2000/svg">
<path fill-rule="evenodd" clip-rule="evenodd" d="M12.0006 2C17.9452 2.00017 23 5.74983 23 10.5934C23 12.2006 22.4509 13.6599 21.36 15.0548H21.4003L20.9516 15.5448C20.8671 15.6405 20.7791 15.7351 20.6894 15.8303L20.6223 15.9052C19.4789 17.1563 17.6561 18.5195 16.0048 19.6138C14.3594 20.7041 12.8128 21.5743 12.1994 21.8201C11.8903 21.9439 11.6024 22.0151 11.3434 21.9973C11.0494 21.977 10.7989 21.8397 10.6557 21.5953C10.5359 21.3904 10.5291 21.1714 10.535 21.041C10.5413 20.9027 10.5674 20.7708 10.5765 20.7211C10.5899 20.6458 10.6279 20.4351 10.6618 20.2418C10.6788 20.145 10.695 20.0529 10.7069 19.9848C10.7129 19.9507 10.7169 19.9223 10.7203 19.9028C10.7212 19.8978 10.7221 19.8935 10.7228 19.8897C10.7391 19.7716 10.7542 19.6346 10.7545 19.5055C10.7547 19.384 10.7403 19.3064 10.7277 19.2664L10.7252 19.2653C10.7047 19.2485 10.6675 19.2246 10.6082 19.1975C10.4899 19.1433 10.3377 19.1001 10.1887 19.069C5.00579 18.4063 1.00013 14.923 1 10.5934C1 5.74971 6.05664 2 12.0006 2ZM12.0006 3.02288C6.39272 3.02288 2.04861 6.52461 2.04861 10.5934C2.04873 14.1312 5.26998 17.2471 9.89974 17.995L10.3521 18.0604L10.3728 18.0628L10.3936 18.0663C10.5821 18.105 10.8276 18.1688 11.0532 18.2721C11.2597 18.3667 11.5563 18.5423 11.6921 18.8621L11.6933 18.8644C11.7848 19.0825 11.8023 19.3231 11.8019 19.5079C11.8014 19.7025 11.7804 19.8904 11.7616 20.0265L11.7604 20.036L11.7592 20.0443L11.758 20.0467C11.7577 20.048 11.7571 20.0504 11.7567 20.0526C11.7558 20.0578 11.7547 20.0659 11.7531 20.0752C11.7497 20.0947 11.7456 20.1225 11.7397 20.1561C11.7277 20.2243 11.7104 20.317 11.6933 20.4142C11.6594 20.6079 11.6228 20.8221 11.6092 20.8983L11.608 20.8995C11.6052 20.9149 11.6032 20.9297 11.6007 20.9435C11.6556 20.9276 11.722 20.906 11.8006 20.8745C12.3055 20.6723 13.7765 19.8553 15.4171 18.7681C17.0036 17.7168 18.6805 16.4548 19.742 15.3272L19.8481 15.2166C21.2965 13.7065 21.9526 12.2199 21.9526 10.5934C21.9526 6.5247 17.6091 3.02305 12.0006 3.02288Z"/>
<path fill-rule="evenodd" clip-rule="evenodd" d="M8.36729 11.9835H6.54262V8.62001C6.54262 8.51553 6.45914 8.43078 6.35622 8.43078H5.68451C5.58159 8.43078 5.49811 8.51553 5.49811 8.62001V12.8547C5.49811 12.9053 5.51802 12.9518 5.55017 12.9855C5.55089 12.9864 5.55161 12.9877 5.5528 12.9886C5.55352 12.9896 5.55448 12.9903 5.55544 12.9913C5.58903 13.0237 5.63413 13.0439 5.68427 13.0439H8.36729C8.4702 13.0439 8.55345 12.9592 8.55345 12.8547V12.1728C8.55345 12.0683 8.4702 11.9835 8.36729 11.9835Z"/>
<path fill-rule="evenodd" clip-rule="evenodd" d="M9.98631 8.43106H9.3146C9.21168 8.43106 9.1282 8.51581 9.1282 8.62005V12.8552C9.1282 12.9594 9.21168 13.0439 9.3146 13.0439H9.98631C10.0892 13.0439 10.1727 12.9594 10.1727 12.8552V8.62005C10.1727 8.51581 10.0892 8.43106 9.98631 8.43106Z"/>
<path fill-rule="evenodd" clip-rule="evenodd" d="M14.6087 8.43106H13.9372C13.834 8.43106 13.7505 8.51581 13.7505 8.62005V11.1361L11.8388 8.51508C11.8345 8.50826 11.8294 8.50217 11.8244 8.49608C11.8239 8.4956 11.8235 8.49511 11.8232 8.49462C11.8196 8.49048 11.8155 8.48683 11.8119 8.48293C11.8107 8.48196 11.8098 8.48098 11.8083 8.47977C11.8052 8.47684 11.8019 8.47392 11.7985 8.47149C11.7968 8.47003 11.7951 8.46881 11.7937 8.46759C11.7903 8.4654 11.7872 8.46296 11.7839 8.46077C11.7822 8.45955 11.7803 8.45858 11.7783 8.45736C11.775 8.45541 11.7716 8.45346 11.7683 8.45176C11.7664 8.45079 11.7644 8.44981 11.7625 8.44884C11.7589 8.44738 11.7556 8.44567 11.7517 8.44421C11.7496 8.44348 11.7479 8.44275 11.7457 8.44202C11.7421 8.4408 11.7385 8.43958 11.7347 8.43836C11.7325 8.43788 11.7304 8.43739 11.7282 8.43666C11.7246 8.43593 11.721 8.43496 11.7174 8.43423C11.7148 8.43374 11.7121 8.43349 11.7097 8.43325C11.7064 8.43252 11.703 8.43228 11.6999 8.43203C11.6965 8.43155 11.6934 8.43155 11.6901 8.4313C11.6879 8.4313 11.6857 8.43106 11.6836 8.43106H11.0121C10.9092 8.43106 10.8255 8.51581 10.8255 8.62005V12.8552C10.8255 12.9594 10.9092 13.0439 11.0121 13.0439H11.6836C11.7867 13.0439 11.8702 12.9594 11.8702 12.8552V10.3397L13.7844 12.9643C13.7976 12.9831 13.8139 12.9984 13.8316 13.0108C13.8324 13.0113 13.8331 13.0118 13.8336 13.0123C13.8374 13.015 13.8412 13.0174 13.8451 13.0193C13.847 13.0206 13.8487 13.0213 13.8503 13.0223C13.8532 13.024 13.8563 13.0254 13.8592 13.0269C13.8623 13.0279 13.8652 13.0293 13.8683 13.0305C13.8703 13.0313 13.8719 13.0323 13.8739 13.0327C13.8784 13.0344 13.8825 13.0357 13.8866 13.0371C13.8875 13.0371 13.8885 13.0376 13.8892 13.0376C13.9043 13.0418 13.9204 13.0439 13.9372 13.0439H14.6087C14.7116 13.0439 14.7951 12.9594 14.7951 12.8552V8.62005C14.7951 8.51581 14.7116 8.43106 14.6087 8.43106Z"/>
<path fill-rule="evenodd" clip-rule="evenodd" d="M18.318 9.49143C18.4209 9.49143 18.5042 9.40668 18.5042 9.30196V8.62029C18.5042 8.51581 18.4209 8.43106 18.318 8.43106H15.6352C15.5848 8.43106 15.5393 8.45127 15.5054 8.48439C15.505 8.48512 15.504 8.48561 15.5035 8.48634C15.5023 8.48756 15.5014 8.48853 15.5004 8.48975C15.4685 8.5236 15.4488 8.56939 15.4488 8.62005V12.8547C15.4488 12.9056 15.4687 12.9516 15.5009 12.9857C15.5016 12.9865 15.5026 12.9877 15.5035 12.9887C15.5042 12.9894 15.5052 12.9904 15.5062 12.9911C15.5395 13.0237 15.5848 13.0439 15.635 13.0439H18.318C18.4209 13.0439 18.5042 12.9592 18.5042 12.8547V12.1728C18.5042 12.0686 18.4209 11.9836 18.318 11.9836H16.4933V11.2676H18.318C18.4209 11.2676 18.5042 11.1828 18.5042 11.0783V10.3967C18.5042 10.2919 18.4209 10.2069 18.318 10.2069H16.4933V9.49143H18.318Z"/>
</svg>
